%TF.GenerationSoftware,KiCad,Pcbnew,10.99.0-unknown-ab00e101b5~187~ubuntu24.04.1*%
%TF.CreationDate,2026-08-31T00:15:45-04:00*%
%TF.ProjectId,stmboard,73746d62-6f61-4726-942e-6b696361645f,rev?*%
%TF.SameCoordinates,Original*%
%TF.FileFunction,Legend,Top*%
%TF.FilePolarity,Positive*%
%FSLAX46Y46*%
G04 Gerber Fmt 4.6, Leading zero omitted, Abs format (unit mm)*
G04 Created by KiCad (PCBNEW 10.99.0-unknown-ab00e101b5~187~ubuntu24.04.1) date 2026-08-31 00:15:45*
%MOMM*%
%LPD*%
G01*
G04 APERTURE LIST*
%ADD10C,0.150000*%
%ADD11C,0.158750*%
%ADD12C,0.120000*%
%ADD13C,0.254000*%
G04 APERTURE END LIST*
D10*
X234942142Y-122409580D02*
X234894523Y-122457200D01*
X234894523Y-122457200D02*
X234751666Y-122504819D01*
X234751666Y-122504819D02*
X234656428Y-122504819D01*
X234656428Y-122504819D02*
X234513571Y-122457200D01*
X234513571Y-122457200D02*
X234418333Y-122361961D01*
X234418333Y-122361961D02*
X234370714Y-122266723D01*
X234370714Y-122266723D02*
X234323095Y-122076247D01*
X234323095Y-122076247D02*
X234323095Y-121933390D01*
X234323095Y-121933390D02*
X234370714Y-121742914D01*
X234370714Y-121742914D02*
X234418333Y-121647676D01*
X234418333Y-121647676D02*
X234513571Y-121552438D01*
X234513571Y-121552438D02*
X234656428Y-121504819D01*
X234656428Y-121504819D02*
X234751666Y-121504819D01*
X234751666Y-121504819D02*
X234894523Y-121552438D01*
X234894523Y-121552438D02*
X234942142Y-121600057D01*
X235894523Y-122504819D02*
X235323095Y-122504819D01*
X235608809Y-122504819D02*
X235608809Y-121504819D01*
X235608809Y-121504819D02*
X235513571Y-121647676D01*
X235513571Y-121647676D02*
X235418333Y-121742914D01*
X235418333Y-121742914D02*
X235323095Y-121790533D01*
X236275476Y-121600057D02*
X236323095Y-121552438D01*
X236323095Y-121552438D02*
X236418333Y-121504819D01*
X236418333Y-121504819D02*
X236656428Y-121504819D01*
X236656428Y-121504819D02*
X236751666Y-121552438D01*
X236751666Y-121552438D02*
X236799285Y-121600057D01*
X236799285Y-121600057D02*
X236846904Y-121695295D01*
X236846904Y-121695295D02*
X236846904Y-121790533D01*
X236846904Y-121790533D02*
X236799285Y-121933390D01*
X236799285Y-121933390D02*
X236227857Y-122504819D01*
X236227857Y-122504819D02*
X236846904Y-122504819D01*
X216629580Y-100886666D02*
X216677200Y-100934285D01*
X216677200Y-100934285D02*
X216724819Y-101077142D01*
X216724819Y-101077142D02*
X216724819Y-101172380D01*
X216724819Y-101172380D02*
X216677200Y-101315237D01*
X216677200Y-101315237D02*
X216581961Y-101410475D01*
X216581961Y-101410475D02*
X216486723Y-101458094D01*
X216486723Y-101458094D02*
X216296247Y-101505713D01*
X216296247Y-101505713D02*
X216153390Y-101505713D01*
X216153390Y-101505713D02*
X215962914Y-101458094D01*
X215962914Y-101458094D02*
X215867676Y-101410475D01*
X215867676Y-101410475D02*
X215772438Y-101315237D01*
X215772438Y-101315237D02*
X215724819Y-101172380D01*
X215724819Y-101172380D02*
X215724819Y-101077142D01*
X215724819Y-101077142D02*
X215772438Y-100934285D01*
X215772438Y-100934285D02*
X215820057Y-100886666D01*
X215724819Y-100029523D02*
X215724819Y-100219999D01*
X215724819Y-100219999D02*
X215772438Y-100315237D01*
X215772438Y-100315237D02*
X215820057Y-100362856D01*
X215820057Y-100362856D02*
X215962914Y-100458094D01*
X215962914Y-100458094D02*
X216153390Y-100505713D01*
X216153390Y-100505713D02*
X216534342Y-100505713D01*
X216534342Y-100505713D02*
X216629580Y-100458094D01*
X216629580Y-100458094D02*
X216677200Y-100410475D01*
X216677200Y-100410475D02*
X216724819Y-100315237D01*
X216724819Y-100315237D02*
X216724819Y-100124761D01*
X216724819Y-100124761D02*
X216677200Y-100029523D01*
X216677200Y-100029523D02*
X216629580Y-99981904D01*
X216629580Y-99981904D02*
X216534342Y-99934285D01*
X216534342Y-99934285D02*
X216296247Y-99934285D01*
X216296247Y-99934285D02*
X216201009Y-99981904D01*
X216201009Y-99981904D02*
X216153390Y-100029523D01*
X216153390Y-100029523D02*
X216105771Y-100124761D01*
X216105771Y-100124761D02*
X216105771Y-100315237D01*
X216105771Y-100315237D02*
X216153390Y-100410475D01*
X216153390Y-100410475D02*
X216201009Y-100458094D01*
X216201009Y-100458094D02*
X216296247Y-100505713D01*
X211707142Y-111764819D02*
X211373809Y-111288628D01*
X211135714Y-111764819D02*
X211135714Y-110764819D01*
X211135714Y-110764819D02*
X211516666Y-110764819D01*
X211516666Y-110764819D02*
X211611904Y-110812438D01*
X211611904Y-110812438D02*
X211659523Y-110860057D01*
X211659523Y-110860057D02*
X211707142Y-110955295D01*
X211707142Y-110955295D02*
X211707142Y-111098152D01*
X211707142Y-111098152D02*
X211659523Y-111193390D01*
X211659523Y-111193390D02*
X211611904Y-111241009D01*
X211611904Y-111241009D02*
X211516666Y-111288628D01*
X211516666Y-111288628D02*
X211135714Y-111288628D01*
X212659523Y-111764819D02*
X212088095Y-111764819D01*
X212373809Y-111764819D02*
X212373809Y-110764819D01*
X212373809Y-110764819D02*
X212278571Y-110907676D01*
X212278571Y-110907676D02*
X212183333Y-111002914D01*
X212183333Y-111002914D02*
X212088095Y-111050533D01*
X213611904Y-111764819D02*
X213040476Y-111764819D01*
X213326190Y-111764819D02*
X213326190Y-110764819D01*
X213326190Y-110764819D02*
X213230952Y-110907676D01*
X213230952Y-110907676D02*
X213135714Y-111002914D01*
X213135714Y-111002914D02*
X213040476Y-111050533D01*
X169026666Y-74304819D02*
X169026666Y-75019104D01*
X169026666Y-75019104D02*
X168979047Y-75161961D01*
X168979047Y-75161961D02*
X168883809Y-75257200D01*
X168883809Y-75257200D02*
X168740952Y-75304819D01*
X168740952Y-75304819D02*
X168645714Y-75304819D01*
X169979047Y-74304819D02*
X169502857Y-74304819D01*
X169502857Y-74304819D02*
X169455238Y-74781009D01*
X169455238Y-74781009D02*
X169502857Y-74733390D01*
X169502857Y-74733390D02*
X169598095Y-74685771D01*
X169598095Y-74685771D02*
X169836190Y-74685771D01*
X169836190Y-74685771D02*
X169931428Y-74733390D01*
X169931428Y-74733390D02*
X169979047Y-74781009D01*
X169979047Y-74781009D02*
X170026666Y-74876247D01*
X170026666Y-74876247D02*
X170026666Y-75114342D01*
X170026666Y-75114342D02*
X169979047Y-75209580D01*
X169979047Y-75209580D02*
X169931428Y-75257200D01*
X169931428Y-75257200D02*
X169836190Y-75304819D01*
X169836190Y-75304819D02*
X169598095Y-75304819D01*
X169598095Y-75304819D02*
X169502857Y-75257200D01*
X169502857Y-75257200D02*
X169455238Y-75209580D01*
X231717142Y-89099580D02*
X231669523Y-89147200D01*
X231669523Y-89147200D02*
X231526666Y-89194819D01*
X231526666Y-89194819D02*
X231431428Y-89194819D01*
X231431428Y-89194819D02*
X231288571Y-89147200D01*
X231288571Y-89147200D02*
X231193333Y-89051961D01*
X231193333Y-89051961D02*
X231145714Y-88956723D01*
X231145714Y-88956723D02*
X231098095Y-88766247D01*
X231098095Y-88766247D02*
X231098095Y-88623390D01*
X231098095Y-88623390D02*
X231145714Y-88432914D01*
X231145714Y-88432914D02*
X231193333Y-88337676D01*
X231193333Y-88337676D02*
X231288571Y-88242438D01*
X231288571Y-88242438D02*
X231431428Y-88194819D01*
X231431428Y-88194819D02*
X231526666Y-88194819D01*
X231526666Y-88194819D02*
X231669523Y-88242438D01*
X231669523Y-88242438D02*
X231717142Y-88290057D01*
X232098095Y-88290057D02*
X232145714Y-88242438D01*
X232145714Y-88242438D02*
X232240952Y-88194819D01*
X232240952Y-88194819D02*
X232479047Y-88194819D01*
X232479047Y-88194819D02*
X232574285Y-88242438D01*
X232574285Y-88242438D02*
X232621904Y-88290057D01*
X232621904Y-88290057D02*
X232669523Y-88385295D01*
X232669523Y-88385295D02*
X232669523Y-88480533D01*
X232669523Y-88480533D02*
X232621904Y-88623390D01*
X232621904Y-88623390D02*
X232050476Y-89194819D01*
X232050476Y-89194819D02*
X232669523Y-89194819D01*
X233240952Y-88623390D02*
X233145714Y-88575771D01*
X233145714Y-88575771D02*
X233098095Y-88528152D01*
X233098095Y-88528152D02*
X233050476Y-88432914D01*
X233050476Y-88432914D02*
X233050476Y-88385295D01*
X233050476Y-88385295D02*
X233098095Y-88290057D01*
X233098095Y-88290057D02*
X233145714Y-88242438D01*
X233145714Y-88242438D02*
X233240952Y-88194819D01*
X233240952Y-88194819D02*
X233431428Y-88194819D01*
X233431428Y-88194819D02*
X233526666Y-88242438D01*
X233526666Y-88242438D02*
X233574285Y-88290057D01*
X233574285Y-88290057D02*
X233621904Y-88385295D01*
X233621904Y-88385295D02*
X233621904Y-88432914D01*
X233621904Y-88432914D02*
X233574285Y-88528152D01*
X233574285Y-88528152D02*
X233526666Y-88575771D01*
X233526666Y-88575771D02*
X233431428Y-88623390D01*
X233431428Y-88623390D02*
X233240952Y-88623390D01*
X233240952Y-88623390D02*
X233145714Y-88671009D01*
X233145714Y-88671009D02*
X233098095Y-88718628D01*
X233098095Y-88718628D02*
X233050476Y-88813866D01*
X233050476Y-88813866D02*
X233050476Y-89004342D01*
X233050476Y-89004342D02*
X233098095Y-89099580D01*
X233098095Y-89099580D02*
X233145714Y-89147200D01*
X233145714Y-89147200D02*
X233240952Y-89194819D01*
X233240952Y-89194819D02*
X233431428Y-89194819D01*
X233431428Y-89194819D02*
X233526666Y-89147200D01*
X233526666Y-89147200D02*
X233574285Y-89099580D01*
X233574285Y-89099580D02*
X233621904Y-89004342D01*
X233621904Y-89004342D02*
X233621904Y-88813866D01*
X233621904Y-88813866D02*
X233574285Y-88718628D01*
X233574285Y-88718628D02*
X233526666Y-88671009D01*
X233526666Y-88671009D02*
X233431428Y-88623390D01*
X200823809Y-80478628D02*
X200823809Y-80954819D01*
X200490476Y-79954819D02*
X200823809Y-80478628D01*
X200823809Y-80478628D02*
X201157142Y-79954819D01*
X201442857Y-80050057D02*
X201490476Y-80002438D01*
X201490476Y-80002438D02*
X201585714Y-79954819D01*
X201585714Y-79954819D02*
X201823809Y-79954819D01*
X201823809Y-79954819D02*
X201919047Y-80002438D01*
X201919047Y-80002438D02*
X201966666Y-80050057D01*
X201966666Y-80050057D02*
X202014285Y-80145295D01*
X202014285Y-80145295D02*
X202014285Y-80240533D01*
X202014285Y-80240533D02*
X201966666Y-80383390D01*
X201966666Y-80383390D02*
X201395238Y-80954819D01*
X201395238Y-80954819D02*
X202014285Y-80954819D01*
X225837142Y-103074819D02*
X225503809Y-102598628D01*
X225265714Y-103074819D02*
X225265714Y-102074819D01*
X225265714Y-102074819D02*
X225646666Y-102074819D01*
X225646666Y-102074819D02*
X225741904Y-102122438D01*
X225741904Y-102122438D02*
X225789523Y-102170057D01*
X225789523Y-102170057D02*
X225837142Y-102265295D01*
X225837142Y-102265295D02*
X225837142Y-102408152D01*
X225837142Y-102408152D02*
X225789523Y-102503390D01*
X225789523Y-102503390D02*
X225741904Y-102551009D01*
X225741904Y-102551009D02*
X225646666Y-102598628D01*
X225646666Y-102598628D02*
X225265714Y-102598628D01*
X226789523Y-103074819D02*
X226218095Y-103074819D01*
X226503809Y-103074819D02*
X226503809Y-102074819D01*
X226503809Y-102074819D02*
X226408571Y-102217676D01*
X226408571Y-102217676D02*
X226313333Y-102312914D01*
X226313333Y-102312914D02*
X226218095Y-102360533D01*
X227170476Y-102170057D02*
X227218095Y-102122438D01*
X227218095Y-102122438D02*
X227313333Y-102074819D01*
X227313333Y-102074819D02*
X227551428Y-102074819D01*
X227551428Y-102074819D02*
X227646666Y-102122438D01*
X227646666Y-102122438D02*
X227694285Y-102170057D01*
X227694285Y-102170057D02*
X227741904Y-102265295D01*
X227741904Y-102265295D02*
X227741904Y-102360533D01*
X227741904Y-102360533D02*
X227694285Y-102503390D01*
X227694285Y-102503390D02*
X227122857Y-103074819D01*
X227122857Y-103074819D02*
X227741904Y-103074819D01*
X211969580Y-119096666D02*
X212017200Y-119144285D01*
X212017200Y-119144285D02*
X212064819Y-119287142D01*
X212064819Y-119287142D02*
X212064819Y-119382380D01*
X212064819Y-119382380D02*
X212017200Y-119525237D01*
X212017200Y-119525237D02*
X211921961Y-119620475D01*
X211921961Y-119620475D02*
X211826723Y-119668094D01*
X211826723Y-119668094D02*
X211636247Y-119715713D01*
X211636247Y-119715713D02*
X211493390Y-119715713D01*
X211493390Y-119715713D02*
X211302914Y-119668094D01*
X211302914Y-119668094D02*
X211207676Y-119620475D01*
X211207676Y-119620475D02*
X211112438Y-119525237D01*
X211112438Y-119525237D02*
X211064819Y-119382380D01*
X211064819Y-119382380D02*
X211064819Y-119287142D01*
X211064819Y-119287142D02*
X211112438Y-119144285D01*
X211112438Y-119144285D02*
X211160057Y-119096666D01*
X212064819Y-118144285D02*
X212064819Y-118715713D01*
X212064819Y-118429999D02*
X211064819Y-118429999D01*
X211064819Y-118429999D02*
X211207676Y-118525237D01*
X211207676Y-118525237D02*
X211302914Y-118620475D01*
X211302914Y-118620475D02*
X211350533Y-118715713D01*
X214731905Y-110274819D02*
X214731905Y-109274819D01*
X214731905Y-109274819D02*
X214970000Y-109274819D01*
X214970000Y-109274819D02*
X215112857Y-109322438D01*
X215112857Y-109322438D02*
X215208095Y-109417676D01*
X215208095Y-109417676D02*
X215255714Y-109512914D01*
X215255714Y-109512914D02*
X215303333Y-109703390D01*
X215303333Y-109703390D02*
X215303333Y-109846247D01*
X215303333Y-109846247D02*
X215255714Y-110036723D01*
X215255714Y-110036723D02*
X215208095Y-110131961D01*
X215208095Y-110131961D02*
X215112857Y-110227200D01*
X215112857Y-110227200D02*
X214970000Y-110274819D01*
X214970000Y-110274819D02*
X214731905Y-110274819D01*
X216160476Y-109608152D02*
X216160476Y-110274819D01*
X215922381Y-109227200D02*
X215684286Y-109941485D01*
X215684286Y-109941485D02*
X216303333Y-109941485D01*
X189114819Y-56122857D02*
X188638628Y-56456190D01*
X189114819Y-56694285D02*
X188114819Y-56694285D01*
X188114819Y-56694285D02*
X188114819Y-56313333D01*
X188114819Y-56313333D02*
X188162438Y-56218095D01*
X188162438Y-56218095D02*
X188210057Y-56170476D01*
X188210057Y-56170476D02*
X188305295Y-56122857D01*
X188305295Y-56122857D02*
X188448152Y-56122857D01*
X188448152Y-56122857D02*
X188543390Y-56170476D01*
X188543390Y-56170476D02*
X188591009Y-56218095D01*
X188591009Y-56218095D02*
X188638628Y-56313333D01*
X188638628Y-56313333D02*
X188638628Y-56694285D01*
X189114819Y-55170476D02*
X189114819Y-55741904D01*
X189114819Y-55456190D02*
X188114819Y-55456190D01*
X188114819Y-55456190D02*
X188257676Y-55551428D01*
X188257676Y-55551428D02*
X188352914Y-55646666D01*
X188352914Y-55646666D02*
X188400533Y-55741904D01*
X188114819Y-54265714D02*
X188114819Y-54741904D01*
X188114819Y-54741904D02*
X188591009Y-54789523D01*
X188591009Y-54789523D02*
X188543390Y-54741904D01*
X188543390Y-54741904D02*
X188495771Y-54646666D01*
X188495771Y-54646666D02*
X188495771Y-54408571D01*
X188495771Y-54408571D02*
X188543390Y-54313333D01*
X188543390Y-54313333D02*
X188591009Y-54265714D01*
X188591009Y-54265714D02*
X188686247Y-54218095D01*
X188686247Y-54218095D02*
X188924342Y-54218095D01*
X188924342Y-54218095D02*
X189019580Y-54265714D01*
X189019580Y-54265714D02*
X189067200Y-54313333D01*
X189067200Y-54313333D02*
X189114819Y-54408571D01*
X189114819Y-54408571D02*
X189114819Y-54646666D01*
X189114819Y-54646666D02*
X189067200Y-54741904D01*
X189067200Y-54741904D02*
X189019580Y-54789523D01*
X205421905Y-87904819D02*
X205421905Y-86904819D01*
X205421905Y-86904819D02*
X205660000Y-86904819D01*
X205660000Y-86904819D02*
X205802857Y-86952438D01*
X205802857Y-86952438D02*
X205898095Y-87047676D01*
X205898095Y-87047676D02*
X205945714Y-87142914D01*
X205945714Y-87142914D02*
X205993333Y-87333390D01*
X205993333Y-87333390D02*
X205993333Y-87476247D01*
X205993333Y-87476247D02*
X205945714Y-87666723D01*
X205945714Y-87666723D02*
X205898095Y-87761961D01*
X205898095Y-87761961D02*
X205802857Y-87857200D01*
X205802857Y-87857200D02*
X205660000Y-87904819D01*
X205660000Y-87904819D02*
X205421905Y-87904819D01*
X206374286Y-87000057D02*
X206421905Y-86952438D01*
X206421905Y-86952438D02*
X206517143Y-86904819D01*
X206517143Y-86904819D02*
X206755238Y-86904819D01*
X206755238Y-86904819D02*
X206850476Y-86952438D01*
X206850476Y-86952438D02*
X206898095Y-87000057D01*
X206898095Y-87000057D02*
X206945714Y-87095295D01*
X206945714Y-87095295D02*
X206945714Y-87190533D01*
X206945714Y-87190533D02*
X206898095Y-87333390D01*
X206898095Y-87333390D02*
X206326667Y-87904819D01*
X206326667Y-87904819D02*
X206945714Y-87904819D01*
X237294819Y-109003333D02*
X238009104Y-109003333D01*
X238009104Y-109003333D02*
X238151961Y-109050952D01*
X238151961Y-109050952D02*
X238247200Y-109146190D01*
X238247200Y-109146190D02*
X238294819Y-109289047D01*
X238294819Y-109289047D02*
X238294819Y-109384285D01*
X237390057Y-108574761D02*
X237342438Y-108527142D01*
X237342438Y-108527142D02*
X237294819Y-108431904D01*
X237294819Y-108431904D02*
X237294819Y-108193809D01*
X237294819Y-108193809D02*
X237342438Y-108098571D01*
X237342438Y-108098571D02*
X237390057Y-108050952D01*
X237390057Y-108050952D02*
X237485295Y-108003333D01*
X237485295Y-108003333D02*
X237580533Y-108003333D01*
X237580533Y-108003333D02*
X237723390Y-108050952D01*
X237723390Y-108050952D02*
X238294819Y-108622380D01*
X238294819Y-108622380D02*
X238294819Y-108003333D01*
D11*
X213638795Y-77693333D02*
X213699271Y-77511904D01*
X213699271Y-77511904D02*
X213699271Y-77209523D01*
X213699271Y-77209523D02*
X213638795Y-77088571D01*
X213638795Y-77088571D02*
X213578318Y-77028095D01*
X213578318Y-77028095D02*
X213457366Y-76967618D01*
X213457366Y-76967618D02*
X213336414Y-76967618D01*
X213336414Y-76967618D02*
X213215461Y-77028095D01*
X213215461Y-77028095D02*
X213154985Y-77088571D01*
X213154985Y-77088571D02*
X213094509Y-77209523D01*
X213094509Y-77209523D02*
X213034033Y-77451428D01*
X213034033Y-77451428D02*
X212973556Y-77572380D01*
X212973556Y-77572380D02*
X212913080Y-77632857D01*
X212913080Y-77632857D02*
X212792128Y-77693333D01*
X212792128Y-77693333D02*
X212671175Y-77693333D01*
X212671175Y-77693333D02*
X212550223Y-77632857D01*
X212550223Y-77632857D02*
X212489747Y-77572380D01*
X212489747Y-77572380D02*
X212429271Y-77451428D01*
X212429271Y-77451428D02*
X212429271Y-77149047D01*
X212429271Y-77149047D02*
X212489747Y-76967618D01*
X212429271Y-76544285D02*
X213699271Y-76241904D01*
X213699271Y-76241904D02*
X212792128Y-75999999D01*
X212792128Y-75999999D02*
X213699271Y-75758094D01*
X213699271Y-75758094D02*
X212429271Y-75455714D01*
X212429271Y-75092856D02*
X212429271Y-74306665D01*
X212429271Y-74306665D02*
X212913080Y-74729999D01*
X212913080Y-74729999D02*
X212913080Y-74548570D01*
X212913080Y-74548570D02*
X212973556Y-74427618D01*
X212973556Y-74427618D02*
X213034033Y-74367142D01*
X213034033Y-74367142D02*
X213154985Y-74306665D01*
X213154985Y-74306665D02*
X213457366Y-74306665D01*
X213457366Y-74306665D02*
X213578318Y-74367142D01*
X213578318Y-74367142D02*
X213638795Y-74427618D01*
X213638795Y-74427618D02*
X213699271Y-74548570D01*
X213699271Y-74548570D02*
X213699271Y-74911427D01*
X213699271Y-74911427D02*
X213638795Y-75032380D01*
X213638795Y-75032380D02*
X213578318Y-75092856D01*
X212616666Y-83298795D02*
X212798095Y-83359271D01*
X212798095Y-83359271D02*
X213100476Y-83359271D01*
X213100476Y-83359271D02*
X213221428Y-83298795D01*
X213221428Y-83298795D02*
X213281904Y-83238318D01*
X213281904Y-83238318D02*
X213342381Y-83117366D01*
X213342381Y-83117366D02*
X213342381Y-82996414D01*
X213342381Y-82996414D02*
X213281904Y-82875461D01*
X213281904Y-82875461D02*
X213221428Y-82814985D01*
X213221428Y-82814985D02*
X213100476Y-82754509D01*
X213100476Y-82754509D02*
X212858571Y-82694033D01*
X212858571Y-82694033D02*
X212737619Y-82633556D01*
X212737619Y-82633556D02*
X212677142Y-82573080D01*
X212677142Y-82573080D02*
X212616666Y-82452128D01*
X212616666Y-82452128D02*
X212616666Y-82331175D01*
X212616666Y-82331175D02*
X212677142Y-82210223D01*
X212677142Y-82210223D02*
X212737619Y-82149747D01*
X212737619Y-82149747D02*
X212858571Y-82089271D01*
X212858571Y-82089271D02*
X213160952Y-82089271D01*
X213160952Y-82089271D02*
X213342381Y-82149747D01*
X213765714Y-82089271D02*
X214068095Y-83359271D01*
X214068095Y-83359271D02*
X214310000Y-82452128D01*
X214310000Y-82452128D02*
X214551905Y-83359271D01*
X214551905Y-83359271D02*
X214854286Y-82089271D01*
X216003334Y-83359271D02*
X215277619Y-83359271D01*
X215640476Y-83359271D02*
X215640476Y-82089271D01*
X215640476Y-82089271D02*
X215519524Y-82270699D01*
X215519524Y-82270699D02*
X215398572Y-82391652D01*
X215398572Y-82391652D02*
X215277619Y-82452128D01*
D10*
X184979580Y-55852857D02*
X185027200Y-55900476D01*
X185027200Y-55900476D02*
X185074819Y-56043333D01*
X185074819Y-56043333D02*
X185074819Y-56138571D01*
X185074819Y-56138571D02*
X185027200Y-56281428D01*
X185027200Y-56281428D02*
X184931961Y-56376666D01*
X184931961Y-56376666D02*
X184836723Y-56424285D01*
X184836723Y-56424285D02*
X184646247Y-56471904D01*
X184646247Y-56471904D02*
X184503390Y-56471904D01*
X184503390Y-56471904D02*
X184312914Y-56424285D01*
X184312914Y-56424285D02*
X184217676Y-56376666D01*
X184217676Y-56376666D02*
X184122438Y-56281428D01*
X184122438Y-56281428D02*
X184074819Y-56138571D01*
X184074819Y-56138571D02*
X184074819Y-56043333D01*
X184074819Y-56043333D02*
X184122438Y-55900476D01*
X184122438Y-55900476D02*
X184170057Y-55852857D01*
X184170057Y-55471904D02*
X184122438Y-55424285D01*
X184122438Y-55424285D02*
X184074819Y-55329047D01*
X184074819Y-55329047D02*
X184074819Y-55090952D01*
X184074819Y-55090952D02*
X184122438Y-54995714D01*
X184122438Y-54995714D02*
X184170057Y-54948095D01*
X184170057Y-54948095D02*
X184265295Y-54900476D01*
X184265295Y-54900476D02*
X184360533Y-54900476D01*
X184360533Y-54900476D02*
X184503390Y-54948095D01*
X184503390Y-54948095D02*
X185074819Y-55519523D01*
X185074819Y-55519523D02*
X185074819Y-54900476D01*
X184074819Y-54281428D02*
X184074819Y-54186190D01*
X184074819Y-54186190D02*
X184122438Y-54090952D01*
X184122438Y-54090952D02*
X184170057Y-54043333D01*
X184170057Y-54043333D02*
X184265295Y-53995714D01*
X184265295Y-53995714D02*
X184455771Y-53948095D01*
X184455771Y-53948095D02*
X184693866Y-53948095D01*
X184693866Y-53948095D02*
X184884342Y-53995714D01*
X184884342Y-53995714D02*
X184979580Y-54043333D01*
X184979580Y-54043333D02*
X185027200Y-54090952D01*
X185027200Y-54090952D02*
X185074819Y-54186190D01*
X185074819Y-54186190D02*
X185074819Y-54281428D01*
X185074819Y-54281428D02*
X185027200Y-54376666D01*
X185027200Y-54376666D02*
X184979580Y-54424285D01*
X184979580Y-54424285D02*
X184884342Y-54471904D01*
X184884342Y-54471904D02*
X184693866Y-54519523D01*
X184693866Y-54519523D02*
X184455771Y-54519523D01*
X184455771Y-54519523D02*
X184265295Y-54471904D01*
X184265295Y-54471904D02*
X184170057Y-54424285D01*
X184170057Y-54424285D02*
X184122438Y-54376666D01*
X184122438Y-54376666D02*
X184074819Y-54281428D01*
X203958628Y-88786190D02*
X204434819Y-88786190D01*
X203434819Y-89119523D02*
X203958628Y-88786190D01*
X203958628Y-88786190D02*
X203434819Y-88452857D01*
X204434819Y-87595714D02*
X204434819Y-88167142D01*
X204434819Y-87881428D02*
X203434819Y-87881428D01*
X203434819Y-87881428D02*
X203577676Y-87976666D01*
X203577676Y-87976666D02*
X203672914Y-88071904D01*
X203672914Y-88071904D02*
X203720533Y-88167142D01*
X220649580Y-81312857D02*
X220697200Y-81360476D01*
X220697200Y-81360476D02*
X220744819Y-81503333D01*
X220744819Y-81503333D02*
X220744819Y-81598571D01*
X220744819Y-81598571D02*
X220697200Y-81741428D01*
X220697200Y-81741428D02*
X220601961Y-81836666D01*
X220601961Y-81836666D02*
X220506723Y-81884285D01*
X220506723Y-81884285D02*
X220316247Y-81931904D01*
X220316247Y-81931904D02*
X220173390Y-81931904D01*
X220173390Y-81931904D02*
X219982914Y-81884285D01*
X219982914Y-81884285D02*
X219887676Y-81836666D01*
X219887676Y-81836666D02*
X219792438Y-81741428D01*
X219792438Y-81741428D02*
X219744819Y-81598571D01*
X219744819Y-81598571D02*
X219744819Y-81503333D01*
X219744819Y-81503333D02*
X219792438Y-81360476D01*
X219792438Y-81360476D02*
X219840057Y-81312857D01*
X219840057Y-80931904D02*
X219792438Y-80884285D01*
X219792438Y-80884285D02*
X219744819Y-80789047D01*
X219744819Y-80789047D02*
X219744819Y-80550952D01*
X219744819Y-80550952D02*
X219792438Y-80455714D01*
X219792438Y-80455714D02*
X219840057Y-80408095D01*
X219840057Y-80408095D02*
X219935295Y-80360476D01*
X219935295Y-80360476D02*
X220030533Y-80360476D01*
X220030533Y-80360476D02*
X220173390Y-80408095D01*
X220173390Y-80408095D02*
X220744819Y-80979523D01*
X220744819Y-80979523D02*
X220744819Y-80360476D01*
X219744819Y-80027142D02*
X219744819Y-79408095D01*
X219744819Y-79408095D02*
X220125771Y-79741428D01*
X220125771Y-79741428D02*
X220125771Y-79598571D01*
X220125771Y-79598571D02*
X220173390Y-79503333D01*
X220173390Y-79503333D02*
X220221009Y-79455714D01*
X220221009Y-79455714D02*
X220316247Y-79408095D01*
X220316247Y-79408095D02*
X220554342Y-79408095D01*
X220554342Y-79408095D02*
X220649580Y-79455714D01*
X220649580Y-79455714D02*
X220697200Y-79503333D01*
X220697200Y-79503333D02*
X220744819Y-79598571D01*
X220744819Y-79598571D02*
X220744819Y-79884285D01*
X220744819Y-79884285D02*
X220697200Y-79979523D01*
X220697200Y-79979523D02*
X220649580Y-80027142D01*
X223677142Y-72529580D02*
X223629523Y-72577200D01*
X223629523Y-72577200D02*
X223486666Y-72624819D01*
X223486666Y-72624819D02*
X223391428Y-72624819D01*
X223391428Y-72624819D02*
X223248571Y-72577200D01*
X223248571Y-72577200D02*
X223153333Y-72481961D01*
X223153333Y-72481961D02*
X223105714Y-72386723D01*
X223105714Y-72386723D02*
X223058095Y-72196247D01*
X223058095Y-72196247D02*
X223058095Y-72053390D01*
X223058095Y-72053390D02*
X223105714Y-71862914D01*
X223105714Y-71862914D02*
X223153333Y-71767676D01*
X223153333Y-71767676D02*
X223248571Y-71672438D01*
X223248571Y-71672438D02*
X223391428Y-71624819D01*
X223391428Y-71624819D02*
X223486666Y-71624819D01*
X223486666Y-71624819D02*
X223629523Y-71672438D01*
X223629523Y-71672438D02*
X223677142Y-71720057D01*
X224058095Y-71720057D02*
X224105714Y-71672438D01*
X224105714Y-71672438D02*
X224200952Y-71624819D01*
X224200952Y-71624819D02*
X224439047Y-71624819D01*
X224439047Y-71624819D02*
X224534285Y-71672438D01*
X224534285Y-71672438D02*
X224581904Y-71720057D01*
X224581904Y-71720057D02*
X224629523Y-71815295D01*
X224629523Y-71815295D02*
X224629523Y-71910533D01*
X224629523Y-71910533D02*
X224581904Y-72053390D01*
X224581904Y-72053390D02*
X224010476Y-72624819D01*
X224010476Y-72624819D02*
X224629523Y-72624819D01*
X225486666Y-71958152D02*
X225486666Y-72624819D01*
X225248571Y-71577200D02*
X225010476Y-72291485D01*
X225010476Y-72291485D02*
X225629523Y-72291485D01*
X245416666Y-73924819D02*
X245416666Y-74639104D01*
X245416666Y-74639104D02*
X245369047Y-74781961D01*
X245369047Y-74781961D02*
X245273809Y-74877200D01*
X245273809Y-74877200D02*
X245130952Y-74924819D01*
X245130952Y-74924819D02*
X245035714Y-74924819D01*
X246321428Y-74258152D02*
X246321428Y-74924819D01*
X246083333Y-73877200D02*
X245845238Y-74591485D01*
X245845238Y-74591485D02*
X246464285Y-74591485D01*
X197707142Y-113924819D02*
X197373809Y-113448628D01*
X197135714Y-113924819D02*
X197135714Y-112924819D01*
X197135714Y-112924819D02*
X197516666Y-112924819D01*
X197516666Y-112924819D02*
X197611904Y-112972438D01*
X197611904Y-112972438D02*
X197659523Y-113020057D01*
X197659523Y-113020057D02*
X197707142Y-113115295D01*
X197707142Y-113115295D02*
X197707142Y-113258152D01*
X197707142Y-113258152D02*
X197659523Y-113353390D01*
X197659523Y-113353390D02*
X197611904Y-113401009D01*
X197611904Y-113401009D02*
X197516666Y-113448628D01*
X197516666Y-113448628D02*
X197135714Y-113448628D01*
X198659523Y-113924819D02*
X198088095Y-113924819D01*
X198373809Y-113924819D02*
X198373809Y-112924819D01*
X198373809Y-112924819D02*
X198278571Y-113067676D01*
X198278571Y-113067676D02*
X198183333Y-113162914D01*
X198183333Y-113162914D02*
X198088095Y-113210533D01*
X198992857Y-112924819D02*
X199611904Y-112924819D01*
X199611904Y-112924819D02*
X199278571Y-113305771D01*
X199278571Y-113305771D02*
X199421428Y-113305771D01*
X199421428Y-113305771D02*
X199516666Y-113353390D01*
X199516666Y-113353390D02*
X199564285Y-113401009D01*
X199564285Y-113401009D02*
X199611904Y-113496247D01*
X199611904Y-113496247D02*
X199611904Y-113734342D01*
X199611904Y-113734342D02*
X199564285Y-113829580D01*
X199564285Y-113829580D02*
X199516666Y-113877200D01*
X199516666Y-113877200D02*
X199421428Y-113924819D01*
X199421428Y-113924819D02*
X199135714Y-113924819D01*
X199135714Y-113924819D02*
X199040476Y-113877200D01*
X199040476Y-113877200D02*
X198992857Y-113829580D01*
D11*
X225646666Y-97848795D02*
X225828095Y-97909271D01*
X225828095Y-97909271D02*
X226130476Y-97909271D01*
X226130476Y-97909271D02*
X226251428Y-97848795D01*
X226251428Y-97848795D02*
X226311904Y-97788318D01*
X226311904Y-97788318D02*
X226372381Y-97667366D01*
X226372381Y-97667366D02*
X226372381Y-97546414D01*
X226372381Y-97546414D02*
X226311904Y-97425461D01*
X226311904Y-97425461D02*
X226251428Y-97364985D01*
X226251428Y-97364985D02*
X226130476Y-97304509D01*
X226130476Y-97304509D02*
X225888571Y-97244033D01*
X225888571Y-97244033D02*
X225767619Y-97183556D01*
X225767619Y-97183556D02*
X225707142Y-97123080D01*
X225707142Y-97123080D02*
X225646666Y-97002128D01*
X225646666Y-97002128D02*
X225646666Y-96881175D01*
X225646666Y-96881175D02*
X225707142Y-96760223D01*
X225707142Y-96760223D02*
X225767619Y-96699747D01*
X225767619Y-96699747D02*
X225888571Y-96639271D01*
X225888571Y-96639271D02*
X226190952Y-96639271D01*
X226190952Y-96639271D02*
X226372381Y-96699747D01*
X226795714Y-96639271D02*
X227098095Y-97909271D01*
X227098095Y-97909271D02*
X227340000Y-97002128D01*
X227340000Y-97002128D02*
X227581905Y-97909271D01*
X227581905Y-97909271D02*
X227884286Y-96639271D01*
X228307619Y-96760223D02*
X228368095Y-96699747D01*
X228368095Y-96699747D02*
X228489048Y-96639271D01*
X228489048Y-96639271D02*
X228791429Y-96639271D01*
X228791429Y-96639271D02*
X228912381Y-96699747D01*
X228912381Y-96699747D02*
X228972857Y-96760223D01*
X228972857Y-96760223D02*
X229033334Y-96881175D01*
X229033334Y-96881175D02*
X229033334Y-97002128D01*
X229033334Y-97002128D02*
X228972857Y-97183556D01*
X228972857Y-97183556D02*
X228247143Y-97909271D01*
X228247143Y-97909271D02*
X229033334Y-97909271D01*
D10*
X204522142Y-83039580D02*
X204474523Y-83087200D01*
X204474523Y-83087200D02*
X204331666Y-83134819D01*
X204331666Y-83134819D02*
X204236428Y-83134819D01*
X204236428Y-83134819D02*
X204093571Y-83087200D01*
X204093571Y-83087200D02*
X203998333Y-82991961D01*
X203998333Y-82991961D02*
X203950714Y-82896723D01*
X203950714Y-82896723D02*
X203903095Y-82706247D01*
X203903095Y-82706247D02*
X203903095Y-82563390D01*
X203903095Y-82563390D02*
X203950714Y-82372914D01*
X203950714Y-82372914D02*
X203998333Y-82277676D01*
X203998333Y-82277676D02*
X204093571Y-82182438D01*
X204093571Y-82182438D02*
X204236428Y-82134819D01*
X204236428Y-82134819D02*
X204331666Y-82134819D01*
X204331666Y-82134819D02*
X204474523Y-82182438D01*
X204474523Y-82182438D02*
X204522142Y-82230057D01*
X205474523Y-83134819D02*
X204903095Y-83134819D01*
X205188809Y-83134819D02*
X205188809Y-82134819D01*
X205188809Y-82134819D02*
X205093571Y-82277676D01*
X205093571Y-82277676D02*
X204998333Y-82372914D01*
X204998333Y-82372914D02*
X204903095Y-82420533D01*
X205807857Y-82134819D02*
X206474523Y-82134819D01*
X206474523Y-82134819D02*
X206045952Y-83134819D01*
X231489580Y-99867857D02*
X231537200Y-99915476D01*
X231537200Y-99915476D02*
X231584819Y-100058333D01*
X231584819Y-100058333D02*
X231584819Y-100153571D01*
X231584819Y-100153571D02*
X231537200Y-100296428D01*
X231537200Y-100296428D02*
X231441961Y-100391666D01*
X231441961Y-100391666D02*
X231346723Y-100439285D01*
X231346723Y-100439285D02*
X231156247Y-100486904D01*
X231156247Y-100486904D02*
X231013390Y-100486904D01*
X231013390Y-100486904D02*
X230822914Y-100439285D01*
X230822914Y-100439285D02*
X230727676Y-100391666D01*
X230727676Y-100391666D02*
X230632438Y-100296428D01*
X230632438Y-100296428D02*
X230584819Y-100153571D01*
X230584819Y-100153571D02*
X230584819Y-100058333D01*
X230584819Y-100058333D02*
X230632438Y-99915476D01*
X230632438Y-99915476D02*
X230680057Y-99867857D01*
X231584819Y-98915476D02*
X231584819Y-99486904D01*
X231584819Y-99201190D02*
X230584819Y-99201190D01*
X230584819Y-99201190D02*
X230727676Y-99296428D01*
X230727676Y-99296428D02*
X230822914Y-99391666D01*
X230822914Y-99391666D02*
X230870533Y-99486904D01*
X231584819Y-97963095D02*
X231584819Y-98534523D01*
X231584819Y-98248809D02*
X230584819Y-98248809D01*
X230584819Y-98248809D02*
X230727676Y-98344047D01*
X230727676Y-98344047D02*
X230822914Y-98439285D01*
X230822914Y-98439285D02*
X230870533Y-98534523D01*
X199714819Y-76902857D02*
X199238628Y-77236190D01*
X199714819Y-77474285D02*
X198714819Y-77474285D01*
X198714819Y-77474285D02*
X198714819Y-77093333D01*
X198714819Y-77093333D02*
X198762438Y-76998095D01*
X198762438Y-76998095D02*
X198810057Y-76950476D01*
X198810057Y-76950476D02*
X198905295Y-76902857D01*
X198905295Y-76902857D02*
X199048152Y-76902857D01*
X199048152Y-76902857D02*
X199143390Y-76950476D01*
X199143390Y-76950476D02*
X199191009Y-76998095D01*
X199191009Y-76998095D02*
X199238628Y-77093333D01*
X199238628Y-77093333D02*
X199238628Y-77474285D01*
X198810057Y-76521904D02*
X198762438Y-76474285D01*
X198762438Y-76474285D02*
X198714819Y-76379047D01*
X198714819Y-76379047D02*
X198714819Y-76140952D01*
X198714819Y-76140952D02*
X198762438Y-76045714D01*
X198762438Y-76045714D02*
X198810057Y-75998095D01*
X198810057Y-75998095D02*
X198905295Y-75950476D01*
X198905295Y-75950476D02*
X199000533Y-75950476D01*
X199000533Y-75950476D02*
X199143390Y-75998095D01*
X199143390Y-75998095D02*
X199714819Y-76569523D01*
X199714819Y-76569523D02*
X199714819Y-75950476D01*
X198714819Y-75617142D02*
X198714819Y-74998095D01*
X198714819Y-74998095D02*
X199095771Y-75331428D01*
X199095771Y-75331428D02*
X199095771Y-75188571D01*
X199095771Y-75188571D02*
X199143390Y-75093333D01*
X199143390Y-75093333D02*
X199191009Y-75045714D01*
X199191009Y-75045714D02*
X199286247Y-74998095D01*
X199286247Y-74998095D02*
X199524342Y-74998095D01*
X199524342Y-74998095D02*
X199619580Y-75045714D01*
X199619580Y-75045714D02*
X199667200Y-75093333D01*
X199667200Y-75093333D02*
X199714819Y-75188571D01*
X199714819Y-75188571D02*
X199714819Y-75474285D01*
X199714819Y-75474285D02*
X199667200Y-75569523D01*
X199667200Y-75569523D02*
X199619580Y-75617142D01*
X180327142Y-65919580D02*
X180279523Y-65967200D01*
X180279523Y-65967200D02*
X180136666Y-66014819D01*
X180136666Y-66014819D02*
X180041428Y-66014819D01*
X180041428Y-66014819D02*
X179898571Y-65967200D01*
X179898571Y-65967200D02*
X179803333Y-65871961D01*
X179803333Y-65871961D02*
X179755714Y-65776723D01*
X179755714Y-65776723D02*
X179708095Y-65586247D01*
X179708095Y-65586247D02*
X179708095Y-65443390D01*
X179708095Y-65443390D02*
X179755714Y-65252914D01*
X179755714Y-65252914D02*
X179803333Y-65157676D01*
X179803333Y-65157676D02*
X179898571Y-65062438D01*
X179898571Y-65062438D02*
X180041428Y-65014819D01*
X180041428Y-65014819D02*
X180136666Y-65014819D01*
X180136666Y-65014819D02*
X180279523Y-65062438D01*
X180279523Y-65062438D02*
X180327142Y-65110057D01*
X180708095Y-65110057D02*
X180755714Y-65062438D01*
X180755714Y-65062438D02*
X180850952Y-65014819D01*
X180850952Y-65014819D02*
X181089047Y-65014819D01*
X181089047Y-65014819D02*
X181184285Y-65062438D01*
X181184285Y-65062438D02*
X181231904Y-65110057D01*
X181231904Y-65110057D02*
X181279523Y-65205295D01*
X181279523Y-65205295D02*
X181279523Y-65300533D01*
X181279523Y-65300533D02*
X181231904Y-65443390D01*
X181231904Y-65443390D02*
X180660476Y-66014819D01*
X180660476Y-66014819D02*
X181279523Y-66014819D01*
X182231904Y-66014819D02*
X181660476Y-66014819D01*
X181946190Y-66014819D02*
X181946190Y-65014819D01*
X181946190Y-65014819D02*
X181850952Y-65157676D01*
X181850952Y-65157676D02*
X181755714Y-65252914D01*
X181755714Y-65252914D02*
X181660476Y-65300533D01*
X205907142Y-79889580D02*
X205859523Y-79937200D01*
X205859523Y-79937200D02*
X205716666Y-79984819D01*
X205716666Y-79984819D02*
X205621428Y-79984819D01*
X205621428Y-79984819D02*
X205478571Y-79937200D01*
X205478571Y-79937200D02*
X205383333Y-79841961D01*
X205383333Y-79841961D02*
X205335714Y-79746723D01*
X205335714Y-79746723D02*
X205288095Y-79556247D01*
X205288095Y-79556247D02*
X205288095Y-79413390D01*
X205288095Y-79413390D02*
X205335714Y-79222914D01*
X205335714Y-79222914D02*
X205383333Y-79127676D01*
X205383333Y-79127676D02*
X205478571Y-79032438D01*
X205478571Y-79032438D02*
X205621428Y-78984819D01*
X205621428Y-78984819D02*
X205716666Y-78984819D01*
X205716666Y-78984819D02*
X205859523Y-79032438D01*
X205859523Y-79032438D02*
X205907142Y-79080057D01*
X206240476Y-78984819D02*
X206859523Y-78984819D01*
X206859523Y-78984819D02*
X206526190Y-79365771D01*
X206526190Y-79365771D02*
X206669047Y-79365771D01*
X206669047Y-79365771D02*
X206764285Y-79413390D01*
X206764285Y-79413390D02*
X206811904Y-79461009D01*
X206811904Y-79461009D02*
X206859523Y-79556247D01*
X206859523Y-79556247D02*
X206859523Y-79794342D01*
X206859523Y-79794342D02*
X206811904Y-79889580D01*
X206811904Y-79889580D02*
X206764285Y-79937200D01*
X206764285Y-79937200D02*
X206669047Y-79984819D01*
X206669047Y-79984819D02*
X206383333Y-79984819D01*
X206383333Y-79984819D02*
X206288095Y-79937200D01*
X206288095Y-79937200D02*
X206240476Y-79889580D01*
X207811904Y-79984819D02*
X207240476Y-79984819D01*
X207526190Y-79984819D02*
X207526190Y-78984819D01*
X207526190Y-78984819D02*
X207430952Y-79127676D01*
X207430952Y-79127676D02*
X207335714Y-79222914D01*
X207335714Y-79222914D02*
X207240476Y-79270533D01*
X171825180Y-68336666D02*
X171110895Y-68336666D01*
X171110895Y-68336666D02*
X170968038Y-68289047D01*
X170968038Y-68289047D02*
X170872800Y-68193809D01*
X170872800Y-68193809D02*
X170825180Y-68050952D01*
X170825180Y-68050952D02*
X170825180Y-67955714D01*
X171825180Y-69241428D02*
X171825180Y-69050952D01*
X171825180Y-69050952D02*
X171777561Y-68955714D01*
X171777561Y-68955714D02*
X171729942Y-68908095D01*
X171729942Y-68908095D02*
X171587085Y-68812857D01*
X171587085Y-68812857D02*
X171396609Y-68765238D01*
X171396609Y-68765238D02*
X171015657Y-68765238D01*
X171015657Y-68765238D02*
X170920419Y-68812857D01*
X170920419Y-68812857D02*
X170872800Y-68860476D01*
X170872800Y-68860476D02*
X170825180Y-68955714D01*
X170825180Y-68955714D02*
X170825180Y-69146190D01*
X170825180Y-69146190D02*
X170872800Y-69241428D01*
X170872800Y-69241428D02*
X170920419Y-69289047D01*
X170920419Y-69289047D02*
X171015657Y-69336666D01*
X171015657Y-69336666D02*
X171253752Y-69336666D01*
X171253752Y-69336666D02*
X171348990Y-69289047D01*
X171348990Y-69289047D02*
X171396609Y-69241428D01*
X171396609Y-69241428D02*
X171444228Y-69146190D01*
X171444228Y-69146190D02*
X171444228Y-68955714D01*
X171444228Y-68955714D02*
X171396609Y-68860476D01*
X171396609Y-68860476D02*
X171348990Y-68812857D01*
X171348990Y-68812857D02*
X171253752Y-68765238D01*
X177312142Y-58399580D02*
X177264523Y-58447200D01*
X177264523Y-58447200D02*
X177121666Y-58494819D01*
X177121666Y-58494819D02*
X177026428Y-58494819D01*
X177026428Y-58494819D02*
X176883571Y-58447200D01*
X176883571Y-58447200D02*
X176788333Y-58351961D01*
X176788333Y-58351961D02*
X176740714Y-58256723D01*
X176740714Y-58256723D02*
X176693095Y-58066247D01*
X176693095Y-58066247D02*
X176693095Y-57923390D01*
X176693095Y-57923390D02*
X176740714Y-57732914D01*
X176740714Y-57732914D02*
X176788333Y-57637676D01*
X176788333Y-57637676D02*
X176883571Y-57542438D01*
X176883571Y-57542438D02*
X177026428Y-57494819D01*
X177026428Y-57494819D02*
X177121666Y-57494819D01*
X177121666Y-57494819D02*
X177264523Y-57542438D01*
X177264523Y-57542438D02*
X177312142Y-57590057D01*
X177693095Y-57590057D02*
X177740714Y-57542438D01*
X177740714Y-57542438D02*
X177835952Y-57494819D01*
X177835952Y-57494819D02*
X178074047Y-57494819D01*
X178074047Y-57494819D02*
X178169285Y-57542438D01*
X178169285Y-57542438D02*
X178216904Y-57590057D01*
X178216904Y-57590057D02*
X178264523Y-57685295D01*
X178264523Y-57685295D02*
X178264523Y-57780533D01*
X178264523Y-57780533D02*
X178216904Y-57923390D01*
X178216904Y-57923390D02*
X177645476Y-58494819D01*
X177645476Y-58494819D02*
X178264523Y-58494819D01*
X178645476Y-57590057D02*
X178693095Y-57542438D01*
X178693095Y-57542438D02*
X178788333Y-57494819D01*
X178788333Y-57494819D02*
X179026428Y-57494819D01*
X179026428Y-57494819D02*
X179121666Y-57542438D01*
X179121666Y-57542438D02*
X179169285Y-57590057D01*
X179169285Y-57590057D02*
X179216904Y-57685295D01*
X179216904Y-57685295D02*
X179216904Y-57780533D01*
X179216904Y-57780533D02*
X179169285Y-57923390D01*
X179169285Y-57923390D02*
X178597857Y-58494819D01*
X178597857Y-58494819D02*
X179216904Y-58494819D01*
X205687574Y-111813275D02*
X205687574Y-111880619D01*
X205687574Y-111880619D02*
X205620230Y-112015306D01*
X205620230Y-112015306D02*
X205552887Y-112082649D01*
X205552887Y-112082649D02*
X205418200Y-112149993D01*
X205418200Y-112149993D02*
X205283513Y-112149993D01*
X205283513Y-112149993D02*
X205182498Y-112116321D01*
X205182498Y-112116321D02*
X205014139Y-112015306D01*
X205014139Y-112015306D02*
X204913124Y-111914291D01*
X204913124Y-111914291D02*
X204812108Y-111745932D01*
X204812108Y-111745932D02*
X204778437Y-111644917D01*
X204778437Y-111644917D02*
X204778437Y-111510230D01*
X204778437Y-111510230D02*
X204845780Y-111375543D01*
X204845780Y-111375543D02*
X204913124Y-111308199D01*
X204913124Y-111308199D02*
X205047811Y-111240856D01*
X205047811Y-111240856D02*
X205115154Y-111240856D01*
X205687574Y-110533749D02*
X205350856Y-110870466D01*
X205350856Y-110870466D02*
X205653902Y-111240856D01*
X205653902Y-111240856D02*
X205653902Y-111173512D01*
X205653902Y-111173512D02*
X205687574Y-111072497D01*
X205687574Y-111072497D02*
X205855933Y-110904138D01*
X205855933Y-110904138D02*
X205956948Y-110870466D01*
X205956948Y-110870466D02*
X206024291Y-110870466D01*
X206024291Y-110870466D02*
X206125307Y-110904138D01*
X206125307Y-110904138D02*
X206293665Y-111072497D01*
X206293665Y-111072497D02*
X206327337Y-111173512D01*
X206327337Y-111173512D02*
X206327337Y-111240856D01*
X206327337Y-111240856D02*
X206293665Y-111341871D01*
X206293665Y-111341871D02*
X206125307Y-111510230D01*
X206125307Y-111510230D02*
X206024291Y-111543901D01*
X206024291Y-111543901D02*
X205956948Y-111543901D01*
X212619342Y-95273159D02*
X212046922Y-95845579D01*
X212046922Y-95845579D02*
X212013250Y-95946594D01*
X212013250Y-95946594D02*
X212013250Y-96013938D01*
X212013250Y-96013938D02*
X212046922Y-96114953D01*
X212046922Y-96114953D02*
X212181609Y-96249640D01*
X212181609Y-96249640D02*
X212282624Y-96283312D01*
X212282624Y-96283312D02*
X212349968Y-96283312D01*
X212349968Y-96283312D02*
X212450983Y-96249640D01*
X212450983Y-96249640D02*
X213023403Y-95677220D01*
X213023403Y-97091434D02*
X212619342Y-96687373D01*
X212821372Y-96889403D02*
X213528479Y-96182297D01*
X213528479Y-96182297D02*
X213360120Y-96215968D01*
X213360120Y-96215968D02*
X213225433Y-96215968D01*
X213225433Y-96215968D02*
X213124418Y-96182297D01*
X227906666Y-127724819D02*
X227906666Y-128439104D01*
X227906666Y-128439104D02*
X227859047Y-128581961D01*
X227859047Y-128581961D02*
X227763809Y-128677200D01*
X227763809Y-128677200D02*
X227620952Y-128724819D01*
X227620952Y-128724819D02*
X227525714Y-128724819D01*
X228287619Y-127724819D02*
X228906666Y-127724819D01*
X228906666Y-127724819D02*
X228573333Y-128105771D01*
X228573333Y-128105771D02*
X228716190Y-128105771D01*
X228716190Y-128105771D02*
X228811428Y-128153390D01*
X228811428Y-128153390D02*
X228859047Y-128201009D01*
X228859047Y-128201009D02*
X228906666Y-128296247D01*
X228906666Y-128296247D02*
X228906666Y-128534342D01*
X228906666Y-128534342D02*
X228859047Y-128629580D01*
X228859047Y-128629580D02*
X228811428Y-128677200D01*
X228811428Y-128677200D02*
X228716190Y-128724819D01*
X228716190Y-128724819D02*
X228430476Y-128724819D01*
X228430476Y-128724819D02*
X228335238Y-128677200D01*
X228335238Y-128677200D02*
X228287619Y-128629580D01*
X198459580Y-92602857D02*
X198507200Y-92650476D01*
X198507200Y-92650476D02*
X198554819Y-92793333D01*
X198554819Y-92793333D02*
X198554819Y-92888571D01*
X198554819Y-92888571D02*
X198507200Y-93031428D01*
X198507200Y-93031428D02*
X198411961Y-93126666D01*
X198411961Y-93126666D02*
X198316723Y-93174285D01*
X198316723Y-93174285D02*
X198126247Y-93221904D01*
X198126247Y-93221904D02*
X197983390Y-93221904D01*
X197983390Y-93221904D02*
X197792914Y-93174285D01*
X197792914Y-93174285D02*
X197697676Y-93126666D01*
X197697676Y-93126666D02*
X197602438Y-93031428D01*
X197602438Y-93031428D02*
X197554819Y-92888571D01*
X197554819Y-92888571D02*
X197554819Y-92793333D01*
X197554819Y-92793333D02*
X197602438Y-92650476D01*
X197602438Y-92650476D02*
X197650057Y-92602857D01*
X198554819Y-91650476D02*
X198554819Y-92221904D01*
X198554819Y-91936190D02*
X197554819Y-91936190D01*
X197554819Y-91936190D02*
X197697676Y-92031428D01*
X197697676Y-92031428D02*
X197792914Y-92126666D01*
X197792914Y-92126666D02*
X197840533Y-92221904D01*
X197554819Y-90745714D02*
X197554819Y-91221904D01*
X197554819Y-91221904D02*
X198031009Y-91269523D01*
X198031009Y-91269523D02*
X197983390Y-91221904D01*
X197983390Y-91221904D02*
X197935771Y-91126666D01*
X197935771Y-91126666D02*
X197935771Y-90888571D01*
X197935771Y-90888571D02*
X197983390Y-90793333D01*
X197983390Y-90793333D02*
X198031009Y-90745714D01*
X198031009Y-90745714D02*
X198126247Y-90698095D01*
X198126247Y-90698095D02*
X198364342Y-90698095D01*
X198364342Y-90698095D02*
X198459580Y-90745714D01*
X198459580Y-90745714D02*
X198507200Y-90793333D01*
X198507200Y-90793333D02*
X198554819Y-90888571D01*
X198554819Y-90888571D02*
X198554819Y-91126666D01*
X198554819Y-91126666D02*
X198507200Y-91221904D01*
X198507200Y-91221904D02*
X198459580Y-91269523D01*
X212987142Y-70649580D02*
X212939523Y-70697200D01*
X212939523Y-70697200D02*
X212796666Y-70744819D01*
X212796666Y-70744819D02*
X212701428Y-70744819D01*
X212701428Y-70744819D02*
X212558571Y-70697200D01*
X212558571Y-70697200D02*
X212463333Y-70601961D01*
X212463333Y-70601961D02*
X212415714Y-70506723D01*
X212415714Y-70506723D02*
X212368095Y-70316247D01*
X212368095Y-70316247D02*
X212368095Y-70173390D01*
X212368095Y-70173390D02*
X212415714Y-69982914D01*
X212415714Y-69982914D02*
X212463333Y-69887676D01*
X212463333Y-69887676D02*
X212558571Y-69792438D01*
X212558571Y-69792438D02*
X212701428Y-69744819D01*
X212701428Y-69744819D02*
X212796666Y-69744819D01*
X212796666Y-69744819D02*
X212939523Y-69792438D01*
X212939523Y-69792438D02*
X212987142Y-69840057D01*
X213939523Y-70744819D02*
X213368095Y-70744819D01*
X213653809Y-70744819D02*
X213653809Y-69744819D01*
X213653809Y-69744819D02*
X213558571Y-69887676D01*
X213558571Y-69887676D02*
X213463333Y-69982914D01*
X213463333Y-69982914D02*
X213368095Y-70030533D01*
X214415714Y-70744819D02*
X214606190Y-70744819D01*
X214606190Y-70744819D02*
X214701428Y-70697200D01*
X214701428Y-70697200D02*
X214749047Y-70649580D01*
X214749047Y-70649580D02*
X214844285Y-70506723D01*
X214844285Y-70506723D02*
X214891904Y-70316247D01*
X214891904Y-70316247D02*
X214891904Y-69935295D01*
X214891904Y-69935295D02*
X214844285Y-69840057D01*
X214844285Y-69840057D02*
X214796666Y-69792438D01*
X214796666Y-69792438D02*
X214701428Y-69744819D01*
X214701428Y-69744819D02*
X214510952Y-69744819D01*
X214510952Y-69744819D02*
X214415714Y-69792438D01*
X214415714Y-69792438D02*
X214368095Y-69840057D01*
X214368095Y-69840057D02*
X214320476Y-69935295D01*
X214320476Y-69935295D02*
X214320476Y-70173390D01*
X214320476Y-70173390D02*
X214368095Y-70268628D01*
X214368095Y-70268628D02*
X214415714Y-70316247D01*
X214415714Y-70316247D02*
X214510952Y-70363866D01*
X214510952Y-70363866D02*
X214701428Y-70363866D01*
X214701428Y-70363866D02*
X214796666Y-70316247D01*
X214796666Y-70316247D02*
X214844285Y-70268628D01*
X214844285Y-70268628D02*
X214891904Y-70173390D01*
X231877142Y-114979580D02*
X231829523Y-115027200D01*
X231829523Y-115027200D02*
X231686666Y-115074819D01*
X231686666Y-115074819D02*
X231591428Y-115074819D01*
X231591428Y-115074819D02*
X231448571Y-115027200D01*
X231448571Y-115027200D02*
X231353333Y-114931961D01*
X231353333Y-114931961D02*
X231305714Y-114836723D01*
X231305714Y-114836723D02*
X231258095Y-114646247D01*
X231258095Y-114646247D02*
X231258095Y-114503390D01*
X231258095Y-114503390D02*
X231305714Y-114312914D01*
X231305714Y-114312914D02*
X231353333Y-114217676D01*
X231353333Y-114217676D02*
X231448571Y-114122438D01*
X231448571Y-114122438D02*
X231591428Y-114074819D01*
X231591428Y-114074819D02*
X231686666Y-114074819D01*
X231686666Y-114074819D02*
X231829523Y-114122438D01*
X231829523Y-114122438D02*
X231877142Y-114170057D01*
X232829523Y-115074819D02*
X232258095Y-115074819D01*
X232543809Y-115074819D02*
X232543809Y-114074819D01*
X232543809Y-114074819D02*
X232448571Y-114217676D01*
X232448571Y-114217676D02*
X232353333Y-114312914D01*
X232353333Y-114312914D02*
X232258095Y-114360533D01*
X233162857Y-114074819D02*
X233781904Y-114074819D01*
X233781904Y-114074819D02*
X233448571Y-114455771D01*
X233448571Y-114455771D02*
X233591428Y-114455771D01*
X233591428Y-114455771D02*
X233686666Y-114503390D01*
X233686666Y-114503390D02*
X233734285Y-114551009D01*
X233734285Y-114551009D02*
X233781904Y-114646247D01*
X233781904Y-114646247D02*
X233781904Y-114884342D01*
X233781904Y-114884342D02*
X233734285Y-114979580D01*
X233734285Y-114979580D02*
X233686666Y-115027200D01*
X233686666Y-115027200D02*
X233591428Y-115074819D01*
X233591428Y-115074819D02*
X233305714Y-115074819D01*
X233305714Y-115074819D02*
X233210476Y-115027200D01*
X233210476Y-115027200D02*
X233162857Y-114979580D01*
X214828095Y-112194819D02*
X214828095Y-113004342D01*
X214828095Y-113004342D02*
X214875714Y-113099580D01*
X214875714Y-113099580D02*
X214923333Y-113147200D01*
X214923333Y-113147200D02*
X215018571Y-113194819D01*
X215018571Y-113194819D02*
X215209047Y-113194819D01*
X215209047Y-113194819D02*
X215304285Y-113147200D01*
X215304285Y-113147200D02*
X215351904Y-113099580D01*
X215351904Y-113099580D02*
X215399523Y-113004342D01*
X215399523Y-113004342D02*
X215399523Y-112194819D01*
X216351904Y-112194819D02*
X215875714Y-112194819D01*
X215875714Y-112194819D02*
X215828095Y-112671009D01*
X215828095Y-112671009D02*
X215875714Y-112623390D01*
X215875714Y-112623390D02*
X215970952Y-112575771D01*
X215970952Y-112575771D02*
X216209047Y-112575771D01*
X216209047Y-112575771D02*
X216304285Y-112623390D01*
X216304285Y-112623390D02*
X216351904Y-112671009D01*
X216351904Y-112671009D02*
X216399523Y-112766247D01*
X216399523Y-112766247D02*
X216399523Y-113004342D01*
X216399523Y-113004342D02*
X216351904Y-113099580D01*
X216351904Y-113099580D02*
X216304285Y-113147200D01*
X216304285Y-113147200D02*
X216209047Y-113194819D01*
X216209047Y-113194819D02*
X215970952Y-113194819D01*
X215970952Y-113194819D02*
X215875714Y-113147200D01*
X215875714Y-113147200D02*
X215828095Y-113099580D01*
X213804819Y-120146666D02*
X213328628Y-120479999D01*
X213804819Y-120718094D02*
X212804819Y-120718094D01*
X212804819Y-120718094D02*
X212804819Y-120337142D01*
X212804819Y-120337142D02*
X212852438Y-120241904D01*
X212852438Y-120241904D02*
X212900057Y-120194285D01*
X212900057Y-120194285D02*
X212995295Y-120146666D01*
X212995295Y-120146666D02*
X213138152Y-120146666D01*
X213138152Y-120146666D02*
X213233390Y-120194285D01*
X213233390Y-120194285D02*
X213281009Y-120241904D01*
X213281009Y-120241904D02*
X213328628Y-120337142D01*
X213328628Y-120337142D02*
X213328628Y-120718094D01*
X212900057Y-119765713D02*
X212852438Y-119718094D01*
X212852438Y-119718094D02*
X212804819Y-119622856D01*
X212804819Y-119622856D02*
X212804819Y-119384761D01*
X212804819Y-119384761D02*
X212852438Y-119289523D01*
X212852438Y-119289523D02*
X212900057Y-119241904D01*
X212900057Y-119241904D02*
X212995295Y-119194285D01*
X212995295Y-119194285D02*
X213090533Y-119194285D01*
X213090533Y-119194285D02*
X213233390Y-119241904D01*
X213233390Y-119241904D02*
X213804819Y-119813332D01*
X213804819Y-119813332D02*
X213804819Y-119194285D01*
X245446666Y-60264819D02*
X245446666Y-60979104D01*
X245446666Y-60979104D02*
X245399047Y-61121961D01*
X245399047Y-61121961D02*
X245303809Y-61217200D01*
X245303809Y-61217200D02*
X245160952Y-61264819D01*
X245160952Y-61264819D02*
X245065714Y-61264819D01*
X246065714Y-60693390D02*
X245970476Y-60645771D01*
X245970476Y-60645771D02*
X245922857Y-60598152D01*
X245922857Y-60598152D02*
X245875238Y-60502914D01*
X245875238Y-60502914D02*
X245875238Y-60455295D01*
X245875238Y-60455295D02*
X245922857Y-60360057D01*
X245922857Y-60360057D02*
X245970476Y-60312438D01*
X245970476Y-60312438D02*
X246065714Y-60264819D01*
X246065714Y-60264819D02*
X246256190Y-60264819D01*
X246256190Y-60264819D02*
X246351428Y-60312438D01*
X246351428Y-60312438D02*
X246399047Y-60360057D01*
X246399047Y-60360057D02*
X246446666Y-60455295D01*
X246446666Y-60455295D02*
X246446666Y-60502914D01*
X246446666Y-60502914D02*
X246399047Y-60598152D01*
X246399047Y-60598152D02*
X246351428Y-60645771D01*
X246351428Y-60645771D02*
X246256190Y-60693390D01*
X246256190Y-60693390D02*
X246065714Y-60693390D01*
X246065714Y-60693390D02*
X245970476Y-60741009D01*
X245970476Y-60741009D02*
X245922857Y-60788628D01*
X245922857Y-60788628D02*
X245875238Y-60883866D01*
X245875238Y-60883866D02*
X245875238Y-61074342D01*
X245875238Y-61074342D02*
X245922857Y-61169580D01*
X245922857Y-61169580D02*
X245970476Y-61217200D01*
X245970476Y-61217200D02*
X246065714Y-61264819D01*
X246065714Y-61264819D02*
X246256190Y-61264819D01*
X246256190Y-61264819D02*
X246351428Y-61217200D01*
X246351428Y-61217200D02*
X246399047Y-61169580D01*
X246399047Y-61169580D02*
X246446666Y-61074342D01*
X246446666Y-61074342D02*
X246446666Y-60883866D01*
X246446666Y-60883866D02*
X246399047Y-60788628D01*
X246399047Y-60788628D02*
X246351428Y-60741009D01*
X246351428Y-60741009D02*
X246256190Y-60693390D01*
X234574819Y-55772857D02*
X234098628Y-56106190D01*
X234574819Y-56344285D02*
X233574819Y-56344285D01*
X233574819Y-56344285D02*
X233574819Y-55963333D01*
X233574819Y-55963333D02*
X233622438Y-55868095D01*
X233622438Y-55868095D02*
X233670057Y-55820476D01*
X233670057Y-55820476D02*
X233765295Y-55772857D01*
X233765295Y-55772857D02*
X233908152Y-55772857D01*
X233908152Y-55772857D02*
X234003390Y-55820476D01*
X234003390Y-55820476D02*
X234051009Y-55868095D01*
X234051009Y-55868095D02*
X234098628Y-55963333D01*
X234098628Y-55963333D02*
X234098628Y-56344285D01*
X234574819Y-54820476D02*
X234574819Y-55391904D01*
X234574819Y-55106190D02*
X233574819Y-55106190D01*
X233574819Y-55106190D02*
X233717676Y-55201428D01*
X233717676Y-55201428D02*
X233812914Y-55296666D01*
X233812914Y-55296666D02*
X233860533Y-55391904D01*
X234574819Y-54344285D02*
X234574819Y-54153809D01*
X234574819Y-54153809D02*
X234527200Y-54058571D01*
X234527200Y-54058571D02*
X234479580Y-54010952D01*
X234479580Y-54010952D02*
X234336723Y-53915714D01*
X234336723Y-53915714D02*
X234146247Y-53868095D01*
X234146247Y-53868095D02*
X233765295Y-53868095D01*
X233765295Y-53868095D02*
X233670057Y-53915714D01*
X233670057Y-53915714D02*
X233622438Y-53963333D01*
X233622438Y-53963333D02*
X233574819Y-54058571D01*
X233574819Y-54058571D02*
X233574819Y-54249047D01*
X233574819Y-54249047D02*
X233622438Y-54344285D01*
X233622438Y-54344285D02*
X233670057Y-54391904D01*
X233670057Y-54391904D02*
X233765295Y-54439523D01*
X233765295Y-54439523D02*
X234003390Y-54439523D01*
X234003390Y-54439523D02*
X234098628Y-54391904D01*
X234098628Y-54391904D02*
X234146247Y-54344285D01*
X234146247Y-54344285D02*
X234193866Y-54249047D01*
X234193866Y-54249047D02*
X234193866Y-54058571D01*
X234193866Y-54058571D02*
X234146247Y-53963333D01*
X234146247Y-53963333D02*
X234098628Y-53915714D01*
X234098628Y-53915714D02*
X234003390Y-53868095D01*
X188442142Y-79199580D02*
X188394523Y-79247200D01*
X188394523Y-79247200D02*
X188251666Y-79294819D01*
X188251666Y-79294819D02*
X188156428Y-79294819D01*
X188156428Y-79294819D02*
X188013571Y-79247200D01*
X188013571Y-79247200D02*
X187918333Y-79151961D01*
X187918333Y-79151961D02*
X187870714Y-79056723D01*
X187870714Y-79056723D02*
X187823095Y-78866247D01*
X187823095Y-78866247D02*
X187823095Y-78723390D01*
X187823095Y-78723390D02*
X187870714Y-78532914D01*
X187870714Y-78532914D02*
X187918333Y-78437676D01*
X187918333Y-78437676D02*
X188013571Y-78342438D01*
X188013571Y-78342438D02*
X188156428Y-78294819D01*
X188156428Y-78294819D02*
X188251666Y-78294819D01*
X188251666Y-78294819D02*
X188394523Y-78342438D01*
X188394523Y-78342438D02*
X188442142Y-78390057D01*
X188823095Y-78390057D02*
X188870714Y-78342438D01*
X188870714Y-78342438D02*
X188965952Y-78294819D01*
X188965952Y-78294819D02*
X189204047Y-78294819D01*
X189204047Y-78294819D02*
X189299285Y-78342438D01*
X189299285Y-78342438D02*
X189346904Y-78390057D01*
X189346904Y-78390057D02*
X189394523Y-78485295D01*
X189394523Y-78485295D02*
X189394523Y-78580533D01*
X189394523Y-78580533D02*
X189346904Y-78723390D01*
X189346904Y-78723390D02*
X188775476Y-79294819D01*
X188775476Y-79294819D02*
X189394523Y-79294819D01*
X189870714Y-79294819D02*
X190061190Y-79294819D01*
X190061190Y-79294819D02*
X190156428Y-79247200D01*
X190156428Y-79247200D02*
X190204047Y-79199580D01*
X190204047Y-79199580D02*
X190299285Y-79056723D01*
X190299285Y-79056723D02*
X190346904Y-78866247D01*
X190346904Y-78866247D02*
X190346904Y-78485295D01*
X190346904Y-78485295D02*
X190299285Y-78390057D01*
X190299285Y-78390057D02*
X190251666Y-78342438D01*
X190251666Y-78342438D02*
X190156428Y-78294819D01*
X190156428Y-78294819D02*
X189965952Y-78294819D01*
X189965952Y-78294819D02*
X189870714Y-78342438D01*
X189870714Y-78342438D02*
X189823095Y-78390057D01*
X189823095Y-78390057D02*
X189775476Y-78485295D01*
X189775476Y-78485295D02*
X189775476Y-78723390D01*
X189775476Y-78723390D02*
X189823095Y-78818628D01*
X189823095Y-78818628D02*
X189870714Y-78866247D01*
X189870714Y-78866247D02*
X189965952Y-78913866D01*
X189965952Y-78913866D02*
X190156428Y-78913866D01*
X190156428Y-78913866D02*
X190251666Y-78866247D01*
X190251666Y-78866247D02*
X190299285Y-78818628D01*
X190299285Y-78818628D02*
X190346904Y-78723390D01*
X210704819Y-118778094D02*
X209704819Y-118778094D01*
X209704819Y-118778094D02*
X209704819Y-118539999D01*
X209704819Y-118539999D02*
X209752438Y-118397142D01*
X209752438Y-118397142D02*
X209847676Y-118301904D01*
X209847676Y-118301904D02*
X209942914Y-118254285D01*
X209942914Y-118254285D02*
X210133390Y-118206666D01*
X210133390Y-118206666D02*
X210276247Y-118206666D01*
X210276247Y-118206666D02*
X210466723Y-118254285D01*
X210466723Y-118254285D02*
X210561961Y-118301904D01*
X210561961Y-118301904D02*
X210657200Y-118397142D01*
X210657200Y-118397142D02*
X210704819Y-118539999D01*
X210704819Y-118539999D02*
X210704819Y-118778094D01*
X209704819Y-117873332D02*
X209704819Y-117254285D01*
X209704819Y-117254285D02*
X210085771Y-117587618D01*
X210085771Y-117587618D02*
X210085771Y-117444761D01*
X210085771Y-117444761D02*
X210133390Y-117349523D01*
X210133390Y-117349523D02*
X210181009Y-117301904D01*
X210181009Y-117301904D02*
X210276247Y-117254285D01*
X210276247Y-117254285D02*
X210514342Y-117254285D01*
X210514342Y-117254285D02*
X210609580Y-117301904D01*
X210609580Y-117301904D02*
X210657200Y-117349523D01*
X210657200Y-117349523D02*
X210704819Y-117444761D01*
X210704819Y-117444761D02*
X210704819Y-117730475D01*
X210704819Y-117730475D02*
X210657200Y-117825713D01*
X210657200Y-117825713D02*
X210609580Y-117873332D01*
X218103333Y-113684819D02*
X217770000Y-113208628D01*
X217531905Y-113684819D02*
X217531905Y-112684819D01*
X217531905Y-112684819D02*
X217912857Y-112684819D01*
X217912857Y-112684819D02*
X218008095Y-112732438D01*
X218008095Y-112732438D02*
X218055714Y-112780057D01*
X218055714Y-112780057D02*
X218103333Y-112875295D01*
X218103333Y-112875295D02*
X218103333Y-113018152D01*
X218103333Y-113018152D02*
X218055714Y-113113390D01*
X218055714Y-113113390D02*
X218008095Y-113161009D01*
X218008095Y-113161009D02*
X217912857Y-113208628D01*
X217912857Y-113208628D02*
X217531905Y-113208628D01*
X218436667Y-112684819D02*
X219103333Y-112684819D01*
X219103333Y-112684819D02*
X218674762Y-113684819D01*
X197517142Y-86209580D02*
X197469523Y-86257200D01*
X197469523Y-86257200D02*
X197326666Y-86304819D01*
X197326666Y-86304819D02*
X197231428Y-86304819D01*
X197231428Y-86304819D02*
X197088571Y-86257200D01*
X197088571Y-86257200D02*
X196993333Y-86161961D01*
X196993333Y-86161961D02*
X196945714Y-86066723D01*
X196945714Y-86066723D02*
X196898095Y-85876247D01*
X196898095Y-85876247D02*
X196898095Y-85733390D01*
X196898095Y-85733390D02*
X196945714Y-85542914D01*
X196945714Y-85542914D02*
X196993333Y-85447676D01*
X196993333Y-85447676D02*
X197088571Y-85352438D01*
X197088571Y-85352438D02*
X197231428Y-85304819D01*
X197231428Y-85304819D02*
X197326666Y-85304819D01*
X197326666Y-85304819D02*
X197469523Y-85352438D01*
X197469523Y-85352438D02*
X197517142Y-85400057D01*
X198469523Y-86304819D02*
X197898095Y-86304819D01*
X198183809Y-86304819D02*
X198183809Y-85304819D01*
X198183809Y-85304819D02*
X198088571Y-85447676D01*
X198088571Y-85447676D02*
X197993333Y-85542914D01*
X197993333Y-85542914D02*
X197898095Y-85590533D01*
X199040952Y-85733390D02*
X198945714Y-85685771D01*
X198945714Y-85685771D02*
X198898095Y-85638152D01*
X198898095Y-85638152D02*
X198850476Y-85542914D01*
X198850476Y-85542914D02*
X198850476Y-85495295D01*
X198850476Y-85495295D02*
X198898095Y-85400057D01*
X198898095Y-85400057D02*
X198945714Y-85352438D01*
X198945714Y-85352438D02*
X199040952Y-85304819D01*
X199040952Y-85304819D02*
X199231428Y-85304819D01*
X199231428Y-85304819D02*
X199326666Y-85352438D01*
X199326666Y-85352438D02*
X199374285Y-85400057D01*
X199374285Y-85400057D02*
X199421904Y-85495295D01*
X199421904Y-85495295D02*
X199421904Y-85542914D01*
X199421904Y-85542914D02*
X199374285Y-85638152D01*
X199374285Y-85638152D02*
X199326666Y-85685771D01*
X199326666Y-85685771D02*
X199231428Y-85733390D01*
X199231428Y-85733390D02*
X199040952Y-85733390D01*
X199040952Y-85733390D02*
X198945714Y-85781009D01*
X198945714Y-85781009D02*
X198898095Y-85828628D01*
X198898095Y-85828628D02*
X198850476Y-85923866D01*
X198850476Y-85923866D02*
X198850476Y-86114342D01*
X198850476Y-86114342D02*
X198898095Y-86209580D01*
X198898095Y-86209580D02*
X198945714Y-86257200D01*
X198945714Y-86257200D02*
X199040952Y-86304819D01*
X199040952Y-86304819D02*
X199231428Y-86304819D01*
X199231428Y-86304819D02*
X199326666Y-86257200D01*
X199326666Y-86257200D02*
X199374285Y-86209580D01*
X199374285Y-86209580D02*
X199421904Y-86114342D01*
X199421904Y-86114342D02*
X199421904Y-85923866D01*
X199421904Y-85923866D02*
X199374285Y-85828628D01*
X199374285Y-85828628D02*
X199326666Y-85781009D01*
X199326666Y-85781009D02*
X199231428Y-85733390D01*
X187989819Y-71041904D02*
X188799342Y-71041904D01*
X188799342Y-71041904D02*
X188894580Y-70994285D01*
X188894580Y-70994285D02*
X188942200Y-70946666D01*
X188942200Y-70946666D02*
X188989819Y-70851428D01*
X188989819Y-70851428D02*
X188989819Y-70660952D01*
X188989819Y-70660952D02*
X188942200Y-70565714D01*
X188942200Y-70565714D02*
X188894580Y-70518095D01*
X188894580Y-70518095D02*
X188799342Y-70470476D01*
X188799342Y-70470476D02*
X187989819Y-70470476D01*
X188085057Y-70041904D02*
X188037438Y-69994285D01*
X188037438Y-69994285D02*
X187989819Y-69899047D01*
X187989819Y-69899047D02*
X187989819Y-69660952D01*
X187989819Y-69660952D02*
X188037438Y-69565714D01*
X188037438Y-69565714D02*
X188085057Y-69518095D01*
X188085057Y-69518095D02*
X188180295Y-69470476D01*
X188180295Y-69470476D02*
X188275533Y-69470476D01*
X188275533Y-69470476D02*
X188418390Y-69518095D01*
X188418390Y-69518095D02*
X188989819Y-70089523D01*
X188989819Y-70089523D02*
X188989819Y-69470476D01*
X232074819Y-84831904D02*
X232884342Y-84831904D01*
X232884342Y-84831904D02*
X232979580Y-84784285D01*
X232979580Y-84784285D02*
X233027200Y-84736666D01*
X233027200Y-84736666D02*
X233074819Y-84641428D01*
X233074819Y-84641428D02*
X233074819Y-84450952D01*
X233074819Y-84450952D02*
X233027200Y-84355714D01*
X233027200Y-84355714D02*
X232979580Y-84308095D01*
X232979580Y-84308095D02*
X232884342Y-84260476D01*
X232884342Y-84260476D02*
X232074819Y-84260476D01*
X233074819Y-83736666D02*
X233074819Y-83546190D01*
X233074819Y-83546190D02*
X233027200Y-83450952D01*
X233027200Y-83450952D02*
X232979580Y-83403333D01*
X232979580Y-83403333D02*
X232836723Y-83308095D01*
X232836723Y-83308095D02*
X232646247Y-83260476D01*
X232646247Y-83260476D02*
X232265295Y-83260476D01*
X232265295Y-83260476D02*
X232170057Y-83308095D01*
X232170057Y-83308095D02*
X232122438Y-83355714D01*
X232122438Y-83355714D02*
X232074819Y-83450952D01*
X232074819Y-83450952D02*
X232074819Y-83641428D01*
X232074819Y-83641428D02*
X232122438Y-83736666D01*
X232122438Y-83736666D02*
X232170057Y-83784285D01*
X232170057Y-83784285D02*
X232265295Y-83831904D01*
X232265295Y-83831904D02*
X232503390Y-83831904D01*
X232503390Y-83831904D02*
X232598628Y-83784285D01*
X232598628Y-83784285D02*
X232646247Y-83736666D01*
X232646247Y-83736666D02*
X232693866Y-83641428D01*
X232693866Y-83641428D02*
X232693866Y-83450952D01*
X232693866Y-83450952D02*
X232646247Y-83355714D01*
X232646247Y-83355714D02*
X232598628Y-83308095D01*
X232598628Y-83308095D02*
X232503390Y-83260476D01*
X207438095Y-118694819D02*
X207438095Y-119504342D01*
X207438095Y-119504342D02*
X207485714Y-119599580D01*
X207485714Y-119599580D02*
X207533333Y-119647200D01*
X207533333Y-119647200D02*
X207628571Y-119694819D01*
X207628571Y-119694819D02*
X207819047Y-119694819D01*
X207819047Y-119694819D02*
X207914285Y-119647200D01*
X207914285Y-119647200D02*
X207961904Y-119599580D01*
X207961904Y-119599580D02*
X208009523Y-119504342D01*
X208009523Y-119504342D02*
X208009523Y-118694819D01*
X208390476Y-118694819D02*
X209009523Y-118694819D01*
X209009523Y-118694819D02*
X208676190Y-119075771D01*
X208676190Y-119075771D02*
X208819047Y-119075771D01*
X208819047Y-119075771D02*
X208914285Y-119123390D01*
X208914285Y-119123390D02*
X208961904Y-119171009D01*
X208961904Y-119171009D02*
X209009523Y-119266247D01*
X209009523Y-119266247D02*
X209009523Y-119504342D01*
X209009523Y-119504342D02*
X208961904Y-119599580D01*
X208961904Y-119599580D02*
X208914285Y-119647200D01*
X208914285Y-119647200D02*
X208819047Y-119694819D01*
X208819047Y-119694819D02*
X208533333Y-119694819D01*
X208533333Y-119694819D02*
X208438095Y-119647200D01*
X208438095Y-119647200D02*
X208390476Y-119599580D01*
X217489580Y-84287857D02*
X217537200Y-84335476D01*
X217537200Y-84335476D02*
X217584819Y-84478333D01*
X217584819Y-84478333D02*
X217584819Y-84573571D01*
X217584819Y-84573571D02*
X217537200Y-84716428D01*
X217537200Y-84716428D02*
X217441961Y-84811666D01*
X217441961Y-84811666D02*
X217346723Y-84859285D01*
X217346723Y-84859285D02*
X217156247Y-84906904D01*
X217156247Y-84906904D02*
X217013390Y-84906904D01*
X217013390Y-84906904D02*
X216822914Y-84859285D01*
X216822914Y-84859285D02*
X216727676Y-84811666D01*
X216727676Y-84811666D02*
X216632438Y-84716428D01*
X216632438Y-84716428D02*
X216584819Y-84573571D01*
X216584819Y-84573571D02*
X216584819Y-84478333D01*
X216584819Y-84478333D02*
X216632438Y-84335476D01*
X216632438Y-84335476D02*
X216680057Y-84287857D01*
X216680057Y-83906904D02*
X216632438Y-83859285D01*
X216632438Y-83859285D02*
X216584819Y-83764047D01*
X216584819Y-83764047D02*
X216584819Y-83525952D01*
X216584819Y-83525952D02*
X216632438Y-83430714D01*
X216632438Y-83430714D02*
X216680057Y-83383095D01*
X216680057Y-83383095D02*
X216775295Y-83335476D01*
X216775295Y-83335476D02*
X216870533Y-83335476D01*
X216870533Y-83335476D02*
X217013390Y-83383095D01*
X217013390Y-83383095D02*
X217584819Y-83954523D01*
X217584819Y-83954523D02*
X217584819Y-83335476D01*
X216584819Y-82430714D02*
X216584819Y-82906904D01*
X216584819Y-82906904D02*
X217061009Y-82954523D01*
X217061009Y-82954523D02*
X217013390Y-82906904D01*
X217013390Y-82906904D02*
X216965771Y-82811666D01*
X216965771Y-82811666D02*
X216965771Y-82573571D01*
X216965771Y-82573571D02*
X217013390Y-82478333D01*
X217013390Y-82478333D02*
X217061009Y-82430714D01*
X217061009Y-82430714D02*
X217156247Y-82383095D01*
X217156247Y-82383095D02*
X217394342Y-82383095D01*
X217394342Y-82383095D02*
X217489580Y-82430714D01*
X217489580Y-82430714D02*
X217537200Y-82478333D01*
X217537200Y-82478333D02*
X217584819Y-82573571D01*
X217584819Y-82573571D02*
X217584819Y-82811666D01*
X217584819Y-82811666D02*
X217537200Y-82906904D01*
X217537200Y-82906904D02*
X217489580Y-82954523D01*
X229717142Y-80259580D02*
X229669523Y-80307200D01*
X229669523Y-80307200D02*
X229526666Y-80354819D01*
X229526666Y-80354819D02*
X229431428Y-80354819D01*
X229431428Y-80354819D02*
X229288571Y-80307200D01*
X229288571Y-80307200D02*
X229193333Y-80211961D01*
X229193333Y-80211961D02*
X229145714Y-80116723D01*
X229145714Y-80116723D02*
X229098095Y-79926247D01*
X229098095Y-79926247D02*
X229098095Y-79783390D01*
X229098095Y-79783390D02*
X229145714Y-79592914D01*
X229145714Y-79592914D02*
X229193333Y-79497676D01*
X229193333Y-79497676D02*
X229288571Y-79402438D01*
X229288571Y-79402438D02*
X229431428Y-79354819D01*
X229431428Y-79354819D02*
X229526666Y-79354819D01*
X229526666Y-79354819D02*
X229669523Y-79402438D01*
X229669523Y-79402438D02*
X229717142Y-79450057D01*
X230098095Y-79450057D02*
X230145714Y-79402438D01*
X230145714Y-79402438D02*
X230240952Y-79354819D01*
X230240952Y-79354819D02*
X230479047Y-79354819D01*
X230479047Y-79354819D02*
X230574285Y-79402438D01*
X230574285Y-79402438D02*
X230621904Y-79450057D01*
X230621904Y-79450057D02*
X230669523Y-79545295D01*
X230669523Y-79545295D02*
X230669523Y-79640533D01*
X230669523Y-79640533D02*
X230621904Y-79783390D01*
X230621904Y-79783390D02*
X230050476Y-80354819D01*
X230050476Y-80354819D02*
X230669523Y-80354819D01*
X231002857Y-79354819D02*
X231669523Y-79354819D01*
X231669523Y-79354819D02*
X231240952Y-80354819D01*
X201620476Y-73516819D02*
X201620476Y-72516819D01*
X201620476Y-72516819D02*
X201953809Y-73231104D01*
X201953809Y-73231104D02*
X202287142Y-72516819D01*
X202287142Y-72516819D02*
X202287142Y-73516819D01*
X202763333Y-73516819D02*
X202763333Y-72516819D01*
X203334761Y-73516819D02*
X202906190Y-72945390D01*
X203334761Y-72516819D02*
X202763333Y-73088247D01*
X204287142Y-73516819D02*
X203715714Y-73516819D01*
X204001428Y-73516819D02*
X204001428Y-72516819D01*
X204001428Y-72516819D02*
X203906190Y-72659676D01*
X203906190Y-72659676D02*
X203810952Y-72754914D01*
X203810952Y-72754914D02*
X203715714Y-72802533D01*
X204159580Y-121846666D02*
X204207200Y-121894285D01*
X204207200Y-121894285D02*
X204254819Y-122037142D01*
X204254819Y-122037142D02*
X204254819Y-122132380D01*
X204254819Y-122132380D02*
X204207200Y-122275237D01*
X204207200Y-122275237D02*
X204111961Y-122370475D01*
X204111961Y-122370475D02*
X204016723Y-122418094D01*
X204016723Y-122418094D02*
X203826247Y-122465713D01*
X203826247Y-122465713D02*
X203683390Y-122465713D01*
X203683390Y-122465713D02*
X203492914Y-122418094D01*
X203492914Y-122418094D02*
X203397676Y-122370475D01*
X203397676Y-122370475D02*
X203302438Y-122275237D01*
X203302438Y-122275237D02*
X203254819Y-122132380D01*
X203254819Y-122132380D02*
X203254819Y-122037142D01*
X203254819Y-122037142D02*
X203302438Y-121894285D01*
X203302438Y-121894285D02*
X203350057Y-121846666D01*
X203350057Y-121465713D02*
X203302438Y-121418094D01*
X203302438Y-121418094D02*
X203254819Y-121322856D01*
X203254819Y-121322856D02*
X203254819Y-121084761D01*
X203254819Y-121084761D02*
X203302438Y-120989523D01*
X203302438Y-120989523D02*
X203350057Y-120941904D01*
X203350057Y-120941904D02*
X203445295Y-120894285D01*
X203445295Y-120894285D02*
X203540533Y-120894285D01*
X203540533Y-120894285D02*
X203683390Y-120941904D01*
X203683390Y-120941904D02*
X204254819Y-121513332D01*
X204254819Y-121513332D02*
X204254819Y-120894285D01*
X195517887Y-96786411D02*
X195450543Y-96786411D01*
X195450543Y-96786411D02*
X195315856Y-96719067D01*
X195315856Y-96719067D02*
X195248513Y-96651724D01*
X195248513Y-96651724D02*
X195181169Y-96517037D01*
X195181169Y-96517037D02*
X195181169Y-96382350D01*
X195181169Y-96382350D02*
X195214841Y-96281335D01*
X195214841Y-96281335D02*
X195315856Y-96112976D01*
X195315856Y-96112976D02*
X195416871Y-96011961D01*
X195416871Y-96011961D02*
X195585230Y-95910945D01*
X195585230Y-95910945D02*
X195686245Y-95877274D01*
X195686245Y-95877274D02*
X195820932Y-95877274D01*
X195820932Y-95877274D02*
X195955619Y-95944617D01*
X195955619Y-95944617D02*
X196022963Y-96011961D01*
X196022963Y-96011961D02*
X196090306Y-96146648D01*
X196090306Y-96146648D02*
X196090306Y-96213991D01*
X196393352Y-96382350D02*
X196864757Y-96853754D01*
X196864757Y-96853754D02*
X195854604Y-97257815D01*
X205634819Y-127466666D02*
X205158628Y-127799999D01*
X205634819Y-128038094D02*
X204634819Y-128038094D01*
X204634819Y-128038094D02*
X204634819Y-127657142D01*
X204634819Y-127657142D02*
X204682438Y-127561904D01*
X204682438Y-127561904D02*
X204730057Y-127514285D01*
X204730057Y-127514285D02*
X204825295Y-127466666D01*
X204825295Y-127466666D02*
X204968152Y-127466666D01*
X204968152Y-127466666D02*
X205063390Y-127514285D01*
X205063390Y-127514285D02*
X205111009Y-127561904D01*
X205111009Y-127561904D02*
X205158628Y-127657142D01*
X205158628Y-127657142D02*
X205158628Y-128038094D01*
X205063390Y-126895237D02*
X205015771Y-126990475D01*
X205015771Y-126990475D02*
X204968152Y-127038094D01*
X204968152Y-127038094D02*
X204872914Y-127085713D01*
X204872914Y-127085713D02*
X204825295Y-127085713D01*
X204825295Y-127085713D02*
X204730057Y-127038094D01*
X204730057Y-127038094D02*
X204682438Y-126990475D01*
X204682438Y-126990475D02*
X204634819Y-126895237D01*
X204634819Y-126895237D02*
X204634819Y-126704761D01*
X204634819Y-126704761D02*
X204682438Y-126609523D01*
X204682438Y-126609523D02*
X204730057Y-126561904D01*
X204730057Y-126561904D02*
X204825295Y-126514285D01*
X204825295Y-126514285D02*
X204872914Y-126514285D01*
X204872914Y-126514285D02*
X204968152Y-126561904D01*
X204968152Y-126561904D02*
X205015771Y-126609523D01*
X205015771Y-126609523D02*
X205063390Y-126704761D01*
X205063390Y-126704761D02*
X205063390Y-126895237D01*
X205063390Y-126895237D02*
X205111009Y-126990475D01*
X205111009Y-126990475D02*
X205158628Y-127038094D01*
X205158628Y-127038094D02*
X205253866Y-127085713D01*
X205253866Y-127085713D02*
X205444342Y-127085713D01*
X205444342Y-127085713D02*
X205539580Y-127038094D01*
X205539580Y-127038094D02*
X205587200Y-126990475D01*
X205587200Y-126990475D02*
X205634819Y-126895237D01*
X205634819Y-126895237D02*
X205634819Y-126704761D01*
X205634819Y-126704761D02*
X205587200Y-126609523D01*
X205587200Y-126609523D02*
X205539580Y-126561904D01*
X205539580Y-126561904D02*
X205444342Y-126514285D01*
X205444342Y-126514285D02*
X205253866Y-126514285D01*
X205253866Y-126514285D02*
X205158628Y-126561904D01*
X205158628Y-126561904D02*
X205111009Y-126609523D01*
X205111009Y-126609523D02*
X205063390Y-126704761D01*
X212367142Y-72634819D02*
X212033809Y-72158628D01*
X211795714Y-72634819D02*
X211795714Y-71634819D01*
X211795714Y-71634819D02*
X212176666Y-71634819D01*
X212176666Y-71634819D02*
X212271904Y-71682438D01*
X212271904Y-71682438D02*
X212319523Y-71730057D01*
X212319523Y-71730057D02*
X212367142Y-71825295D01*
X212367142Y-71825295D02*
X212367142Y-71968152D01*
X212367142Y-71968152D02*
X212319523Y-72063390D01*
X212319523Y-72063390D02*
X212271904Y-72111009D01*
X212271904Y-72111009D02*
X212176666Y-72158628D01*
X212176666Y-72158628D02*
X211795714Y-72158628D01*
X213319523Y-72634819D02*
X212748095Y-72634819D01*
X213033809Y-72634819D02*
X213033809Y-71634819D01*
X213033809Y-71634819D02*
X212938571Y-71777676D01*
X212938571Y-71777676D02*
X212843333Y-71872914D01*
X212843333Y-71872914D02*
X212748095Y-71920533D01*
X214176666Y-71968152D02*
X214176666Y-72634819D01*
X213938571Y-71587200D02*
X213700476Y-72301485D01*
X213700476Y-72301485D02*
X214319523Y-72301485D01*
X207324819Y-128258094D02*
X206324819Y-128258094D01*
X206324819Y-128258094D02*
X206324819Y-128019999D01*
X206324819Y-128019999D02*
X206372438Y-127877142D01*
X206372438Y-127877142D02*
X206467676Y-127781904D01*
X206467676Y-127781904D02*
X206562914Y-127734285D01*
X206562914Y-127734285D02*
X206753390Y-127686666D01*
X206753390Y-127686666D02*
X206896247Y-127686666D01*
X206896247Y-127686666D02*
X207086723Y-127734285D01*
X207086723Y-127734285D02*
X207181961Y-127781904D01*
X207181961Y-127781904D02*
X207277200Y-127877142D01*
X207277200Y-127877142D02*
X207324819Y-128019999D01*
X207324819Y-128019999D02*
X207324819Y-128258094D01*
X207324819Y-126734285D02*
X207324819Y-127305713D01*
X207324819Y-127019999D02*
X206324819Y-127019999D01*
X206324819Y-127019999D02*
X206467676Y-127115237D01*
X206467676Y-127115237D02*
X206562914Y-127210475D01*
X206562914Y-127210475D02*
X206610533Y-127305713D01*
X193327887Y-99056411D02*
X193260543Y-99056411D01*
X193260543Y-99056411D02*
X193125856Y-98989067D01*
X193125856Y-98989067D02*
X193058513Y-98921724D01*
X193058513Y-98921724D02*
X192991169Y-98787037D01*
X192991169Y-98787037D02*
X192991169Y-98652350D01*
X192991169Y-98652350D02*
X193024841Y-98551335D01*
X193024841Y-98551335D02*
X193125856Y-98382976D01*
X193125856Y-98382976D02*
X193226871Y-98281961D01*
X193226871Y-98281961D02*
X193395230Y-98180945D01*
X193395230Y-98180945D02*
X193496245Y-98147274D01*
X193496245Y-98147274D02*
X193630932Y-98147274D01*
X193630932Y-98147274D02*
X193765619Y-98214617D01*
X193765619Y-98214617D02*
X193832963Y-98281961D01*
X193832963Y-98281961D02*
X193900306Y-98416648D01*
X193900306Y-98416648D02*
X193900306Y-98483991D01*
X194068665Y-99123754D02*
X194034993Y-99022739D01*
X194034993Y-99022739D02*
X194034993Y-98955396D01*
X194034993Y-98955396D02*
X194068665Y-98854380D01*
X194068665Y-98854380D02*
X194102337Y-98820709D01*
X194102337Y-98820709D02*
X194203352Y-98787037D01*
X194203352Y-98787037D02*
X194270696Y-98787037D01*
X194270696Y-98787037D02*
X194371711Y-98820709D01*
X194371711Y-98820709D02*
X194506398Y-98955396D01*
X194506398Y-98955396D02*
X194540070Y-99056411D01*
X194540070Y-99056411D02*
X194540070Y-99123754D01*
X194540070Y-99123754D02*
X194506398Y-99224770D01*
X194506398Y-99224770D02*
X194472726Y-99258441D01*
X194472726Y-99258441D02*
X194371711Y-99292113D01*
X194371711Y-99292113D02*
X194304367Y-99292113D01*
X194304367Y-99292113D02*
X194203352Y-99258441D01*
X194203352Y-99258441D02*
X194068665Y-99123754D01*
X194068665Y-99123754D02*
X193967650Y-99090083D01*
X193967650Y-99090083D02*
X193900306Y-99090083D01*
X193900306Y-99090083D02*
X193799291Y-99123754D01*
X193799291Y-99123754D02*
X193664604Y-99258441D01*
X193664604Y-99258441D02*
X193630932Y-99359457D01*
X193630932Y-99359457D02*
X193630932Y-99426800D01*
X193630932Y-99426800D02*
X193664604Y-99527815D01*
X193664604Y-99527815D02*
X193799291Y-99662502D01*
X193799291Y-99662502D02*
X193900306Y-99696174D01*
X193900306Y-99696174D02*
X193967650Y-99696174D01*
X193967650Y-99696174D02*
X194068665Y-99662502D01*
X194068665Y-99662502D02*
X194203352Y-99527815D01*
X194203352Y-99527815D02*
X194237024Y-99426800D01*
X194237024Y-99426800D02*
X194237024Y-99359457D01*
X194237024Y-99359457D02*
X194203352Y-99258441D01*
X214926666Y-127794819D02*
X214926666Y-128509104D01*
X214926666Y-128509104D02*
X214879047Y-128651961D01*
X214879047Y-128651961D02*
X214783809Y-128747200D01*
X214783809Y-128747200D02*
X214640952Y-128794819D01*
X214640952Y-128794819D02*
X214545714Y-128794819D01*
X215926666Y-128794819D02*
X215355238Y-128794819D01*
X215640952Y-128794819D02*
X215640952Y-127794819D01*
X215640952Y-127794819D02*
X215545714Y-127937676D01*
X215545714Y-127937676D02*
X215450476Y-128032914D01*
X215450476Y-128032914D02*
X215355238Y-128080533D01*
X201849580Y-93712857D02*
X201897200Y-93760476D01*
X201897200Y-93760476D02*
X201944819Y-93903333D01*
X201944819Y-93903333D02*
X201944819Y-93998571D01*
X201944819Y-93998571D02*
X201897200Y-94141428D01*
X201897200Y-94141428D02*
X201801961Y-94236666D01*
X201801961Y-94236666D02*
X201706723Y-94284285D01*
X201706723Y-94284285D02*
X201516247Y-94331904D01*
X201516247Y-94331904D02*
X201373390Y-94331904D01*
X201373390Y-94331904D02*
X201182914Y-94284285D01*
X201182914Y-94284285D02*
X201087676Y-94236666D01*
X201087676Y-94236666D02*
X200992438Y-94141428D01*
X200992438Y-94141428D02*
X200944819Y-93998571D01*
X200944819Y-93998571D02*
X200944819Y-93903333D01*
X200944819Y-93903333D02*
X200992438Y-93760476D01*
X200992438Y-93760476D02*
X201040057Y-93712857D01*
X201944819Y-92760476D02*
X201944819Y-93331904D01*
X201944819Y-93046190D02*
X200944819Y-93046190D01*
X200944819Y-93046190D02*
X201087676Y-93141428D01*
X201087676Y-93141428D02*
X201182914Y-93236666D01*
X201182914Y-93236666D02*
X201230533Y-93331904D01*
X200944819Y-91903333D02*
X200944819Y-92093809D01*
X200944819Y-92093809D02*
X200992438Y-92189047D01*
X200992438Y-92189047D02*
X201040057Y-92236666D01*
X201040057Y-92236666D02*
X201182914Y-92331904D01*
X201182914Y-92331904D02*
X201373390Y-92379523D01*
X201373390Y-92379523D02*
X201754342Y-92379523D01*
X201754342Y-92379523D02*
X201849580Y-92331904D01*
X201849580Y-92331904D02*
X201897200Y-92284285D01*
X201897200Y-92284285D02*
X201944819Y-92189047D01*
X201944819Y-92189047D02*
X201944819Y-91998571D01*
X201944819Y-91998571D02*
X201897200Y-91903333D01*
X201897200Y-91903333D02*
X201849580Y-91855714D01*
X201849580Y-91855714D02*
X201754342Y-91808095D01*
X201754342Y-91808095D02*
X201516247Y-91808095D01*
X201516247Y-91808095D02*
X201421009Y-91855714D01*
X201421009Y-91855714D02*
X201373390Y-91903333D01*
X201373390Y-91903333D02*
X201325771Y-91998571D01*
X201325771Y-91998571D02*
X201325771Y-92189047D01*
X201325771Y-92189047D02*
X201373390Y-92284285D01*
X201373390Y-92284285D02*
X201421009Y-92331904D01*
X201421009Y-92331904D02*
X201516247Y-92379523D01*
X212044819Y-114312857D02*
X211568628Y-114646190D01*
X212044819Y-114884285D02*
X211044819Y-114884285D01*
X211044819Y-114884285D02*
X211044819Y-114503333D01*
X211044819Y-114503333D02*
X211092438Y-114408095D01*
X211092438Y-114408095D02*
X211140057Y-114360476D01*
X211140057Y-114360476D02*
X211235295Y-114312857D01*
X211235295Y-114312857D02*
X211378152Y-114312857D01*
X211378152Y-114312857D02*
X211473390Y-114360476D01*
X211473390Y-114360476D02*
X211521009Y-114408095D01*
X211521009Y-114408095D02*
X211568628Y-114503333D01*
X211568628Y-114503333D02*
X211568628Y-114884285D01*
X212044819Y-113360476D02*
X212044819Y-113931904D01*
X212044819Y-113646190D02*
X211044819Y-113646190D01*
X211044819Y-113646190D02*
X211187676Y-113741428D01*
X211187676Y-113741428D02*
X211282914Y-113836666D01*
X211282914Y-113836666D02*
X211330533Y-113931904D01*
X211044819Y-112741428D02*
X211044819Y-112646190D01*
X211044819Y-112646190D02*
X211092438Y-112550952D01*
X211092438Y-112550952D02*
X211140057Y-112503333D01*
X211140057Y-112503333D02*
X211235295Y-112455714D01*
X211235295Y-112455714D02*
X211425771Y-112408095D01*
X211425771Y-112408095D02*
X211663866Y-112408095D01*
X211663866Y-112408095D02*
X211854342Y-112455714D01*
X211854342Y-112455714D02*
X211949580Y-112503333D01*
X211949580Y-112503333D02*
X211997200Y-112550952D01*
X211997200Y-112550952D02*
X212044819Y-112646190D01*
X212044819Y-112646190D02*
X212044819Y-112741428D01*
X212044819Y-112741428D02*
X211997200Y-112836666D01*
X211997200Y-112836666D02*
X211949580Y-112884285D01*
X211949580Y-112884285D02*
X211854342Y-112931904D01*
X211854342Y-112931904D02*
X211663866Y-112979523D01*
X211663866Y-112979523D02*
X211425771Y-112979523D01*
X211425771Y-112979523D02*
X211235295Y-112931904D01*
X211235295Y-112931904D02*
X211140057Y-112884285D01*
X211140057Y-112884285D02*
X211092438Y-112836666D01*
X211092438Y-112836666D02*
X211044819Y-112741428D01*
X210613333Y-90749580D02*
X210565714Y-90797200D01*
X210565714Y-90797200D02*
X210422857Y-90844819D01*
X210422857Y-90844819D02*
X210327619Y-90844819D01*
X210327619Y-90844819D02*
X210184762Y-90797200D01*
X210184762Y-90797200D02*
X210089524Y-90701961D01*
X210089524Y-90701961D02*
X210041905Y-90606723D01*
X210041905Y-90606723D02*
X209994286Y-90416247D01*
X209994286Y-90416247D02*
X209994286Y-90273390D01*
X209994286Y-90273390D02*
X210041905Y-90082914D01*
X210041905Y-90082914D02*
X210089524Y-89987676D01*
X210089524Y-89987676D02*
X210184762Y-89892438D01*
X210184762Y-89892438D02*
X210327619Y-89844819D01*
X210327619Y-89844819D02*
X210422857Y-89844819D01*
X210422857Y-89844819D02*
X210565714Y-89892438D01*
X210565714Y-89892438D02*
X210613333Y-89940057D01*
X210946667Y-89844819D02*
X211565714Y-89844819D01*
X211565714Y-89844819D02*
X211232381Y-90225771D01*
X211232381Y-90225771D02*
X211375238Y-90225771D01*
X211375238Y-90225771D02*
X211470476Y-90273390D01*
X211470476Y-90273390D02*
X211518095Y-90321009D01*
X211518095Y-90321009D02*
X211565714Y-90416247D01*
X211565714Y-90416247D02*
X211565714Y-90654342D01*
X211565714Y-90654342D02*
X211518095Y-90749580D01*
X211518095Y-90749580D02*
X211470476Y-90797200D01*
X211470476Y-90797200D02*
X211375238Y-90844819D01*
X211375238Y-90844819D02*
X211089524Y-90844819D01*
X211089524Y-90844819D02*
X210994286Y-90797200D01*
X210994286Y-90797200D02*
X210946667Y-90749580D01*
X200817142Y-111799580D02*
X200769523Y-111847200D01*
X200769523Y-111847200D02*
X200626666Y-111894819D01*
X200626666Y-111894819D02*
X200531428Y-111894819D01*
X200531428Y-111894819D02*
X200388571Y-111847200D01*
X200388571Y-111847200D02*
X200293333Y-111751961D01*
X200293333Y-111751961D02*
X200245714Y-111656723D01*
X200245714Y-111656723D02*
X200198095Y-111466247D01*
X200198095Y-111466247D02*
X200198095Y-111323390D01*
X200198095Y-111323390D02*
X200245714Y-111132914D01*
X200245714Y-111132914D02*
X200293333Y-111037676D01*
X200293333Y-111037676D02*
X200388571Y-110942438D01*
X200388571Y-110942438D02*
X200531428Y-110894819D01*
X200531428Y-110894819D02*
X200626666Y-110894819D01*
X200626666Y-110894819D02*
X200769523Y-110942438D01*
X200769523Y-110942438D02*
X200817142Y-110990057D01*
X201769523Y-111894819D02*
X201198095Y-111894819D01*
X201483809Y-111894819D02*
X201483809Y-110894819D01*
X201483809Y-110894819D02*
X201388571Y-111037676D01*
X201388571Y-111037676D02*
X201293333Y-111132914D01*
X201293333Y-111132914D02*
X201198095Y-111180533D01*
X202626666Y-111228152D02*
X202626666Y-111894819D01*
X202388571Y-110847200D02*
X202150476Y-111561485D01*
X202150476Y-111561485D02*
X202769523Y-111561485D01*
X194367887Y-97986411D02*
X194300543Y-97986411D01*
X194300543Y-97986411D02*
X194165856Y-97919067D01*
X194165856Y-97919067D02*
X194098513Y-97851724D01*
X194098513Y-97851724D02*
X194031169Y-97717037D01*
X194031169Y-97717037D02*
X194031169Y-97582350D01*
X194031169Y-97582350D02*
X194064841Y-97481335D01*
X194064841Y-97481335D02*
X194165856Y-97312976D01*
X194165856Y-97312976D02*
X194266871Y-97211961D01*
X194266871Y-97211961D02*
X194435230Y-97110945D01*
X194435230Y-97110945D02*
X194536245Y-97077274D01*
X194536245Y-97077274D02*
X194670932Y-97077274D01*
X194670932Y-97077274D02*
X194805619Y-97144617D01*
X194805619Y-97144617D02*
X194872963Y-97211961D01*
X194872963Y-97211961D02*
X194940306Y-97346648D01*
X194940306Y-97346648D02*
X194940306Y-97413991D01*
X194637261Y-98390472D02*
X194771948Y-98525159D01*
X194771948Y-98525159D02*
X194872963Y-98558831D01*
X194872963Y-98558831D02*
X194940306Y-98558831D01*
X194940306Y-98558831D02*
X195108665Y-98525159D01*
X195108665Y-98525159D02*
X195277024Y-98424144D01*
X195277024Y-98424144D02*
X195546398Y-98154770D01*
X195546398Y-98154770D02*
X195580070Y-98053754D01*
X195580070Y-98053754D02*
X195580070Y-97986411D01*
X195580070Y-97986411D02*
X195546398Y-97885396D01*
X195546398Y-97885396D02*
X195411711Y-97750709D01*
X195411711Y-97750709D02*
X195310696Y-97717037D01*
X195310696Y-97717037D02*
X195243352Y-97717037D01*
X195243352Y-97717037D02*
X195142337Y-97750709D01*
X195142337Y-97750709D02*
X194973978Y-97919067D01*
X194973978Y-97919067D02*
X194940306Y-98020083D01*
X194940306Y-98020083D02*
X194940306Y-98087426D01*
X194940306Y-98087426D02*
X194973978Y-98188441D01*
X194973978Y-98188441D02*
X195108665Y-98323128D01*
X195108665Y-98323128D02*
X195209680Y-98356800D01*
X195209680Y-98356800D02*
X195277024Y-98356800D01*
X195277024Y-98356800D02*
X195378039Y-98323128D01*
X179887142Y-67524819D02*
X179553809Y-67048628D01*
X179315714Y-67524819D02*
X179315714Y-66524819D01*
X179315714Y-66524819D02*
X179696666Y-66524819D01*
X179696666Y-66524819D02*
X179791904Y-66572438D01*
X179791904Y-66572438D02*
X179839523Y-66620057D01*
X179839523Y-66620057D02*
X179887142Y-66715295D01*
X179887142Y-66715295D02*
X179887142Y-66858152D01*
X179887142Y-66858152D02*
X179839523Y-66953390D01*
X179839523Y-66953390D02*
X179791904Y-67001009D01*
X179791904Y-67001009D02*
X179696666Y-67048628D01*
X179696666Y-67048628D02*
X179315714Y-67048628D01*
X180839523Y-67524819D02*
X180268095Y-67524819D01*
X180553809Y-67524819D02*
X180553809Y-66524819D01*
X180553809Y-66524819D02*
X180458571Y-66667676D01*
X180458571Y-66667676D02*
X180363333Y-66762914D01*
X180363333Y-66762914D02*
X180268095Y-66810533D01*
X181172857Y-66524819D02*
X181839523Y-66524819D01*
X181839523Y-66524819D02*
X181410952Y-67524819D01*
X205887142Y-75209580D02*
X205839523Y-75257200D01*
X205839523Y-75257200D02*
X205696666Y-75304819D01*
X205696666Y-75304819D02*
X205601428Y-75304819D01*
X205601428Y-75304819D02*
X205458571Y-75257200D01*
X205458571Y-75257200D02*
X205363333Y-75161961D01*
X205363333Y-75161961D02*
X205315714Y-75066723D01*
X205315714Y-75066723D02*
X205268095Y-74876247D01*
X205268095Y-74876247D02*
X205268095Y-74733390D01*
X205268095Y-74733390D02*
X205315714Y-74542914D01*
X205315714Y-74542914D02*
X205363333Y-74447676D01*
X205363333Y-74447676D02*
X205458571Y-74352438D01*
X205458571Y-74352438D02*
X205601428Y-74304819D01*
X205601428Y-74304819D02*
X205696666Y-74304819D01*
X205696666Y-74304819D02*
X205839523Y-74352438D01*
X205839523Y-74352438D02*
X205887142Y-74400057D01*
X206220476Y-74304819D02*
X206839523Y-74304819D01*
X206839523Y-74304819D02*
X206506190Y-74685771D01*
X206506190Y-74685771D02*
X206649047Y-74685771D01*
X206649047Y-74685771D02*
X206744285Y-74733390D01*
X206744285Y-74733390D02*
X206791904Y-74781009D01*
X206791904Y-74781009D02*
X206839523Y-74876247D01*
X206839523Y-74876247D02*
X206839523Y-75114342D01*
X206839523Y-75114342D02*
X206791904Y-75209580D01*
X206791904Y-75209580D02*
X206744285Y-75257200D01*
X206744285Y-75257200D02*
X206649047Y-75304819D01*
X206649047Y-75304819D02*
X206363333Y-75304819D01*
X206363333Y-75304819D02*
X206268095Y-75257200D01*
X206268095Y-75257200D02*
X206220476Y-75209580D01*
X207458571Y-74304819D02*
X207553809Y-74304819D01*
X207553809Y-74304819D02*
X207649047Y-74352438D01*
X207649047Y-74352438D02*
X207696666Y-74400057D01*
X207696666Y-74400057D02*
X207744285Y-74495295D01*
X207744285Y-74495295D02*
X207791904Y-74685771D01*
X207791904Y-74685771D02*
X207791904Y-74923866D01*
X207791904Y-74923866D02*
X207744285Y-75114342D01*
X207744285Y-75114342D02*
X207696666Y-75209580D01*
X207696666Y-75209580D02*
X207649047Y-75257200D01*
X207649047Y-75257200D02*
X207553809Y-75304819D01*
X207553809Y-75304819D02*
X207458571Y-75304819D01*
X207458571Y-75304819D02*
X207363333Y-75257200D01*
X207363333Y-75257200D02*
X207315714Y-75209580D01*
X207315714Y-75209580D02*
X207268095Y-75114342D01*
X207268095Y-75114342D02*
X207220476Y-74923866D01*
X207220476Y-74923866D02*
X207220476Y-74685771D01*
X207220476Y-74685771D02*
X207268095Y-74495295D01*
X207268095Y-74495295D02*
X207315714Y-74400057D01*
X207315714Y-74400057D02*
X207363333Y-74352438D01*
X207363333Y-74352438D02*
X207458571Y-74304819D01*
X179974819Y-63376904D02*
X180784342Y-63376904D01*
X180784342Y-63376904D02*
X180879580Y-63329285D01*
X180879580Y-63329285D02*
X180927200Y-63281666D01*
X180927200Y-63281666D02*
X180974819Y-63186428D01*
X180974819Y-63186428D02*
X180974819Y-62995952D01*
X180974819Y-62995952D02*
X180927200Y-62900714D01*
X180927200Y-62900714D02*
X180879580Y-62853095D01*
X180879580Y-62853095D02*
X180784342Y-62805476D01*
X180784342Y-62805476D02*
X179974819Y-62805476D01*
X179974819Y-61900714D02*
X179974819Y-62091190D01*
X179974819Y-62091190D02*
X180022438Y-62186428D01*
X180022438Y-62186428D02*
X180070057Y-62234047D01*
X180070057Y-62234047D02*
X180212914Y-62329285D01*
X180212914Y-62329285D02*
X180403390Y-62376904D01*
X180403390Y-62376904D02*
X180784342Y-62376904D01*
X180784342Y-62376904D02*
X180879580Y-62329285D01*
X180879580Y-62329285D02*
X180927200Y-62281666D01*
X180927200Y-62281666D02*
X180974819Y-62186428D01*
X180974819Y-62186428D02*
X180974819Y-61995952D01*
X180974819Y-61995952D02*
X180927200Y-61900714D01*
X180927200Y-61900714D02*
X180879580Y-61853095D01*
X180879580Y-61853095D02*
X180784342Y-61805476D01*
X180784342Y-61805476D02*
X180546247Y-61805476D01*
X180546247Y-61805476D02*
X180451009Y-61853095D01*
X180451009Y-61853095D02*
X180403390Y-61900714D01*
X180403390Y-61900714D02*
X180355771Y-61995952D01*
X180355771Y-61995952D02*
X180355771Y-62186428D01*
X180355771Y-62186428D02*
X180403390Y-62281666D01*
X180403390Y-62281666D02*
X180451009Y-62329285D01*
X180451009Y-62329285D02*
X180546247Y-62376904D01*
X210725068Y-88740303D02*
X210772688Y-88787922D01*
X210772688Y-88787922D02*
X210820307Y-88930779D01*
X210820307Y-88930779D02*
X210820307Y-89026017D01*
X210820307Y-89026017D02*
X210772688Y-89168874D01*
X210772688Y-89168874D02*
X210677449Y-89264112D01*
X210677449Y-89264112D02*
X210582211Y-89311731D01*
X210582211Y-89311731D02*
X210391735Y-89359350D01*
X210391735Y-89359350D02*
X210248878Y-89359350D01*
X210248878Y-89359350D02*
X210058402Y-89311731D01*
X210058402Y-89311731D02*
X209963164Y-89264112D01*
X209963164Y-89264112D02*
X209867926Y-89168874D01*
X209867926Y-89168874D02*
X209820307Y-89026017D01*
X209820307Y-89026017D02*
X209820307Y-88930779D01*
X209820307Y-88930779D02*
X209867926Y-88787922D01*
X209867926Y-88787922D02*
X209915545Y-88740303D01*
X210820307Y-87787922D02*
X210820307Y-88359350D01*
X210820307Y-88073636D02*
X209820307Y-88073636D01*
X209820307Y-88073636D02*
X209963164Y-88168874D01*
X209963164Y-88168874D02*
X210058402Y-88264112D01*
X210058402Y-88264112D02*
X210106021Y-88359350D01*
X209820307Y-87168874D02*
X209820307Y-87073636D01*
X209820307Y-87073636D02*
X209867926Y-86978398D01*
X209867926Y-86978398D02*
X209915545Y-86930779D01*
X209915545Y-86930779D02*
X210010783Y-86883160D01*
X210010783Y-86883160D02*
X210201259Y-86835541D01*
X210201259Y-86835541D02*
X210439354Y-86835541D01*
X210439354Y-86835541D02*
X210629830Y-86883160D01*
X210629830Y-86883160D02*
X210725068Y-86930779D01*
X210725068Y-86930779D02*
X210772688Y-86978398D01*
X210772688Y-86978398D02*
X210820307Y-87073636D01*
X210820307Y-87073636D02*
X210820307Y-87168874D01*
X210820307Y-87168874D02*
X210772688Y-87264112D01*
X210772688Y-87264112D02*
X210725068Y-87311731D01*
X210725068Y-87311731D02*
X210629830Y-87359350D01*
X210629830Y-87359350D02*
X210439354Y-87406969D01*
X210439354Y-87406969D02*
X210201259Y-87406969D01*
X210201259Y-87406969D02*
X210010783Y-87359350D01*
X210010783Y-87359350D02*
X209915545Y-87311731D01*
X209915545Y-87311731D02*
X209867926Y-87264112D01*
X209867926Y-87264112D02*
X209820307Y-87168874D01*
X231837142Y-87549580D02*
X231789523Y-87597200D01*
X231789523Y-87597200D02*
X231646666Y-87644819D01*
X231646666Y-87644819D02*
X231551428Y-87644819D01*
X231551428Y-87644819D02*
X231408571Y-87597200D01*
X231408571Y-87597200D02*
X231313333Y-87501961D01*
X231313333Y-87501961D02*
X231265714Y-87406723D01*
X231265714Y-87406723D02*
X231218095Y-87216247D01*
X231218095Y-87216247D02*
X231218095Y-87073390D01*
X231218095Y-87073390D02*
X231265714Y-86882914D01*
X231265714Y-86882914D02*
X231313333Y-86787676D01*
X231313333Y-86787676D02*
X231408571Y-86692438D01*
X231408571Y-86692438D02*
X231551428Y-86644819D01*
X231551428Y-86644819D02*
X231646666Y-86644819D01*
X231646666Y-86644819D02*
X231789523Y-86692438D01*
X231789523Y-86692438D02*
X231837142Y-86740057D01*
X232218095Y-86740057D02*
X232265714Y-86692438D01*
X232265714Y-86692438D02*
X232360952Y-86644819D01*
X232360952Y-86644819D02*
X232599047Y-86644819D01*
X232599047Y-86644819D02*
X232694285Y-86692438D01*
X232694285Y-86692438D02*
X232741904Y-86740057D01*
X232741904Y-86740057D02*
X232789523Y-86835295D01*
X232789523Y-86835295D02*
X232789523Y-86930533D01*
X232789523Y-86930533D02*
X232741904Y-87073390D01*
X232741904Y-87073390D02*
X232170476Y-87644819D01*
X232170476Y-87644819D02*
X232789523Y-87644819D01*
X233646666Y-86644819D02*
X233456190Y-86644819D01*
X233456190Y-86644819D02*
X233360952Y-86692438D01*
X233360952Y-86692438D02*
X233313333Y-86740057D01*
X233313333Y-86740057D02*
X233218095Y-86882914D01*
X233218095Y-86882914D02*
X233170476Y-87073390D01*
X233170476Y-87073390D02*
X233170476Y-87454342D01*
X233170476Y-87454342D02*
X233218095Y-87549580D01*
X233218095Y-87549580D02*
X233265714Y-87597200D01*
X233265714Y-87597200D02*
X233360952Y-87644819D01*
X233360952Y-87644819D02*
X233551428Y-87644819D01*
X233551428Y-87644819D02*
X233646666Y-87597200D01*
X233646666Y-87597200D02*
X233694285Y-87549580D01*
X233694285Y-87549580D02*
X233741904Y-87454342D01*
X233741904Y-87454342D02*
X233741904Y-87216247D01*
X233741904Y-87216247D02*
X233694285Y-87121009D01*
X233694285Y-87121009D02*
X233646666Y-87073390D01*
X233646666Y-87073390D02*
X233551428Y-87025771D01*
X233551428Y-87025771D02*
X233360952Y-87025771D01*
X233360952Y-87025771D02*
X233265714Y-87073390D01*
X233265714Y-87073390D02*
X233218095Y-87121009D01*
X233218095Y-87121009D02*
X233170476Y-87216247D01*
X217234819Y-86516666D02*
X216758628Y-86849999D01*
X217234819Y-87088094D02*
X216234819Y-87088094D01*
X216234819Y-87088094D02*
X216234819Y-86707142D01*
X216234819Y-86707142D02*
X216282438Y-86611904D01*
X216282438Y-86611904D02*
X216330057Y-86564285D01*
X216330057Y-86564285D02*
X216425295Y-86516666D01*
X216425295Y-86516666D02*
X216568152Y-86516666D01*
X216568152Y-86516666D02*
X216663390Y-86564285D01*
X216663390Y-86564285D02*
X216711009Y-86611904D01*
X216711009Y-86611904D02*
X216758628Y-86707142D01*
X216758628Y-86707142D02*
X216758628Y-87088094D01*
X216234819Y-86183332D02*
X216234819Y-85564285D01*
X216234819Y-85564285D02*
X216615771Y-85897618D01*
X216615771Y-85897618D02*
X216615771Y-85754761D01*
X216615771Y-85754761D02*
X216663390Y-85659523D01*
X216663390Y-85659523D02*
X216711009Y-85611904D01*
X216711009Y-85611904D02*
X216806247Y-85564285D01*
X216806247Y-85564285D02*
X217044342Y-85564285D01*
X217044342Y-85564285D02*
X217139580Y-85611904D01*
X217139580Y-85611904D02*
X217187200Y-85659523D01*
X217187200Y-85659523D02*
X217234819Y-85754761D01*
X217234819Y-85754761D02*
X217234819Y-86040475D01*
X217234819Y-86040475D02*
X217187200Y-86135713D01*
X217187200Y-86135713D02*
X217139580Y-86183332D01*
X207823333Y-93669580D02*
X207775714Y-93717200D01*
X207775714Y-93717200D02*
X207632857Y-93764819D01*
X207632857Y-93764819D02*
X207537619Y-93764819D01*
X207537619Y-93764819D02*
X207394762Y-93717200D01*
X207394762Y-93717200D02*
X207299524Y-93621961D01*
X207299524Y-93621961D02*
X207251905Y-93526723D01*
X207251905Y-93526723D02*
X207204286Y-93336247D01*
X207204286Y-93336247D02*
X207204286Y-93193390D01*
X207204286Y-93193390D02*
X207251905Y-93002914D01*
X207251905Y-93002914D02*
X207299524Y-92907676D01*
X207299524Y-92907676D02*
X207394762Y-92812438D01*
X207394762Y-92812438D02*
X207537619Y-92764819D01*
X207537619Y-92764819D02*
X207632857Y-92764819D01*
X207632857Y-92764819D02*
X207775714Y-92812438D01*
X207775714Y-92812438D02*
X207823333Y-92860057D01*
X208680476Y-93098152D02*
X208680476Y-93764819D01*
X208442381Y-92717200D02*
X208204286Y-93431485D01*
X208204286Y-93431485D02*
X208823333Y-93431485D01*
X223598095Y-85929819D02*
X223598095Y-86739342D01*
X223598095Y-86739342D02*
X223645714Y-86834580D01*
X223645714Y-86834580D02*
X223693333Y-86882200D01*
X223693333Y-86882200D02*
X223788571Y-86929819D01*
X223788571Y-86929819D02*
X223979047Y-86929819D01*
X223979047Y-86929819D02*
X224074285Y-86882200D01*
X224074285Y-86882200D02*
X224121904Y-86834580D01*
X224121904Y-86834580D02*
X224169523Y-86739342D01*
X224169523Y-86739342D02*
X224169523Y-85929819D01*
X224788571Y-86358390D02*
X224693333Y-86310771D01*
X224693333Y-86310771D02*
X224645714Y-86263152D01*
X224645714Y-86263152D02*
X224598095Y-86167914D01*
X224598095Y-86167914D02*
X224598095Y-86120295D01*
X224598095Y-86120295D02*
X224645714Y-86025057D01*
X224645714Y-86025057D02*
X224693333Y-85977438D01*
X224693333Y-85977438D02*
X224788571Y-85929819D01*
X224788571Y-85929819D02*
X224979047Y-85929819D01*
X224979047Y-85929819D02*
X225074285Y-85977438D01*
X225074285Y-85977438D02*
X225121904Y-86025057D01*
X225121904Y-86025057D02*
X225169523Y-86120295D01*
X225169523Y-86120295D02*
X225169523Y-86167914D01*
X225169523Y-86167914D02*
X225121904Y-86263152D01*
X225121904Y-86263152D02*
X225074285Y-86310771D01*
X225074285Y-86310771D02*
X224979047Y-86358390D01*
X224979047Y-86358390D02*
X224788571Y-86358390D01*
X224788571Y-86358390D02*
X224693333Y-86406009D01*
X224693333Y-86406009D02*
X224645714Y-86453628D01*
X224645714Y-86453628D02*
X224598095Y-86548866D01*
X224598095Y-86548866D02*
X224598095Y-86739342D01*
X224598095Y-86739342D02*
X224645714Y-86834580D01*
X224645714Y-86834580D02*
X224693333Y-86882200D01*
X224693333Y-86882200D02*
X224788571Y-86929819D01*
X224788571Y-86929819D02*
X224979047Y-86929819D01*
X224979047Y-86929819D02*
X225074285Y-86882200D01*
X225074285Y-86882200D02*
X225121904Y-86834580D01*
X225121904Y-86834580D02*
X225169523Y-86739342D01*
X225169523Y-86739342D02*
X225169523Y-86548866D01*
X225169523Y-86548866D02*
X225121904Y-86453628D01*
X225121904Y-86453628D02*
X225074285Y-86406009D01*
X225074285Y-86406009D02*
X224979047Y-86358390D01*
X230504819Y-120586666D02*
X230028628Y-120919999D01*
X230504819Y-121158094D02*
X229504819Y-121158094D01*
X229504819Y-121158094D02*
X229504819Y-120777142D01*
X229504819Y-120777142D02*
X229552438Y-120681904D01*
X229552438Y-120681904D02*
X229600057Y-120634285D01*
X229600057Y-120634285D02*
X229695295Y-120586666D01*
X229695295Y-120586666D02*
X229838152Y-120586666D01*
X229838152Y-120586666D02*
X229933390Y-120634285D01*
X229933390Y-120634285D02*
X229981009Y-120681904D01*
X229981009Y-120681904D02*
X230028628Y-120777142D01*
X230028628Y-120777142D02*
X230028628Y-121158094D01*
X229838152Y-119729523D02*
X230504819Y-119729523D01*
X229457200Y-119967618D02*
X230171485Y-120205713D01*
X230171485Y-120205713D02*
X230171485Y-119586666D01*
X180067142Y-70904819D02*
X179733809Y-70428628D01*
X179495714Y-70904819D02*
X179495714Y-69904819D01*
X179495714Y-69904819D02*
X179876666Y-69904819D01*
X179876666Y-69904819D02*
X179971904Y-69952438D01*
X179971904Y-69952438D02*
X180019523Y-70000057D01*
X180019523Y-70000057D02*
X180067142Y-70095295D01*
X180067142Y-70095295D02*
X180067142Y-70238152D01*
X180067142Y-70238152D02*
X180019523Y-70333390D01*
X180019523Y-70333390D02*
X179971904Y-70381009D01*
X179971904Y-70381009D02*
X179876666Y-70428628D01*
X179876666Y-70428628D02*
X179495714Y-70428628D01*
X181019523Y-70904819D02*
X180448095Y-70904819D01*
X180733809Y-70904819D02*
X180733809Y-69904819D01*
X180733809Y-69904819D02*
X180638571Y-70047676D01*
X180638571Y-70047676D02*
X180543333Y-70142914D01*
X180543333Y-70142914D02*
X180448095Y-70190533D01*
X181876666Y-69904819D02*
X181686190Y-69904819D01*
X181686190Y-69904819D02*
X181590952Y-69952438D01*
X181590952Y-69952438D02*
X181543333Y-70000057D01*
X181543333Y-70000057D02*
X181448095Y-70142914D01*
X181448095Y-70142914D02*
X181400476Y-70333390D01*
X181400476Y-70333390D02*
X181400476Y-70714342D01*
X181400476Y-70714342D02*
X181448095Y-70809580D01*
X181448095Y-70809580D02*
X181495714Y-70857200D01*
X181495714Y-70857200D02*
X181590952Y-70904819D01*
X181590952Y-70904819D02*
X181781428Y-70904819D01*
X181781428Y-70904819D02*
X181876666Y-70857200D01*
X181876666Y-70857200D02*
X181924285Y-70809580D01*
X181924285Y-70809580D02*
X181971904Y-70714342D01*
X181971904Y-70714342D02*
X181971904Y-70476247D01*
X181971904Y-70476247D02*
X181924285Y-70381009D01*
X181924285Y-70381009D02*
X181876666Y-70333390D01*
X181876666Y-70333390D02*
X181781428Y-70285771D01*
X181781428Y-70285771D02*
X181590952Y-70285771D01*
X181590952Y-70285771D02*
X181495714Y-70333390D01*
X181495714Y-70333390D02*
X181448095Y-70381009D01*
X181448095Y-70381009D02*
X181400476Y-70476247D01*
X234574819Y-119891904D02*
X235384342Y-119891904D01*
X235384342Y-119891904D02*
X235479580Y-119844285D01*
X235479580Y-119844285D02*
X235527200Y-119796666D01*
X235527200Y-119796666D02*
X235574819Y-119701428D01*
X235574819Y-119701428D02*
X235574819Y-119510952D01*
X235574819Y-119510952D02*
X235527200Y-119415714D01*
X235527200Y-119415714D02*
X235479580Y-119368095D01*
X235479580Y-119368095D02*
X235384342Y-119320476D01*
X235384342Y-119320476D02*
X234574819Y-119320476D01*
X234908152Y-118415714D02*
X235574819Y-118415714D01*
X234527200Y-118653809D02*
X235241485Y-118891904D01*
X235241485Y-118891904D02*
X235241485Y-118272857D01*
X218034819Y-120196666D02*
X217558628Y-120529999D01*
X218034819Y-120768094D02*
X217034819Y-120768094D01*
X217034819Y-120768094D02*
X217034819Y-120387142D01*
X217034819Y-120387142D02*
X217082438Y-120291904D01*
X217082438Y-120291904D02*
X217130057Y-120244285D01*
X217130057Y-120244285D02*
X217225295Y-120196666D01*
X217225295Y-120196666D02*
X217368152Y-120196666D01*
X217368152Y-120196666D02*
X217463390Y-120244285D01*
X217463390Y-120244285D02*
X217511009Y-120291904D01*
X217511009Y-120291904D02*
X217558628Y-120387142D01*
X217558628Y-120387142D02*
X217558628Y-120768094D01*
X218034819Y-119244285D02*
X218034819Y-119815713D01*
X218034819Y-119529999D02*
X217034819Y-119529999D01*
X217034819Y-119529999D02*
X217177676Y-119625237D01*
X217177676Y-119625237D02*
X217272914Y-119720475D01*
X217272914Y-119720475D02*
X217320533Y-119815713D01*
X227004819Y-120696666D02*
X226528628Y-121029999D01*
X227004819Y-121268094D02*
X226004819Y-121268094D01*
X226004819Y-121268094D02*
X226004819Y-120887142D01*
X226004819Y-120887142D02*
X226052438Y-120791904D01*
X226052438Y-120791904D02*
X226100057Y-120744285D01*
X226100057Y-120744285D02*
X226195295Y-120696666D01*
X226195295Y-120696666D02*
X226338152Y-120696666D01*
X226338152Y-120696666D02*
X226433390Y-120744285D01*
X226433390Y-120744285D02*
X226481009Y-120791904D01*
X226481009Y-120791904D02*
X226528628Y-120887142D01*
X226528628Y-120887142D02*
X226528628Y-121268094D01*
X226004819Y-119791904D02*
X226004819Y-120268094D01*
X226004819Y-120268094D02*
X226481009Y-120315713D01*
X226481009Y-120315713D02*
X226433390Y-120268094D01*
X226433390Y-120268094D02*
X226385771Y-120172856D01*
X226385771Y-120172856D02*
X226385771Y-119934761D01*
X226385771Y-119934761D02*
X226433390Y-119839523D01*
X226433390Y-119839523D02*
X226481009Y-119791904D01*
X226481009Y-119791904D02*
X226576247Y-119744285D01*
X226576247Y-119744285D02*
X226814342Y-119744285D01*
X226814342Y-119744285D02*
X226909580Y-119791904D01*
X226909580Y-119791904D02*
X226957200Y-119839523D01*
X226957200Y-119839523D02*
X227004819Y-119934761D01*
X227004819Y-119934761D02*
X227004819Y-120172856D01*
X227004819Y-120172856D02*
X226957200Y-120268094D01*
X226957200Y-120268094D02*
X226909580Y-120315713D01*
X192651905Y-72964819D02*
X192651905Y-73774342D01*
X192651905Y-73774342D02*
X192699524Y-73869580D01*
X192699524Y-73869580D02*
X192747143Y-73917200D01*
X192747143Y-73917200D02*
X192842381Y-73964819D01*
X192842381Y-73964819D02*
X193032857Y-73964819D01*
X193032857Y-73964819D02*
X193128095Y-73917200D01*
X193128095Y-73917200D02*
X193175714Y-73869580D01*
X193175714Y-73869580D02*
X193223333Y-73774342D01*
X193223333Y-73774342D02*
X193223333Y-72964819D01*
X194223333Y-73964819D02*
X193651905Y-73964819D01*
X193937619Y-73964819D02*
X193937619Y-72964819D01*
X193937619Y-72964819D02*
X193842381Y-73107676D01*
X193842381Y-73107676D02*
X193747143Y-73202914D01*
X193747143Y-73202914D02*
X193651905Y-73250533D01*
X194842381Y-72964819D02*
X194937619Y-72964819D01*
X194937619Y-72964819D02*
X195032857Y-73012438D01*
X195032857Y-73012438D02*
X195080476Y-73060057D01*
X195080476Y-73060057D02*
X195128095Y-73155295D01*
X195128095Y-73155295D02*
X195175714Y-73345771D01*
X195175714Y-73345771D02*
X195175714Y-73583866D01*
X195175714Y-73583866D02*
X195128095Y-73774342D01*
X195128095Y-73774342D02*
X195080476Y-73869580D01*
X195080476Y-73869580D02*
X195032857Y-73917200D01*
X195032857Y-73917200D02*
X194937619Y-73964819D01*
X194937619Y-73964819D02*
X194842381Y-73964819D01*
X194842381Y-73964819D02*
X194747143Y-73917200D01*
X194747143Y-73917200D02*
X194699524Y-73869580D01*
X194699524Y-73869580D02*
X194651905Y-73774342D01*
X194651905Y-73774342D02*
X194604286Y-73583866D01*
X194604286Y-73583866D02*
X194604286Y-73345771D01*
X194604286Y-73345771D02*
X194651905Y-73155295D01*
X194651905Y-73155295D02*
X194699524Y-73060057D01*
X194699524Y-73060057D02*
X194747143Y-73012438D01*
X194747143Y-73012438D02*
X194842381Y-72964819D01*
X223558095Y-80504819D02*
X223558095Y-81314342D01*
X223558095Y-81314342D02*
X223605714Y-81409580D01*
X223605714Y-81409580D02*
X223653333Y-81457200D01*
X223653333Y-81457200D02*
X223748571Y-81504819D01*
X223748571Y-81504819D02*
X223939047Y-81504819D01*
X223939047Y-81504819D02*
X224034285Y-81457200D01*
X224034285Y-81457200D02*
X224081904Y-81409580D01*
X224081904Y-81409580D02*
X224129523Y-81314342D01*
X224129523Y-81314342D02*
X224129523Y-80504819D01*
X224510476Y-80504819D02*
X225177142Y-80504819D01*
X225177142Y-80504819D02*
X224748571Y-81504819D01*
X204474819Y-90956666D02*
X203998628Y-91289999D01*
X204474819Y-91528094D02*
X203474819Y-91528094D01*
X203474819Y-91528094D02*
X203474819Y-91147142D01*
X203474819Y-91147142D02*
X203522438Y-91051904D01*
X203522438Y-91051904D02*
X203570057Y-91004285D01*
X203570057Y-91004285D02*
X203665295Y-90956666D01*
X203665295Y-90956666D02*
X203808152Y-90956666D01*
X203808152Y-90956666D02*
X203903390Y-91004285D01*
X203903390Y-91004285D02*
X203951009Y-91051904D01*
X203951009Y-91051904D02*
X203998628Y-91147142D01*
X203998628Y-91147142D02*
X203998628Y-91528094D01*
X204474819Y-90480475D02*
X204474819Y-90289999D01*
X204474819Y-90289999D02*
X204427200Y-90194761D01*
X204427200Y-90194761D02*
X204379580Y-90147142D01*
X204379580Y-90147142D02*
X204236723Y-90051904D01*
X204236723Y-90051904D02*
X204046247Y-90004285D01*
X204046247Y-90004285D02*
X203665295Y-90004285D01*
X203665295Y-90004285D02*
X203570057Y-90051904D01*
X203570057Y-90051904D02*
X203522438Y-90099523D01*
X203522438Y-90099523D02*
X203474819Y-90194761D01*
X203474819Y-90194761D02*
X203474819Y-90385237D01*
X203474819Y-90385237D02*
X203522438Y-90480475D01*
X203522438Y-90480475D02*
X203570057Y-90528094D01*
X203570057Y-90528094D02*
X203665295Y-90575713D01*
X203665295Y-90575713D02*
X203903390Y-90575713D01*
X203903390Y-90575713D02*
X203998628Y-90528094D01*
X203998628Y-90528094D02*
X204046247Y-90480475D01*
X204046247Y-90480475D02*
X204093866Y-90385237D01*
X204093866Y-90385237D02*
X204093866Y-90194761D01*
X204093866Y-90194761D02*
X204046247Y-90099523D01*
X204046247Y-90099523D02*
X203998628Y-90051904D01*
X203998628Y-90051904D02*
X203903390Y-90004285D01*
D11*
X184682795Y-61543333D02*
X184743271Y-61361904D01*
X184743271Y-61361904D02*
X184743271Y-61059523D01*
X184743271Y-61059523D02*
X184682795Y-60938571D01*
X184682795Y-60938571D02*
X184622318Y-60878095D01*
X184622318Y-60878095D02*
X184501366Y-60817618D01*
X184501366Y-60817618D02*
X184380414Y-60817618D01*
X184380414Y-60817618D02*
X184259461Y-60878095D01*
X184259461Y-60878095D02*
X184198985Y-60938571D01*
X184198985Y-60938571D02*
X184138509Y-61059523D01*
X184138509Y-61059523D02*
X184078033Y-61301428D01*
X184078033Y-61301428D02*
X184017556Y-61422380D01*
X184017556Y-61422380D02*
X183957080Y-61482857D01*
X183957080Y-61482857D02*
X183836128Y-61543333D01*
X183836128Y-61543333D02*
X183715175Y-61543333D01*
X183715175Y-61543333D02*
X183594223Y-61482857D01*
X183594223Y-61482857D02*
X183533747Y-61422380D01*
X183533747Y-61422380D02*
X183473271Y-61301428D01*
X183473271Y-61301428D02*
X183473271Y-60999047D01*
X183473271Y-60999047D02*
X183533747Y-60817618D01*
X183473271Y-60394285D02*
X184743271Y-60091904D01*
X184743271Y-60091904D02*
X183836128Y-59849999D01*
X183836128Y-59849999D02*
X184743271Y-59608094D01*
X184743271Y-59608094D02*
X183473271Y-59305714D01*
X183896604Y-58277618D02*
X184743271Y-58277618D01*
X183412795Y-58579999D02*
X184319937Y-58882380D01*
X184319937Y-58882380D02*
X184319937Y-58096189D01*
D10*
X218113333Y-117064819D02*
X217780000Y-116588628D01*
X217541905Y-117064819D02*
X217541905Y-116064819D01*
X217541905Y-116064819D02*
X217922857Y-116064819D01*
X217922857Y-116064819D02*
X218018095Y-116112438D01*
X218018095Y-116112438D02*
X218065714Y-116160057D01*
X218065714Y-116160057D02*
X218113333Y-116255295D01*
X218113333Y-116255295D02*
X218113333Y-116398152D01*
X218113333Y-116398152D02*
X218065714Y-116493390D01*
X218065714Y-116493390D02*
X218018095Y-116541009D01*
X218018095Y-116541009D02*
X217922857Y-116588628D01*
X217922857Y-116588628D02*
X217541905Y-116588628D01*
X218970476Y-116064819D02*
X218780000Y-116064819D01*
X218780000Y-116064819D02*
X218684762Y-116112438D01*
X218684762Y-116112438D02*
X218637143Y-116160057D01*
X218637143Y-116160057D02*
X218541905Y-116302914D01*
X218541905Y-116302914D02*
X218494286Y-116493390D01*
X218494286Y-116493390D02*
X218494286Y-116874342D01*
X218494286Y-116874342D02*
X218541905Y-116969580D01*
X218541905Y-116969580D02*
X218589524Y-117017200D01*
X218589524Y-117017200D02*
X218684762Y-117064819D01*
X218684762Y-117064819D02*
X218875238Y-117064819D01*
X218875238Y-117064819D02*
X218970476Y-117017200D01*
X218970476Y-117017200D02*
X219018095Y-116969580D01*
X219018095Y-116969580D02*
X219065714Y-116874342D01*
X219065714Y-116874342D02*
X219065714Y-116636247D01*
X219065714Y-116636247D02*
X219018095Y-116541009D01*
X219018095Y-116541009D02*
X218970476Y-116493390D01*
X218970476Y-116493390D02*
X218875238Y-116445771D01*
X218875238Y-116445771D02*
X218684762Y-116445771D01*
X218684762Y-116445771D02*
X218589524Y-116493390D01*
X218589524Y-116493390D02*
X218541905Y-116541009D01*
X218541905Y-116541009D02*
X218494286Y-116636247D01*
D11*
X188643571Y-94921271D02*
X188038809Y-94921271D01*
X188038809Y-94921271D02*
X188038809Y-93651271D01*
X189006428Y-94860795D02*
X189187857Y-94921271D01*
X189187857Y-94921271D02*
X189490238Y-94921271D01*
X189490238Y-94921271D02*
X189611190Y-94860795D01*
X189611190Y-94860795D02*
X189671666Y-94800318D01*
X189671666Y-94800318D02*
X189732143Y-94679366D01*
X189732143Y-94679366D02*
X189732143Y-94558414D01*
X189732143Y-94558414D02*
X189671666Y-94437461D01*
X189671666Y-94437461D02*
X189611190Y-94376985D01*
X189611190Y-94376985D02*
X189490238Y-94316509D01*
X189490238Y-94316509D02*
X189248333Y-94256033D01*
X189248333Y-94256033D02*
X189127381Y-94195556D01*
X189127381Y-94195556D02*
X189066904Y-94135080D01*
X189066904Y-94135080D02*
X189006428Y-94014128D01*
X189006428Y-94014128D02*
X189006428Y-93893175D01*
X189006428Y-93893175D02*
X189066904Y-93772223D01*
X189066904Y-93772223D02*
X189127381Y-93711747D01*
X189127381Y-93711747D02*
X189248333Y-93651271D01*
X189248333Y-93651271D02*
X189550714Y-93651271D01*
X189550714Y-93651271D02*
X189732143Y-93711747D01*
X190941667Y-94921271D02*
X190215952Y-94921271D01*
X190578809Y-94921271D02*
X190578809Y-93651271D01*
X190578809Y-93651271D02*
X190457857Y-93832699D01*
X190457857Y-93832699D02*
X190336905Y-93953652D01*
X190336905Y-93953652D02*
X190215952Y-94014128D01*
%TO.C,C12*%
D12*
X232439420Y-121550000D02*
X232720580Y-121550000D01*
X232439420Y-122570000D02*
X232720580Y-122570000D01*
%TO.C,C6*%
X217190000Y-100860580D02*
X217190000Y-100579420D01*
X218210000Y-100860580D02*
X218210000Y-100579420D01*
%TO.C,R11*%
X213326359Y-112180000D02*
X213633641Y-112180000D01*
X213326359Y-112940000D02*
X213633641Y-112940000D01*
%TO.C,J5*%
X167980000Y-75850000D02*
X169360000Y-75850000D01*
X167980000Y-77230000D02*
X167980000Y-75850000D01*
X167980000Y-78500000D02*
X167980000Y-126870000D01*
X167980000Y-78500000D02*
X170740000Y-78500000D01*
X167980000Y-126870000D02*
X170740000Y-126870000D01*
X170740000Y-78500000D02*
X170740000Y-126870000D01*
%TO.C,C28*%
X229319420Y-88160000D02*
X229600580Y-88160000D01*
X229319420Y-89180000D02*
X229600580Y-89180000D01*
%TO.C,Y2*%
X203290000Y-81290000D02*
X199170000Y-81290000D01*
X203290000Y-84710000D02*
X203290000Y-81290000D01*
%TO.C,R12*%
X228876359Y-102240000D02*
X229183641Y-102240000D01*
X228876359Y-103000000D02*
X229183641Y-103000000D01*
%TO.C,C1*%
X211090000Y-121595580D02*
X211090000Y-121314420D01*
X212110000Y-121595580D02*
X212110000Y-121314420D01*
%TO.C,D4*%
X214627500Y-111905000D02*
X216912500Y-111905000D01*
X216912500Y-110435000D02*
X214627500Y-110435000D01*
X216912500Y-111905000D02*
X216912500Y-110435000D01*
%TO.C,R15*%
X187110000Y-55326359D02*
X187110000Y-55633641D01*
X187870000Y-55326359D02*
X187870000Y-55633641D01*
%TO.C,D2*%
X204675000Y-88145000D02*
X204675000Y-89615000D01*
X204675000Y-89615000D02*
X206960000Y-89615000D01*
X206960000Y-88145000D02*
X204675000Y-88145000D01*
%TO.C,J2*%
X223920000Y-106020000D02*
X223920000Y-111320000D01*
X234190000Y-106020000D02*
X223920000Y-106020000D01*
X234190000Y-106020000D02*
X234190000Y-108670000D01*
X234190000Y-108670000D02*
X236840000Y-108670000D01*
X235460000Y-106020000D02*
X236840000Y-106020000D01*
X236840000Y-106020000D02*
X236840000Y-107400000D01*
X236840000Y-108670000D02*
X236840000Y-111320000D01*
X236840000Y-111320000D02*
X223920000Y-111320000D01*
%TO.C,SW3*%
D13*
X208876000Y-74017000D02*
X209318800Y-74017000D01*
X208876000Y-78081000D02*
X208876000Y-74017000D01*
X209318800Y-78081000D02*
X208876000Y-78081000D01*
X211481200Y-74017000D02*
X211924000Y-74017000D01*
X211924000Y-74017000D02*
X211924000Y-78081000D01*
X211924000Y-78081000D02*
X211481200Y-78081000D01*
X209384000Y-74842500D02*
X211416000Y-74842500D01*
X211416000Y-77255500D01*
X209384000Y-77255500D01*
X209384000Y-74842500D01*
X211026600Y-76054600D02*
G75*
G02*
X209777000Y-76054600I-624800J0D01*
G01*
X209777000Y-76054600D02*
G75*
G02*
X211026600Y-76054600I624800J0D01*
G01*
%TO.C,SW1*%
X212861488Y-84620446D02*
X213304288Y-84620446D01*
X212861488Y-88684446D02*
X212861488Y-84620446D01*
X213304288Y-88684446D02*
X212861488Y-88684446D01*
X215466688Y-84620446D02*
X215909488Y-84620446D01*
X215909488Y-84620446D02*
X215909488Y-88684446D01*
X215909488Y-88684446D02*
X215466688Y-88684446D01*
X213369488Y-85445946D02*
X215401488Y-85445946D01*
X215401488Y-87858946D01*
X213369488Y-87858946D01*
X213369488Y-85445946D01*
X215012088Y-86658046D02*
G75*
G02*
X213762488Y-86658046I-624800J0D01*
G01*
X213762488Y-86658046D02*
G75*
G02*
X215012088Y-86658046I624800J0D01*
G01*
%TO.C,C20*%
D12*
X185540000Y-55350580D02*
X185540000Y-55069420D01*
X186560000Y-55350580D02*
X186560000Y-55069420D01*
%TO.C,Y1*%
X203240000Y-87540000D02*
X199120000Y-87540000D01*
X203240000Y-90960000D02*
X203240000Y-87540000D01*
%TO.C,C23*%
X219720000Y-83785580D02*
X219720000Y-83504420D01*
X220740000Y-83785580D02*
X220740000Y-83504420D01*
%TO.C,C24*%
X224179420Y-73090000D02*
X224460580Y-73090000D01*
X224179420Y-74110000D02*
X224460580Y-74110000D01*
%TO.C,J4*%
X244370000Y-75470000D02*
X245750000Y-75470000D01*
X244370000Y-76850000D02*
X244370000Y-75470000D01*
X244370000Y-78120000D02*
X244370000Y-126490000D01*
X244370000Y-78120000D02*
X247130000Y-78120000D01*
X244370000Y-126490000D02*
X247130000Y-126490000D01*
X247130000Y-78120000D02*
X247130000Y-126490000D01*
%TO.C,R13*%
X198503641Y-111920000D02*
X198196359Y-111920000D01*
X198503641Y-112680000D02*
X198196359Y-112680000D01*
%TO.C,SW2*%
D13*
X225318000Y-98516000D02*
X229382000Y-98516000D01*
X225318000Y-98958800D02*
X225318000Y-98516000D01*
X225318000Y-101564000D02*
X225318000Y-101121200D01*
X229382000Y-98516000D02*
X229382000Y-98958800D01*
X229382000Y-101121200D02*
X229382000Y-101564000D01*
X229382000Y-101564000D02*
X225318000Y-101564000D01*
X226143500Y-99024000D02*
X228556500Y-99024000D01*
X228556500Y-101056000D01*
X226143500Y-101056000D01*
X226143500Y-99024000D01*
X227980400Y-100038200D02*
G75*
G02*
X226730800Y-100038200I-624800J0D01*
G01*
X226730800Y-100038200D02*
G75*
G02*
X227980400Y-100038200I624800J0D01*
G01*
%TO.C,C17*%
D12*
X205024420Y-83600000D02*
X205305580Y-83600000D01*
X205024420Y-84620000D02*
X205305580Y-84620000D01*
%TO.C,C11*%
X232050000Y-99365580D02*
X232050000Y-99084420D01*
X233070000Y-99365580D02*
X233070000Y-99084420D01*
%TO.C,R23*%
X200100000Y-75976359D02*
X200100000Y-76283641D01*
X200860000Y-75976359D02*
X200860000Y-76283641D01*
%TO.C,C21*%
X177869420Y-65000000D02*
X178150580Y-65000000D01*
X177869420Y-66020000D02*
X178150580Y-66020000D01*
%TO.C,C31*%
X206399420Y-77600000D02*
X206680580Y-77600000D01*
X206399420Y-78620000D02*
X206680580Y-78620000D01*
%TO.C,J6*%
X171380000Y-64000000D02*
X173080000Y-64000000D01*
X171380000Y-73340000D02*
X173080000Y-73340000D01*
%TO.C,C22*%
X177814420Y-58960000D02*
X178095580Y-58960000D01*
X177814420Y-59980000D02*
X178095580Y-59980000D01*
%TO.C,C5*%
X204278781Y-109969970D02*
X204079970Y-110168781D01*
X205000030Y-110691219D02*
X204801219Y-110890030D01*
%TO.C,U1*%
X200313369Y-101430000D02*
X200985120Y-100758249D01*
X200985120Y-102101751D02*
X200313369Y-101430000D01*
X206868249Y-94875120D02*
X207540000Y-94203369D01*
X207540000Y-94203369D02*
X208211751Y-94875120D01*
X207540000Y-108656631D02*
X206868249Y-107984880D01*
X208211751Y-107984880D02*
X207540000Y-108656631D01*
X214094880Y-100758249D02*
X214766631Y-101430000D01*
X214766631Y-101430000D02*
X214094880Y-102101751D01*
X206988456Y-94330649D02*
X206415700Y-94422572D01*
X206507623Y-93849816D01*
X206988456Y-94330649D01*
G36*
X206988456Y-94330649D02*
G01*
X206415700Y-94422572D01*
X206507623Y-93849816D01*
X206988456Y-94330649D01*
G37*
%TO.C,J3*%
X223570000Y-128170000D02*
X223570000Y-126470000D01*
X232910000Y-128170000D02*
X232910000Y-126470000D01*
%TO.C,C15*%
X197620000Y-88874420D02*
X197620000Y-89155580D01*
X198640000Y-88874420D02*
X198640000Y-89155580D01*
%TO.C,C19*%
X210469420Y-69710000D02*
X210750580Y-69710000D01*
X210469420Y-70730000D02*
X210750580Y-70730000D01*
%TO.C,C13*%
X232379420Y-115540000D02*
X232660580Y-115540000D01*
X232379420Y-116560000D02*
X232660580Y-116560000D01*
%TO.C,U5*%
X213100000Y-113950000D02*
X213600000Y-113950000D01*
X213100000Y-114450000D02*
X213100000Y-113950000D01*
X213100000Y-116770000D02*
X213100000Y-116970000D01*
X213600000Y-117270000D02*
X213350000Y-117270000D01*
X216420000Y-113950000D02*
X215920000Y-113950000D01*
X216420000Y-114450000D02*
X216420000Y-113950000D01*
X216420000Y-116770000D02*
X216420000Y-117270000D01*
X216420000Y-117270000D02*
X215920000Y-117270000D01*
X213100000Y-117270000D02*
X212770000Y-117510000D01*
X212770000Y-117030000D01*
X213100000Y-117270000D01*
G36*
X213100000Y-117270000D02*
G01*
X212770000Y-117510000D01*
X212770000Y-117030000D01*
X213100000Y-117270000D01*
G37*
%TO.C,R2*%
X212940000Y-121726359D02*
X212940000Y-122033641D01*
X213700000Y-121726359D02*
X213700000Y-122033641D01*
%TO.C,J8*%
X244450000Y-64850000D02*
X244450000Y-72530000D01*
X244450000Y-64850000D02*
X247110000Y-64850000D01*
X244450000Y-72530000D02*
X247110000Y-72530000D01*
X245780000Y-62250000D02*
X247110000Y-62250000D01*
X247110000Y-62250000D02*
X247110000Y-63580000D01*
X247110000Y-64850000D02*
X247110000Y-72530000D01*
%TO.C,R19*%
X232570000Y-54976359D02*
X232570000Y-55283641D01*
X233330000Y-54976359D02*
X233330000Y-55283641D01*
%TO.C,C29*%
X189225580Y-76900000D02*
X188944420Y-76900000D01*
X189225580Y-77920000D02*
X188944420Y-77920000D01*
%TO.C,D3*%
X209355000Y-114122500D02*
X209355000Y-116407500D01*
X210825000Y-114122500D02*
X209355000Y-114122500D01*
X210825000Y-116407500D02*
X210825000Y-114122500D01*
%TO.C,R7*%
X218116359Y-114020000D02*
X218423641Y-114020000D01*
X218116359Y-114780000D02*
X218423641Y-114780000D01*
%TO.C,C18*%
X201285580Y-85260000D02*
X201004420Y-85260000D01*
X201285580Y-86280000D02*
X201004420Y-86280000D01*
%TO.C,U2*%
X189835000Y-45980000D02*
X189835000Y-52180000D01*
X189835000Y-45980000D02*
X208235000Y-45980000D01*
X189835000Y-70830000D02*
X189835000Y-71830000D01*
X189835000Y-71830000D02*
X191335000Y-71830000D01*
X208235000Y-45980000D02*
X208235000Y-52180000D01*
X208235000Y-71830000D02*
X206735000Y-71830000D01*
X208235000Y-71830000D02*
X208235000Y-70830000D01*
X189835000Y-52855000D02*
X189335000Y-52855000D01*
X189835000Y-52355000D01*
X189835000Y-52855000D01*
G36*
X189835000Y-52855000D02*
G01*
X189335000Y-52855000D01*
X189835000Y-52355000D01*
X189835000Y-52855000D01*
G37*
%TO.C,U9*%
X228877500Y-82470000D02*
X230697500Y-82470000D01*
X228877500Y-82520000D02*
X228877500Y-82470000D01*
X228877500Y-84420000D02*
X228877500Y-83640000D01*
X228877500Y-85590000D02*
X228877500Y-85540000D01*
X230697500Y-82470000D02*
X230697500Y-82520000D01*
X230697500Y-85540000D02*
X230697500Y-85590000D01*
X230697500Y-85590000D02*
X228877500Y-85590000D01*
X231477500Y-85870000D02*
X230997500Y-85870000D01*
X231237500Y-85540000D01*
X231477500Y-85870000D01*
G36*
X231477500Y-85870000D02*
G01*
X230997500Y-85870000D01*
X231237500Y-85540000D01*
X231477500Y-85870000D01*
G37*
%TO.C,U3*%
X207320000Y-119942500D02*
X209140000Y-119942500D01*
X207320000Y-119992500D02*
X207320000Y-119942500D01*
X207320000Y-121892500D02*
X207320000Y-121112500D01*
X207320000Y-123062500D02*
X207320000Y-123012500D01*
X209140000Y-119942500D02*
X209140000Y-119992500D01*
X209140000Y-123012500D02*
X209140000Y-123062500D01*
X209140000Y-123062500D02*
X207320000Y-123062500D01*
X209920000Y-123342500D02*
X209440000Y-123342500D01*
X209680000Y-123012500D01*
X209920000Y-123342500D01*
G36*
X209920000Y-123342500D02*
G01*
X209440000Y-123342500D01*
X209680000Y-123012500D01*
X209920000Y-123342500D01*
G37*
%TO.C,C25*%
X218050000Y-83785580D02*
X218050000Y-83504420D01*
X219070000Y-83785580D02*
X219070000Y-83504420D01*
%TO.C,C27*%
X230375580Y-80790000D02*
X230094420Y-80790000D01*
X230375580Y-81810000D02*
X230094420Y-81810000D01*
%TO.C,MK1*%
X201505000Y-77912000D02*
X201505000Y-74512000D01*
X201805000Y-74212000D02*
X204355000Y-74212000D01*
X204355000Y-74212000D02*
X204355000Y-77912000D01*
X204355000Y-77912000D02*
X201505000Y-77912000D01*
X201505000Y-74212000D02*
X201225000Y-74212000D01*
X201505000Y-73932000D01*
X201505000Y-74212000D01*
G36*
X201505000Y-74212000D02*
G01*
X201225000Y-74212000D01*
X201505000Y-73932000D01*
X201505000Y-74212000D01*
G37*
%TO.C,C2*%
X204720000Y-121820580D02*
X204720000Y-121539420D01*
X205740000Y-121820580D02*
X205740000Y-121539420D01*
%TO.C,C7*%
X197428781Y-98980030D02*
X197229970Y-98781219D01*
X198150030Y-98258781D02*
X197951219Y-98059970D01*
%TO.C,R8*%
X204785000Y-125141359D02*
X204785000Y-125448641D01*
X205545000Y-125141359D02*
X205545000Y-125448641D01*
%TO.C,R14*%
X210623641Y-71790000D02*
X210316359Y-71790000D01*
X210623641Y-72550000D02*
X210316359Y-72550000D01*
%TO.C,D1*%
X206075000Y-124230000D02*
X206075000Y-126515000D01*
X206075000Y-126515000D02*
X207545000Y-126515000D01*
X207545000Y-126515000D02*
X207545000Y-124230000D01*
%TO.C,C8*%
X195158781Y-101240030D02*
X194959970Y-101041219D01*
X195880030Y-100518781D02*
X195681219Y-100319970D01*
%TO.C,J1*%
X210590000Y-128240000D02*
X210590000Y-126540000D01*
X219930000Y-128240000D02*
X219930000Y-126540000D01*
%TO.C,C16*%
X199550000Y-92929420D02*
X199550000Y-93210580D01*
X200570000Y-92929420D02*
X200570000Y-93210580D01*
%TO.C,R10*%
X211080000Y-115926359D02*
X211080000Y-116233641D01*
X211840000Y-115926359D02*
X211840000Y-116233641D01*
%TO.C,C3*%
X207904420Y-89930000D02*
X208185580Y-89930000D01*
X207904420Y-90950000D02*
X208185580Y-90950000D01*
%TO.C,C14*%
X203494419Y-112260000D02*
X203775581Y-112260000D01*
X203494419Y-113280000D02*
X203775581Y-113280000D01*
%TO.C,C9*%
X196290773Y-100137022D02*
X196091962Y-99938211D01*
X197012022Y-99415773D02*
X196813211Y-99216962D01*
%TO.C,R17*%
X178353641Y-66620000D02*
X178046359Y-66620000D01*
X178353641Y-67380000D02*
X178046359Y-67380000D01*
%TO.C,C30*%
X206344420Y-76050000D02*
X206625580Y-76050000D01*
X206344420Y-77070000D02*
X206625580Y-77070000D01*
%TO.C,U6*%
X176580000Y-61682500D02*
X176630000Y-61682500D01*
X176580000Y-63502500D02*
X176580000Y-61682500D01*
X176630000Y-63502500D02*
X176580000Y-63502500D01*
X177750000Y-61682500D02*
X178530000Y-61682500D01*
X179650000Y-61682500D02*
X179700000Y-61682500D01*
X179700000Y-61682500D02*
X179700000Y-63502500D01*
X179700000Y-63502500D02*
X179650000Y-63502500D01*
X176630000Y-64042500D02*
X176300000Y-64282500D01*
X176300000Y-63802500D01*
X176630000Y-64042500D01*
G36*
X176630000Y-64042500D02*
G01*
X176300000Y-64282500D01*
X176300000Y-63802500D01*
X176630000Y-64042500D01*
G37*
%TO.C,C10*%
X211285488Y-88238026D02*
X211285488Y-87956866D01*
X212305488Y-88238026D02*
X212305488Y-87956866D01*
%TO.C,C26*%
X229339420Y-86370000D02*
X229620580Y-86370000D01*
X229339420Y-87390000D02*
X229620580Y-87390000D01*
%TO.C,R3*%
X216435488Y-88456087D02*
X216435488Y-88148805D01*
X217195488Y-88456087D02*
X217195488Y-88148805D01*
%TO.C,C4*%
X207894420Y-91440000D02*
X208175580Y-91440000D01*
X207894420Y-92460000D02*
X208175580Y-92460000D01*
%TO.C,U8*%
D10*
X222735000Y-82475000D02*
X222735000Y-82300000D01*
X222735000Y-85550000D02*
X222735000Y-85375000D01*
X225985000Y-82300000D02*
X222735000Y-82300000D01*
X225985000Y-82475000D02*
X225985000Y-82300000D01*
X225985000Y-85550000D02*
X222735000Y-85550000D01*
X225985000Y-85550000D02*
X225985000Y-85375000D01*
D12*
X226700000Y-85705000D02*
X226220000Y-85705000D01*
X226460000Y-85375000D01*
X226700000Y-85705000D01*
G36*
X226700000Y-85705000D02*
G01*
X226220000Y-85705000D01*
X226460000Y-85375000D01*
X226700000Y-85705000D01*
G37*
%TO.C,R4*%
X229600000Y-122483641D02*
X229600000Y-122176359D01*
X230360000Y-122483641D02*
X230360000Y-122176359D01*
%TO.C,R16*%
X177976359Y-70030000D02*
X178283641Y-70030000D01*
X177976359Y-70790000D02*
X178283641Y-70790000D01*
%TO.C,U4*%
X231130000Y-118192500D02*
X231180000Y-118192500D01*
X231130000Y-120012500D02*
X231130000Y-118192500D01*
X231180000Y-120012500D02*
X231130000Y-120012500D01*
X232300000Y-118192500D02*
X233080000Y-118192500D01*
X234200000Y-118192500D02*
X234250000Y-118192500D01*
X234250000Y-118192500D02*
X234250000Y-120012500D01*
X234250000Y-120012500D02*
X234200000Y-120012500D01*
X231180000Y-120552500D02*
X230850000Y-120792500D01*
X230850000Y-120312500D01*
X231180000Y-120552500D01*
G36*
X231180000Y-120552500D02*
G01*
X230850000Y-120792500D01*
X230850000Y-120312500D01*
X231180000Y-120552500D01*
G37*
%TO.C,R1*%
X217200000Y-122043641D02*
X217200000Y-121736359D01*
X217960000Y-122043641D02*
X217960000Y-121736359D01*
%TO.C,R5*%
X226130000Y-122196359D02*
X226130000Y-122503641D01*
X226890000Y-122196359D02*
X226890000Y-122503641D01*
%TO.C,U10*%
X192280000Y-74700000D02*
X192755000Y-74700000D01*
X192280000Y-75175000D02*
X192280000Y-74700000D01*
X192280000Y-77920000D02*
X192280000Y-77445000D01*
X192755000Y-77920000D02*
X192280000Y-77920000D01*
X195025000Y-74700000D02*
X195500000Y-74700000D01*
X195500000Y-74700000D02*
X195500000Y-75175000D01*
X195500000Y-77445000D02*
X195500000Y-77920000D01*
X195500000Y-77920000D02*
X195025000Y-77920000D01*
X191770000Y-75560000D02*
X191440000Y-75800000D01*
X191440000Y-75320000D01*
X191770000Y-75560000D01*
G36*
X191770000Y-75560000D02*
G01*
X191440000Y-75800000D01*
X191440000Y-75320000D01*
X191770000Y-75560000D01*
G37*
%TO.C,U7*%
X222720000Y-76200000D02*
X222720000Y-76450000D01*
X222720000Y-76200000D02*
X222970000Y-76200000D01*
X222720000Y-79400000D02*
X222720000Y-79150000D01*
X222720000Y-79400000D02*
X222970000Y-79400000D01*
X225920000Y-76200000D02*
X225670000Y-76200000D01*
X225920000Y-76200000D02*
X225920000Y-76450000D01*
X226160000Y-79730000D02*
X225680000Y-79730000D01*
X225920000Y-79400000D01*
X226160000Y-79730000D01*
G36*
X226160000Y-79730000D02*
G01*
X225680000Y-79730000D01*
X225920000Y-79400000D01*
X226160000Y-79730000D01*
G37*
%TO.C,R9*%
X204810000Y-90943641D02*
X204810000Y-90636359D01*
X205570000Y-90943641D02*
X205570000Y-90636359D01*
%TO.C,SW4*%
D13*
X185126000Y-57818000D02*
X185568800Y-57818000D01*
X185126000Y-61882000D02*
X185126000Y-57818000D01*
X185568800Y-61882000D02*
X185126000Y-61882000D01*
X187731200Y-57818000D02*
X188174000Y-57818000D01*
X188174000Y-57818000D02*
X188174000Y-61882000D01*
X188174000Y-61882000D02*
X187731200Y-61882000D01*
X185634000Y-58643500D02*
X187666000Y-58643500D01*
X187666000Y-61056500D01*
X185634000Y-61056500D01*
X185634000Y-58643500D01*
X187276600Y-59855600D02*
G75*
G02*
X186027000Y-59855600I-624800J0D01*
G01*
X186027000Y-59855600D02*
G75*
G02*
X187276600Y-59855600I624800J0D01*
G01*
%TO.C,R6*%
D12*
X218433641Y-115060000D02*
X218126359Y-115060000D01*
X218433641Y-115820000D02*
X218126359Y-115820000D01*
%TO.C,LS1*%
D13*
X182960000Y-84680000D02*
X183260000Y-84380000D01*
X182960000Y-89080000D02*
X182960000Y-84680000D01*
X183260000Y-84380000D02*
X183460000Y-84380000D01*
X183260000Y-89380000D02*
X182960000Y-89080000D01*
X183460000Y-80380000D02*
X195460000Y-80380000D01*
X183460000Y-81048800D02*
X183460000Y-80380000D01*
X183460000Y-84380000D02*
X183460000Y-84011100D01*
X183460000Y-89380000D02*
X183260000Y-89380000D01*
X183460000Y-89748800D02*
X183460000Y-89380000D01*
X184460000Y-93380000D02*
X183790400Y-92710400D01*
X192762000Y-83197000D02*
X192762000Y-81927000D01*
X193397000Y-82562000D02*
X192127000Y-82562000D01*
X194460000Y-93380000D02*
X184460000Y-93380000D01*
X194460000Y-93380000D02*
X195129600Y-92710400D01*
X195460000Y-80380000D02*
X195460000Y-81048800D01*
X195460000Y-84011100D02*
X195460000Y-84380000D01*
X195460000Y-84380000D02*
X195660000Y-84380000D01*
X195460000Y-89380000D02*
X195460000Y-89748800D01*
X195660000Y-84380000D02*
X195960000Y-84670000D01*
X195660000Y-89380000D02*
X195460000Y-89380000D01*
X195960000Y-84670000D02*
X195960000Y-89080000D01*
X195960000Y-89080000D02*
X195660000Y-89380000D01*
X193016000Y-86880000D02*
G75*
G02*
X185904000Y-86880000I-3556000J0D01*
G01*
X185904000Y-86880000D02*
G75*
G02*
X193016000Y-86880000I3556000J0D01*
G01*
%TD*%
M02*
