%TF.GenerationSoftware,KiCad,Pcbnew,10.99.0-unknown-ab00e101b5~187~ubuntu24.04.1*%
%TF.CreationDate,2026-08-31T00:15:45-04:00*%
%TF.ProjectId,stmboard,73746d62-6f61-4726-942e-6b696361645f,rev?*%
%TF.SameCoordinates,Original*%
%TF.FileFunction,Soldermask,Bot*%
%TF.FilePolarity,Negative*%
%FSLAX46Y46*%
G04 Gerber Fmt 4.6, Leading zero omitted, Abs format (unit mm)*
G04 Created by KiCad (PCBNEW 10.99.0-unknown-ab00e101b5~187~ubuntu24.04.1) date 2026-08-31 00:15:45*
%MOMM*%
%LPD*%
G01*
G04 APERTURE LIST*
G04 Aperture macros list*
%AMRoundRect*
0 Rectangle with rounded corners*
0 $1 Rounding radius*
0 $2 $3 $4 $5 $6 $7 $8 $9 X,Y pos of 4 corners*
0 Add a 4 corners polygon primitive as box body*
4,1,4,$2,$3,$4,$5,$6,$7,$8,$9,$2,$3,0*
0 Add four circle primitives for the rounded corners*
1,1,$1+$1,$2,$3*
1,1,$1+$1,$4,$5*
1,1,$1+$1,$6,$7*
1,1,$1+$1,$8,$9*
0 Add four rect primitives between the rounded corners*
20,1,$1+$1,$2,$3,$4,$5,0*
20,1,$1+$1,$4,$5,$6,$7,0*
20,1,$1+$1,$6,$7,$8,$9,0*
20,1,$1+$1,$8,$9,$2,$3,0*%
G04 Aperture macros list end*
%ADD10R,1.700000X1.700000*%
%ADD11C,1.700000*%
%ADD12C,0.650000*%
%ADD13O,2.100000X1.000000*%
%ADD14O,1.800000X1.000000*%
%ADD15O,1.000000X2.100000*%
%ADD16O,1.000000X1.800000*%
%ADD17C,0.500000*%
%ADD18RoundRect,0.135000X0.185000X-0.135000X0.185000X0.135000X-0.185000X0.135000X-0.185000X-0.135000X0*%
%ADD19RoundRect,0.135000X0.135000X0.185000X-0.135000X0.185000X-0.135000X-0.185000X0.135000X-0.185000X0*%
%ADD20R,0.800000X1.500000*%
%ADD21RoundRect,0.362500X0.362500X0.637500X-0.362500X0.637500X-0.362500X-0.637500X0.362500X-0.637500X0*%
%ADD22RoundRect,0.135000X-0.185000X0.135000X-0.185000X-0.135000X0.185000X-0.135000X0.185000X0.135000X0*%
G04 APERTURE END LIST*
D10*
%TO.C,J5*%
X169360000Y-77230000D03*
D11*
X169360000Y-79770000D03*
X169360000Y-82310000D03*
X169360000Y-84850000D03*
X169360000Y-87390000D03*
X169360000Y-89930000D03*
X169360000Y-92470000D03*
X169360000Y-95010000D03*
X169360000Y-97550000D03*
X169360000Y-100090000D03*
X169360000Y-102630000D03*
X169360000Y-105170000D03*
X169360000Y-107710000D03*
X169360000Y-110250000D03*
X169360000Y-112790000D03*
X169360000Y-115330000D03*
X169360000Y-117870000D03*
X169360000Y-120410000D03*
X169360000Y-122950000D03*
X169360000Y-125490000D03*
%TD*%
D10*
%TO.C,J2*%
X235460000Y-107400000D03*
D11*
X235460000Y-109940000D03*
X232920000Y-107400000D03*
X232920000Y-109940000D03*
X230380000Y-107400000D03*
X230380000Y-109940000D03*
X227840000Y-107400000D03*
X227840000Y-109940000D03*
X225300000Y-107400000D03*
X225300000Y-109940000D03*
%TD*%
D10*
%TO.C,J4*%
X245750000Y-76850000D03*
D11*
X245750000Y-79390000D03*
X245750000Y-81930000D03*
X245750000Y-84470000D03*
X245750000Y-87010000D03*
X245750000Y-89550000D03*
X245750000Y-92090000D03*
X245750000Y-94630000D03*
X245750000Y-97170000D03*
X245750000Y-99710000D03*
X245750000Y-102250000D03*
X245750000Y-104790000D03*
X245750000Y-107330000D03*
X245750000Y-109870000D03*
X245750000Y-112410000D03*
X245750000Y-114950000D03*
X245750000Y-117490000D03*
X245750000Y-120030000D03*
X245750000Y-122570000D03*
X245750000Y-125110000D03*
%TD*%
D12*
%TO.C,J6*%
X173885000Y-65780000D03*
X173885000Y-71560000D03*
D13*
X174385000Y-64350000D03*
D14*
X170205000Y-64350000D03*
D13*
X174385000Y-72990000D03*
D14*
X170205000Y-72990000D03*
%TD*%
D12*
%TO.C,J3*%
X225350000Y-125665000D03*
X231130000Y-125665000D03*
D15*
X223920000Y-125165000D03*
D16*
X223920000Y-129345000D03*
D15*
X232560000Y-125165000D03*
D16*
X232560000Y-129345000D03*
%TD*%
D10*
%TO.C,J8*%
X245780000Y-63580000D03*
D11*
X245780000Y-66120000D03*
X245780000Y-68660000D03*
X245780000Y-71200000D03*
%TD*%
D17*
%TO.C,MK1*%
X202930000Y-76772000D03*
%TD*%
D12*
%TO.C,J1*%
X212370000Y-125735000D03*
X218150000Y-125735000D03*
D15*
X210940000Y-125235000D03*
D16*
X210940000Y-129415000D03*
D15*
X219580000Y-125235000D03*
D16*
X219580000Y-129415000D03*
%TD*%
D18*
%TO.C,R18*%
X215050000Y-62320000D03*
X215050000Y-61300000D03*
%TD*%
D19*
%TO.C,R20*%
X194090000Y-62520000D03*
X193070000Y-62520000D03*
%TD*%
D18*
%TO.C,R22*%
X193640000Y-57950000D03*
X193640000Y-56930000D03*
%TD*%
D20*
%TO.C,J7*%
X234020000Y-57450000D03*
X232920000Y-57450000D03*
X231820000Y-57450000D03*
X230720000Y-57450000D03*
X229620000Y-57450000D03*
X228520000Y-57450000D03*
X227420000Y-57450000D03*
X226320000Y-57450000D03*
D21*
X237690000Y-63150000D03*
X237690000Y-54850000D03*
X223940000Y-63150000D03*
X223940000Y-54850000D03*
%TD*%
D22*
%TO.C,R21*%
X212440000Y-55260000D03*
X212440000Y-56280000D03*
%TD*%
M02*
