M48
; DRILL file KiCad 10.99.0-unknown-ab00e101b5~187~ubuntu24.04.1 date 2026-08-31T00:15:20
; FORMAT={-:-/ absolute / metric / decimal}
; #@! TF.CreationDate,2026-08-31T00:15:20-04:00
; #@! TF.GenerationSoftware,Kicad,Pcbnew,10.99.0-unknown-ab00e101b5~187~ubuntu24.04.1
; #@! TF.FileFunction,Plated,1,2,PTH
FMAT,2
METRIC
; #@! TA.AperFunction,Plated,PTH,ComponentDrill
T1C0.200
; #@! TA.AperFunction,Plated,PTH,ViaDrill
T2C0.300
; #@! TA.AperFunction,Plated,PTH,ComponentDrill
T3C0.600
; #@! TA.AperFunction,Plated,PTH,ComponentDrill
T4C1.000
%
G90
G05
T1
X196.135Y-60.64
X196.135Y-62.04
X196.835Y-59.94
X196.835Y-61.34
X196.835Y-62.74
X197.535Y-60.64
X197.535Y-62.04
X198.235Y-59.94
X198.235Y-61.34
X198.235Y-62.74
X198.935Y-60.64
X198.935Y-62.04
T2
X177.19Y-59.48
X189.86Y-77.43
X190.285Y-54.89
X191.15Y-75.17
X191.8Y-62.54
X192.22Y-57.38
X194.39Y-79.37
X195.968Y-101.328
X196.74Y-112.3
X196.77Y-116.42
X196.83Y-77.23
X198.762Y-100.678
X198.99Y-69.51
X199.66Y-99.09
X199.75Y-95.46
X200.28Y-68.28
X200.6Y-95.45
X200.92Y-70.04
X201.51Y-95.4
X201.63Y-65.24
X201.94Y-66.63
X202.33Y-95.6
X202.57Y-63.4
X204.02Y-116.28
X204.06Y-123.99
X204.1Y-73.81
X204.145Y-123.373
X204.15Y-124.79
X204.41Y-112.77
X205.145Y-109.825
X205.23Y-122.47
X205.54Y-75.02
X206.14Y-121.52
X206.14Y-123.23
X206.21Y-57.47
X206.25Y-58.69
X206.92Y-121.58
X207.26Y-91.91
X209.326Y-61.909
X209.46Y-56.25
X209.92Y-88.89
X209.93Y-98.82
X209.94Y-79.82
X210.09Y-114.82
X210.24Y-103.08
X210.86Y-113.42
X211.46Y-114.18
X211.795Y-88.872
X211.9Y-72.15
X212.03Y-68.54
X212.167Y-94.187
X213.67Y-68.56
X213.94Y-92.12
X214.385Y-84.493
X214.39Y-122.759
X214.501Y-91.352
X214.98Y-102.02
X215.01Y-121.97
X215.177Y-108.148
X215.62Y-122.78
X216.006Y-108.234
X216.215Y-111.17
X216.58Y-117.43
X216.64Y-122.27
X217.7Y-101.495
X217.87Y-120.39
X217.97Y-74.8
X218.61Y-84.42
X219.64Y-120.39
X220.43Y-114.95
X220.7Y-76.8
X221.661Y-85.541
X224.49Y-82.85
X225.52Y-81.981
X225.97Y-86.26
X227.51Y-102.62
X228.03Y-91.35
X228.3Y-81.22
X228.33Y-90.45
X228.56Y-73.64
X228.84Y-74.59
X228.84Y-92.07
X228.87Y-89.81
X228.909Y-79.33
X229.509Y-96.17
X229.789Y-68.969
X230.2Y-82.22
X230.39Y-117.12
X230.41Y-117.86
X230.43Y-114.91
X230.44Y-116.38
X230.47Y-115.66
X231.01Y-81.3
X231.11Y-114.87
X231.56Y-74.59
X231.745Y-116.05
X231.77Y-114.81
X231.8Y-102.17
X232.23Y-82.23
X232.33Y-73.82
X232.48Y-114.89
X232.953Y-57.48
X232.96Y-53.86
X233.12Y-71.09
X233.23Y-76.51
X233.25Y-114.85
X233.36Y-102.17
X233.59Y-75.63
X233.59Y-79.68
X233.61Y-104.981
X233.94Y-114.88
X234.21Y-71.82
X234.71Y-116.71
X234.77Y-114.81
X234.79Y-116.04
X234.8Y-115.46
X234.89Y-84.41
X234.96Y-79.13
X236.35Y-77.1
X240.71Y-95.78
X241.42Y-94.61
X242.0Y-67.93
X242.0Y-71.94
T4
X169.36Y-77.23
X169.36Y-79.77
X169.36Y-82.31
X169.36Y-84.85
X169.36Y-87.39
X169.36Y-89.93
X169.36Y-92.47
X169.36Y-95.01
X169.36Y-97.55
X169.36Y-100.09
X169.36Y-102.63
X169.36Y-105.17
X169.36Y-107.71
X169.36Y-110.25
X169.36Y-112.79
X169.36Y-115.33
X169.36Y-117.87
X169.36Y-120.41
X169.36Y-122.95
X169.36Y-125.49
X225.3Y-107.4
X225.3Y-109.94
X227.84Y-107.4
X227.84Y-109.94
X230.38Y-107.4
X230.38Y-109.94
X232.92Y-107.4
X232.92Y-109.94
X235.46Y-107.4
X235.46Y-109.94
X245.75Y-76.85
X245.75Y-79.39
X245.75Y-81.93
X245.75Y-84.47
X245.75Y-87.01
X245.75Y-89.55
X245.75Y-92.09
X245.75Y-94.63
X245.75Y-97.17
X245.75Y-99.71
X245.75Y-102.25
X245.75Y-104.79
X245.75Y-107.33
X245.75Y-109.87
X245.75Y-112.41
X245.75Y-114.95
X245.75Y-117.49
X245.75Y-120.03
X245.75Y-122.57
X245.75Y-125.11
X245.78Y-63.58
X245.78Y-66.12
X245.78Y-68.66
X245.78Y-71.2
T3
G00X170.605Y-64.35
M15
G01X169.805Y-64.35
M16
G05
G00X170.605Y-72.99
M15
G01X169.805Y-72.99
M16
G05
G00X174.935Y-64.35
M15
G01X173.835Y-64.35
M16
G05
G00X174.935Y-72.99
M15
G01X173.835Y-72.99
M16
G05
G00X210.94Y-124.685
M15
G01X210.94Y-125.785
M16
G05
G00X210.94Y-129.015
M15
G01X210.94Y-129.815
M16
G05
G00X219.58Y-124.685
M15
G01X219.58Y-125.785
M16
G05
G00X219.58Y-129.015
M15
G01X219.58Y-129.815
M16
G05
G00X223.92Y-124.615
M15
G01X223.92Y-125.715
M16
G05
G00X223.92Y-128.945
M15
G01X223.92Y-129.745
M16
G05
G00X232.56Y-124.615
M15
G01X232.56Y-125.715
M16
G05
G00X232.56Y-128.945
M15
G01X232.56Y-129.745
M16
G05
M30
