%TF.GenerationSoftware,KiCad,Pcbnew,10.99.0-unknown-ab00e101b5~187~ubuntu24.04.1*%
%TF.CreationDate,2026-08-31T00:15:45-04:00*%
%TF.ProjectId,stmboard,73746d62-6f61-4726-942e-6b696361645f,rev?*%
%TF.SameCoordinates,Original*%
%TF.FileFunction,Soldermask,Top*%
%TF.FilePolarity,Negative*%
%FSLAX46Y46*%
G04 Gerber Fmt 4.6, Leading zero omitted, Abs format (unit mm)*
G04 Created by KiCad (PCBNEW 10.99.0-unknown-ab00e101b5~187~ubuntu24.04.1) date 2026-08-31 00:15:45*
%MOMM*%
%LPD*%
G01*
G04 APERTURE LIST*
G04 Aperture macros list*
%AMRoundRect*
0 Rectangle with rounded corners*
0 $1 Rounding radius*
0 $2 $3 $4 $5 $6 $7 $8 $9 X,Y pos of 4 corners*
0 Add a 4 corners polygon primitive as box body*
4,1,4,$2,$3,$4,$5,$6,$7,$8,$9,$2,$3,0*
0 Add four circle primitives for the rounded corners*
1,1,$1+$1,$2,$3*
1,1,$1+$1,$4,$5*
1,1,$1+$1,$6,$7*
1,1,$1+$1,$8,$9*
0 Add four rect primitives between the rounded corners*
20,1,$1+$1,$2,$3,$4,$5,0*
20,1,$1+$1,$4,$5,$6,$7,0*
20,1,$1+$1,$6,$7,$8,$9,0*
20,1,$1+$1,$8,$9,$2,$3,0*%
%AMFreePoly0*
4,1,64,0.235711,1.439036,0.382774,1.378120,0.515127,1.289684,0.627684,1.177127,0.716120,1.044774,0.777036,0.897711,0.808090,0.741590,0.808090,0.582410,0.777036,0.426289,0.716120,0.279226,0.627684,0.146873,0.515127,0.034316,0.382774,-0.054120,0.235711,-0.115036,0.079590,-0.146090,0.031746,-0.146090,0.029264,-0.147118,-0.029264,-0.147118,-0.031746,-0.146090,-0.079590,-0.146090,
-0.235711,-0.115036,-0.382774,-0.054120,-0.515127,0.034316,-0.627684,0.146873,-0.716120,0.279226,-0.777036,0.426289,-0.808090,0.582410,-0.808090,0.729406,-0.512000,0.729406,-0.512000,0.594594,-0.477108,0.464375,-0.409702,0.347625,-0.314375,0.252298,-0.197625,0.184892,-0.067406,0.150000,0.067406,0.150000,0.197625,0.184892,0.314375,0.252298,0.409702,0.347625,0.477108,0.464375,
0.512000,0.594594,0.512000,0.729406,0.477108,0.859625,0.409702,0.976375,0.314375,1.071702,0.197625,1.139108,0.067406,1.174000,-0.067406,1.174000,-0.197625,1.139108,-0.314375,1.071702,-0.409702,0.976375,-0.477108,0.859625,-0.512000,0.729406,-0.808090,0.729406,-0.808090,0.741590,-0.777036,0.897711,-0.716120,1.044774,-0.627684,1.177127,-0.515127,1.289684,-0.382774,1.378120,
-0.235711,1.439036,-0.079590,1.470090,0.079590,1.470090,0.235711,1.439036,0.235711,1.439036,$1*%
G04 Aperture macros list end*
%ADD10RoundRect,0.225000X-0.225000X-0.250000X0.225000X-0.250000X0.225000X0.250000X-0.225000X0.250000X0*%
%ADD11RoundRect,0.225000X0.250000X-0.225000X0.250000X0.225000X-0.250000X0.225000X-0.250000X-0.225000X0*%
%ADD12RoundRect,0.135000X-0.135000X-0.185000X0.135000X-0.185000X0.135000X0.185000X-0.135000X0.185000X0*%
%ADD13R,1.700000X1.700000*%
%ADD14C,1.700000*%
%ADD15RoundRect,0.250000X0.450000X0.350000X-0.450000X0.350000X-0.450000X-0.350000X0.450000X-0.350000X0*%
%ADD16RoundRect,0.218750X0.218750X0.256250X-0.218750X0.256250X-0.218750X-0.256250X0.218750X-0.256250X0*%
%ADD17RoundRect,0.135000X-0.185000X0.135000X-0.185000X-0.135000X0.185000X-0.135000X0.185000X0.135000X0*%
%ADD18RoundRect,0.218750X-0.218750X-0.256250X0.218750X-0.256250X0.218750X0.256250X-0.218750X0.256250X0*%
%ADD19RoundRect,0.050000X0.850000X-0.650000X0.850000X0.650000X-0.850000X0.650000X-0.850000X-0.650000X0*%
%ADD20RoundRect,0.135000X0.135000X0.185000X-0.135000X0.185000X-0.135000X-0.185000X0.135000X-0.185000X0*%
%ADD21RoundRect,0.050000X0.650000X0.850000X-0.650000X0.850000X-0.650000X-0.850000X0.650000X-0.850000X0*%
%ADD22C,0.650000*%
%ADD23RoundRect,0.150000X-0.425000X0.150000X-0.425000X-0.150000X0.425000X-0.150000X0.425000X0.150000X0*%
%ADD24RoundRect,0.075000X-0.500000X0.075000X-0.500000X-0.075000X0.500000X-0.075000X0.500000X0.075000X0*%
%ADD25O,2.100000X1.000000*%
%ADD26O,1.800000X1.000000*%
%ADD27RoundRect,0.225000X-0.017678X0.335876X-0.335876X0.017678X0.017678X-0.335876X0.335876X-0.017678X0*%
%ADD28RoundRect,0.075000X-0.548008X0.441942X0.441942X-0.548008X0.548008X-0.441942X-0.441942X0.548008X0*%
%ADD29RoundRect,0.075000X-0.548008X-0.441942X-0.441942X-0.548008X0.548008X0.441942X0.441942X0.548008X0*%
%ADD30RoundRect,0.150000X-0.150000X-0.425000X0.150000X-0.425000X0.150000X0.425000X-0.150000X0.425000X0*%
%ADD31RoundRect,0.075000X-0.075000X-0.500000X0.075000X-0.500000X0.075000X0.500000X-0.075000X0.500000X0*%
%ADD32O,1.000000X2.100000*%
%ADD33O,1.000000X1.800000*%
%ADD34RoundRect,0.225000X-0.250000X0.225000X-0.250000X-0.225000X0.250000X-0.225000X0.250000X0.225000X0*%
%ADD35R,0.300000X0.300000*%
%ADD36R,0.300000X0.900000*%
%ADD37R,0.900000X0.300000*%
%ADD38R,1.800000X1.800000*%
%ADD39RoundRect,0.225000X0.225000X0.250000X-0.225000X0.250000X-0.225000X-0.250000X0.225000X-0.250000X0*%
%ADD40RoundRect,0.218750X-0.256250X0.218750X-0.256250X-0.218750X0.256250X-0.218750X0.256250X0.218750X0*%
%ADD41R,1.500000X0.900000*%
%ADD42R,0.900000X1.500000*%
%ADD43C,0.600000*%
%ADD44R,3.900000X3.900000*%
%ADD45RoundRect,0.150000X0.512500X0.150000X-0.512500X0.150000X-0.512500X-0.150000X0.512500X-0.150000X0*%
%ADD46C,0.500000*%
%ADD47RoundRect,0.130500X-0.169500X-0.130500X0.169500X-0.130500X0.169500X0.130500X-0.169500X0.130500X0*%
%ADD48FreePoly0,90.000000*%
%ADD49RoundRect,0.225000X0.335876X0.017678X0.017678X0.335876X-0.335876X-0.017678X-0.017678X-0.335876X0*%
%ADD50RoundRect,0.218750X0.256250X-0.218750X0.256250X0.218750X-0.256250X0.218750X-0.256250X-0.218750X0*%
%ADD51RoundRect,0.150000X0.150000X-0.512500X0.150000X0.512500X-0.150000X0.512500X-0.150000X-0.512500X0*%
%ADD52RoundRect,0.135000X0.185000X-0.135000X0.185000X0.135000X-0.185000X0.135000X-0.185000X-0.135000X0*%
%ADD53R,1.100000X0.400000*%
%ADD54RoundRect,0.062500X-0.350000X-0.062500X0.350000X-0.062500X0.350000X0.062500X-0.350000X0.062500X0*%
%ADD55RoundRect,0.062500X-0.062500X-0.350000X0.062500X-0.350000X0.062500X0.350000X-0.062500X0.350000X0*%
%ADD56R,1.230000X1.230000*%
%ADD57RoundRect,0.050000X0.225000X0.050000X-0.225000X0.050000X-0.225000X-0.050000X0.225000X-0.050000X0*%
%ADD58RoundRect,0.050000X-0.050000X0.225000X-0.050000X-0.225000X0.050000X-0.225000X0.050000X0.225000X0*%
%ADD59RoundRect,0.050000X1.000000X1.250000X-1.000000X1.250000X-1.000000X-1.250000X1.000000X-1.250000X0*%
G04 APERTURE END LIST*
D10*
%TO.C,C12*%
X231805000Y-122060000D03*
X233355000Y-122060000D03*
%TD*%
D11*
%TO.C,C6*%
X217700000Y-101495000D03*
X217700000Y-99945000D03*
%TD*%
D12*
%TO.C,R11*%
X212970000Y-112560000D03*
X213990000Y-112560000D03*
%TD*%
D13*
%TO.C,J5*%
X169360000Y-77230000D03*
D14*
X169360000Y-79770000D03*
X169360000Y-82310000D03*
X169360000Y-84850000D03*
X169360000Y-87390000D03*
X169360000Y-89930000D03*
X169360000Y-92470000D03*
X169360000Y-95010000D03*
X169360000Y-97550000D03*
X169360000Y-100090000D03*
X169360000Y-102630000D03*
X169360000Y-105170000D03*
X169360000Y-107710000D03*
X169360000Y-110250000D03*
X169360000Y-112790000D03*
X169360000Y-115330000D03*
X169360000Y-117870000D03*
X169360000Y-120410000D03*
X169360000Y-122950000D03*
X169360000Y-125490000D03*
%TD*%
D10*
%TO.C,C28*%
X228685000Y-88670000D03*
X230235000Y-88670000D03*
%TD*%
D15*
%TO.C,Y2*%
X202330000Y-82150000D03*
X200130000Y-82150000D03*
X200130000Y-83850000D03*
X202330000Y-83850000D03*
%TD*%
D12*
%TO.C,R12*%
X228520000Y-102620000D03*
X229540000Y-102620000D03*
%TD*%
D11*
%TO.C,C1*%
X211600000Y-122230000D03*
X211600000Y-120680000D03*
%TD*%
D16*
%TO.C,D4*%
X216215000Y-111170000D03*
X214640000Y-111170000D03*
%TD*%
D17*
%TO.C,R15*%
X187490000Y-54970000D03*
X187490000Y-55990000D03*
%TD*%
D18*
%TO.C,D2*%
X205372500Y-88880000D03*
X206947500Y-88880000D03*
%TD*%
D13*
%TO.C,J2*%
X235460000Y-107400000D03*
D14*
X235460000Y-109940000D03*
X232920000Y-107400000D03*
X232920000Y-109940000D03*
X230380000Y-107400000D03*
X230380000Y-109940000D03*
X227840000Y-107400000D03*
X227840000Y-109940000D03*
X225300000Y-107400000D03*
X225300000Y-109940000D03*
%TD*%
D19*
%TO.C,SW3*%
X210400000Y-78208000D03*
X210400000Y-73890000D03*
%TD*%
%TO.C,SW1*%
X214385488Y-88811446D03*
X214385488Y-84493446D03*
%TD*%
D11*
%TO.C,C20*%
X186050000Y-55985000D03*
X186050000Y-54435000D03*
%TD*%
D15*
%TO.C,Y1*%
X202280000Y-88400000D03*
X200080000Y-88400000D03*
X200080000Y-90100000D03*
X202280000Y-90100000D03*
%TD*%
D11*
%TO.C,C23*%
X220230000Y-84420000D03*
X220230000Y-82870000D03*
%TD*%
D10*
%TO.C,C24*%
X223545000Y-73600000D03*
X225095000Y-73600000D03*
%TD*%
D13*
%TO.C,J4*%
X245750000Y-76850000D03*
D14*
X245750000Y-79390000D03*
X245750000Y-81930000D03*
X245750000Y-84470000D03*
X245750000Y-87010000D03*
X245750000Y-89550000D03*
X245750000Y-92090000D03*
X245750000Y-94630000D03*
X245750000Y-97170000D03*
X245750000Y-99710000D03*
X245750000Y-102250000D03*
X245750000Y-104790000D03*
X245750000Y-107330000D03*
X245750000Y-109870000D03*
X245750000Y-112410000D03*
X245750000Y-114950000D03*
X245750000Y-117490000D03*
X245750000Y-120030000D03*
X245750000Y-122570000D03*
X245750000Y-125110000D03*
%TD*%
D20*
%TO.C,R13*%
X198859999Y-112300000D03*
X197840001Y-112300000D03*
%TD*%
D21*
%TO.C,SW2*%
X229509000Y-100040000D03*
X225191000Y-100040000D03*
%TD*%
D10*
%TO.C,C17*%
X204390000Y-84110000D03*
X205940000Y-84110000D03*
%TD*%
D11*
%TO.C,C11*%
X232560000Y-100000000D03*
X232560000Y-98450000D03*
%TD*%
D17*
%TO.C,R23*%
X200480000Y-75620000D03*
X200480000Y-76640000D03*
%TD*%
D10*
%TO.C,C21*%
X177235000Y-65510000D03*
X178785000Y-65510000D03*
%TD*%
%TO.C,C31*%
X205765000Y-78110000D03*
X207315000Y-78110000D03*
%TD*%
D22*
%TO.C,J6*%
X173885000Y-65780000D03*
X173885000Y-71560000D03*
D23*
X174960000Y-65470000D03*
X174960000Y-66270000D03*
D24*
X174960000Y-67420000D03*
X174960000Y-68420000D03*
X174960000Y-68920000D03*
X174960000Y-69920000D03*
D23*
X174960000Y-71070000D03*
X174960000Y-71870000D03*
X174960000Y-71870000D03*
X174960000Y-71070000D03*
D24*
X174960000Y-70420000D03*
X174960000Y-69420000D03*
X174960000Y-67920000D03*
X174960000Y-66920000D03*
D23*
X174960000Y-66270000D03*
X174960000Y-65470000D03*
D25*
X174385000Y-64350000D03*
D26*
X170205000Y-64350000D03*
D25*
X174385000Y-72990000D03*
D26*
X170205000Y-72990000D03*
%TD*%
D10*
%TO.C,C22*%
X177180000Y-59470000D03*
X178730000Y-59470000D03*
%TD*%
D27*
%TO.C,C5*%
X205088008Y-109881992D03*
X203991992Y-110978008D03*
%TD*%
D28*
%TO.C,U1*%
X206178820Y-94765519D03*
X205825266Y-95119072D03*
X205471713Y-95472626D03*
X205118159Y-95826179D03*
X204764606Y-96179732D03*
X204411052Y-96533286D03*
X204057499Y-96886839D03*
X203703946Y-97240392D03*
X203350393Y-97593946D03*
X202996839Y-97947499D03*
X202643285Y-98301052D03*
X202289732Y-98654606D03*
X201936179Y-99008159D03*
X201582625Y-99361713D03*
X201229072Y-99715266D03*
X200875519Y-100068820D03*
D29*
X200875519Y-102791180D03*
X201229072Y-103144734D03*
X201582626Y-103498287D03*
X201936179Y-103851841D03*
X202289732Y-104205394D03*
X202643286Y-104558948D03*
X202996839Y-104912501D03*
X203350392Y-105266054D03*
X203703946Y-105619607D03*
X204057499Y-105973161D03*
X204411052Y-106326715D03*
X204764606Y-106680268D03*
X205118159Y-107033821D03*
X205471713Y-107387375D03*
X205825266Y-107740928D03*
X206178820Y-108094481D03*
D28*
X208901180Y-108094481D03*
X209254734Y-107740928D03*
X209608287Y-107387374D03*
X209961841Y-107033821D03*
X210315394Y-106680268D03*
X210668948Y-106326714D03*
X211022501Y-105973161D03*
X211376054Y-105619608D03*
X211729607Y-105266054D03*
X212083161Y-104912501D03*
X212436715Y-104558948D03*
X212790268Y-104205394D03*
X213143821Y-103851841D03*
X213497375Y-103498287D03*
X213850928Y-103144734D03*
X214204481Y-102791180D03*
D29*
X214204481Y-100068820D03*
X213850928Y-99715266D03*
X213497374Y-99361713D03*
X213143821Y-99008159D03*
X212790268Y-98654606D03*
X212436714Y-98301052D03*
X212083161Y-97947499D03*
X211729608Y-97593946D03*
X211376054Y-97240393D03*
X211022501Y-96886839D03*
X210668948Y-96533285D03*
X210315394Y-96179732D03*
X209961841Y-95826179D03*
X209608287Y-95472625D03*
X209254734Y-95119072D03*
X208901180Y-94765519D03*
%TD*%
D22*
%TO.C,J3*%
X225350000Y-125665000D03*
X231130000Y-125665000D03*
D30*
X225040000Y-124590000D03*
X225840000Y-124590000D03*
D31*
X226990000Y-124590000D03*
X227990000Y-124590000D03*
X228490000Y-124590000D03*
X229490000Y-124590000D03*
D30*
X230640000Y-124590000D03*
X231440000Y-124590000D03*
X231440000Y-124590000D03*
X230640000Y-124590000D03*
D31*
X229990000Y-124590000D03*
X228990000Y-124590000D03*
X227490000Y-124590000D03*
X226490000Y-124590000D03*
D30*
X225840000Y-124590000D03*
X225040000Y-124590000D03*
D32*
X223920000Y-125165000D03*
D33*
X223920000Y-129345000D03*
D32*
X232560000Y-125165000D03*
D33*
X232560000Y-129345000D03*
%TD*%
D34*
%TO.C,C15*%
X198130000Y-88240000D03*
X198130000Y-89790000D03*
%TD*%
D10*
%TO.C,C19*%
X209835000Y-70220000D03*
X211385000Y-70220000D03*
%TD*%
%TO.C,C13*%
X231745000Y-116050000D03*
X233295000Y-116050000D03*
%TD*%
D35*
%TO.C,U5*%
X213510000Y-116860000D03*
D36*
X214010000Y-117160000D03*
X214510000Y-117160000D03*
X215010000Y-117160000D03*
X215510000Y-117160000D03*
D35*
X216010000Y-116860000D03*
D37*
X216310000Y-116360000D03*
X216310000Y-115860000D03*
X216310000Y-115360000D03*
X216310000Y-114860000D03*
D35*
X216010000Y-114360000D03*
D36*
X215510000Y-114060000D03*
X215010000Y-114060000D03*
X214510000Y-114060000D03*
X214010000Y-114060000D03*
D35*
X213510000Y-114360000D03*
D37*
X213210000Y-114860000D03*
X213210000Y-115360000D03*
X213210000Y-115860000D03*
X213210000Y-116360000D03*
D38*
X214760000Y-115610000D03*
%TD*%
D17*
%TO.C,R2*%
X213320000Y-121370000D03*
X213320000Y-122390000D03*
%TD*%
D13*
%TO.C,J8*%
X245780000Y-63580000D03*
D14*
X245780000Y-66120000D03*
X245780000Y-68660000D03*
X245780000Y-71200000D03*
%TD*%
D17*
%TO.C,R19*%
X232950000Y-54620000D03*
X232950000Y-55640000D03*
%TD*%
D39*
%TO.C,C29*%
X189860000Y-77410000D03*
X188310000Y-77410000D03*
%TD*%
D40*
%TO.C,D3*%
X210090000Y-114820000D03*
X210090000Y-116395000D03*
%TD*%
D12*
%TO.C,R7*%
X217760000Y-114400000D03*
X218780000Y-114400000D03*
%TD*%
D39*
%TO.C,C18*%
X201920000Y-85770000D03*
X200370000Y-85770000D03*
%TD*%
D41*
%TO.C,U2*%
X190285000Y-53620000D03*
X190285000Y-54890000D03*
X190285000Y-56160000D03*
X190285000Y-57430000D03*
X190285000Y-58700000D03*
X190285000Y-59970000D03*
X190285000Y-61240000D03*
X190285000Y-62510000D03*
X190285000Y-63780000D03*
X190285000Y-65050000D03*
X190285000Y-66320000D03*
X190285000Y-67590000D03*
X190285000Y-68860000D03*
X190285000Y-70130000D03*
D42*
X192050000Y-71380000D03*
X193320000Y-71380000D03*
X194590000Y-71380000D03*
X195860000Y-71380000D03*
X197130000Y-71380000D03*
X198400000Y-71380000D03*
X199670000Y-71380000D03*
X200940000Y-71380000D03*
X202210000Y-71380000D03*
X203480000Y-71380000D03*
X204750000Y-71380000D03*
X206020000Y-71380000D03*
D41*
X207785000Y-70130000D03*
X207785000Y-68860000D03*
X207785000Y-67590000D03*
X207785000Y-66320000D03*
X207785000Y-65050000D03*
X207785000Y-63780000D03*
X207785000Y-62510000D03*
X207785000Y-61240000D03*
X207785000Y-59970000D03*
X207785000Y-58700000D03*
X207785000Y-57430000D03*
X207785000Y-56160000D03*
X207785000Y-54890000D03*
X207785000Y-53620000D03*
D43*
X196135000Y-60640000D03*
X196135000Y-62040000D03*
X196835000Y-59940000D03*
X196835000Y-61340000D03*
X196835000Y-62740000D03*
X197535000Y-60640000D03*
D44*
X197535000Y-61340000D03*
D43*
X197535000Y-62040000D03*
X198235000Y-59940000D03*
X198235000Y-61340000D03*
X198235000Y-62740000D03*
X198935000Y-60640000D03*
X198935000Y-62040000D03*
%TD*%
D45*
%TO.C,U9*%
X230925000Y-84980000D03*
X230925000Y-84030000D03*
X230925000Y-83080000D03*
X228650000Y-83080000D03*
X228650000Y-84980000D03*
%TD*%
%TO.C,U3*%
X209367500Y-122452500D03*
X209367500Y-121502500D03*
X209367500Y-120552500D03*
X207092500Y-120552500D03*
X207092500Y-122452500D03*
%TD*%
D11*
%TO.C,C25*%
X218560000Y-84420000D03*
X218560000Y-82870000D03*
%TD*%
D39*
%TO.C,C27*%
X231010000Y-81300000D03*
X229460000Y-81300000D03*
%TD*%
D46*
%TO.C,MK1*%
X202930000Y-76772000D03*
D47*
X202030000Y-74698000D03*
X202030000Y-75520000D03*
D48*
X203592000Y-76772000D03*
D47*
X203830000Y-75520000D03*
X203830000Y-74698000D03*
X202930000Y-74698000D03*
%TD*%
D11*
%TO.C,C2*%
X205230000Y-122455000D03*
X205230000Y-120905000D03*
%TD*%
D49*
%TO.C,C7*%
X198238008Y-99068008D03*
X197141992Y-97971992D03*
%TD*%
D17*
%TO.C,R8*%
X205165000Y-124785000D03*
X205165000Y-125805000D03*
%TD*%
D20*
%TO.C,R14*%
X210980000Y-72170000D03*
X209960000Y-72170000D03*
%TD*%
D50*
%TO.C,D1*%
X206810000Y-125817500D03*
X206810000Y-124242500D03*
%TD*%
D49*
%TO.C,C8*%
X195968008Y-101328008D03*
X194871992Y-100231992D03*
%TD*%
D22*
%TO.C,J1*%
X212370000Y-125735000D03*
X218150000Y-125735000D03*
D30*
X212060000Y-124660000D03*
X212860000Y-124660000D03*
D31*
X214010000Y-124660000D03*
X215010000Y-124660000D03*
X215510000Y-124660000D03*
X216510000Y-124660000D03*
D30*
X217660000Y-124660000D03*
X218460000Y-124660000D03*
X218460000Y-124660000D03*
X217660000Y-124660000D03*
D31*
X217010000Y-124660000D03*
X216010000Y-124660000D03*
X214510000Y-124660000D03*
X213510000Y-124660000D03*
D30*
X212860000Y-124660000D03*
X212060000Y-124660000D03*
D32*
X210940000Y-125235000D03*
D33*
X210940000Y-129415000D03*
D32*
X219580000Y-125235000D03*
D33*
X219580000Y-129415000D03*
%TD*%
D34*
%TO.C,C16*%
X200060000Y-92295000D03*
X200060000Y-93845000D03*
%TD*%
D17*
%TO.C,R10*%
X211460000Y-115570000D03*
X211460000Y-116590000D03*
%TD*%
D10*
%TO.C,C3*%
X207270000Y-90440000D03*
X208820000Y-90440000D03*
%TD*%
%TO.C,C14*%
X202860000Y-112770000D03*
X204410000Y-112770000D03*
%TD*%
D49*
%TO.C,C9*%
X197100000Y-100225000D03*
X196003984Y-99128984D03*
%TD*%
D20*
%TO.C,R17*%
X178710000Y-67000000D03*
X177690000Y-67000000D03*
%TD*%
D10*
%TO.C,C30*%
X205710000Y-76560000D03*
X207260000Y-76560000D03*
%TD*%
D51*
%TO.C,U6*%
X177190000Y-63730000D03*
X178140000Y-63730000D03*
X179090000Y-63730000D03*
X179090000Y-61455000D03*
X177190000Y-61455000D03*
%TD*%
D11*
%TO.C,C10*%
X211795488Y-88872446D03*
X211795488Y-87322446D03*
%TD*%
D10*
%TO.C,C26*%
X228705000Y-86880000D03*
X230255000Y-86880000D03*
%TD*%
D52*
%TO.C,R3*%
X216815488Y-88812446D03*
X216815488Y-87792446D03*
%TD*%
D10*
%TO.C,C4*%
X207260000Y-91950000D03*
X208810000Y-91950000D03*
%TD*%
D53*
%TO.C,U8*%
X226510000Y-84900000D03*
X226510000Y-84250000D03*
X226510000Y-83600000D03*
X226510000Y-82950000D03*
X222210000Y-82950000D03*
X222210000Y-83600000D03*
X222210000Y-84250000D03*
X222210000Y-84900000D03*
%TD*%
D52*
%TO.C,R4*%
X229980000Y-122840000D03*
X229980000Y-121820000D03*
%TD*%
D12*
%TO.C,R16*%
X177620000Y-70410000D03*
X178640000Y-70410000D03*
%TD*%
D51*
%TO.C,U4*%
X231740000Y-120240000D03*
X232690000Y-120240000D03*
X233640000Y-120240000D03*
X233640000Y-117965000D03*
X231740000Y-117965000D03*
%TD*%
D52*
%TO.C,R1*%
X217580000Y-122400000D03*
X217580000Y-121380000D03*
%TD*%
D17*
%TO.C,R5*%
X226510000Y-121840000D03*
X226510000Y-122860000D03*
%TD*%
D54*
%TO.C,U10*%
X192452500Y-75560000D03*
X192452500Y-76060000D03*
X192452500Y-76560000D03*
X192452500Y-77060000D03*
D55*
X193140000Y-77747500D03*
X193640000Y-77747500D03*
X194140000Y-77747500D03*
X194640000Y-77747500D03*
D54*
X195327500Y-77060000D03*
X195327500Y-76560000D03*
X195327500Y-76060000D03*
X195327500Y-75560000D03*
D55*
X194640000Y-74872500D03*
X194140000Y-74872500D03*
X193640000Y-74872500D03*
X193140000Y-74872500D03*
D56*
X193890000Y-76310000D03*
%TD*%
D57*
%TO.C,U7*%
X225820000Y-78800000D03*
X225820000Y-78400000D03*
X225820000Y-78000000D03*
X225820000Y-77600000D03*
X225820000Y-77200000D03*
X225820000Y-76800000D03*
D58*
X225320000Y-76300000D03*
X224920000Y-76300000D03*
X224520000Y-76300000D03*
X224120000Y-76300000D03*
X223720000Y-76300000D03*
X223320000Y-76300000D03*
D57*
X222820000Y-76800000D03*
X222820000Y-77200000D03*
X222820000Y-77600000D03*
X222820000Y-78000000D03*
X222820000Y-78400000D03*
X222820000Y-78800000D03*
D58*
X223320000Y-79300000D03*
X223720000Y-79300000D03*
X224120000Y-79300000D03*
X224520000Y-79300000D03*
X224920000Y-79300000D03*
X225320000Y-79300000D03*
%TD*%
D52*
%TO.C,R9*%
X205190000Y-91300000D03*
X205190000Y-90280000D03*
%TD*%
D19*
%TO.C,SW4*%
X186650000Y-62009000D03*
X186650000Y-57691000D03*
%TD*%
D20*
%TO.C,R6*%
X218790000Y-115440000D03*
X217770000Y-115440000D03*
%TD*%
D59*
%TO.C,LS1*%
X195160000Y-82530000D03*
X183760000Y-82530000D03*
X183760000Y-91230000D03*
X195160000Y-91230000D03*
%TD*%
M02*
