%TF.GenerationSoftware,KiCad,Pcbnew,10.99.0-unknown-ab00e101b5~187~ubuntu24.04.1*%
%TF.CreationDate,2026-08-31T00:15:45-04:00*%
%TF.ProjectId,stmboard,73746d62-6f61-4726-942e-6b696361645f,rev?*%
%TF.SameCoordinates,Original*%
%TF.FileFunction,Legend,Bot*%
%TF.FilePolarity,Positive*%
%FSLAX46Y46*%
G04 Gerber Fmt 4.6, Leading zero omitted, Abs format (unit mm)*
G04 Created by KiCad (PCBNEW 10.99.0-unknown-ab00e101b5~187~ubuntu24.04.1) date 2026-08-31 00:15:45*
%MOMM*%
%LPD*%
G01*
G04 APERTURE LIST*
%ADD10C,0.150000*%
%ADD11C,0.120000*%
G04 APERTURE END LIST*
D10*
X216674819Y-61167142D02*
X216198628Y-60833809D01*
X216674819Y-60595714D02*
X215674819Y-60595714D01*
X215674819Y-60595714D02*
X215674819Y-60976666D01*
X215674819Y-60976666D02*
X215722438Y-61071904D01*
X215722438Y-61071904D02*
X215770057Y-61119523D01*
X215770057Y-61119523D02*
X215865295Y-61167142D01*
X215865295Y-61167142D02*
X216008152Y-61167142D01*
X216008152Y-61167142D02*
X216103390Y-61119523D01*
X216103390Y-61119523D02*
X216151009Y-61071904D01*
X216151009Y-61071904D02*
X216198628Y-60976666D01*
X216198628Y-60976666D02*
X216198628Y-60595714D01*
X216674819Y-62119523D02*
X216674819Y-61548095D01*
X216674819Y-61833809D02*
X215674819Y-61833809D01*
X215674819Y-61833809D02*
X215817676Y-61738571D01*
X215817676Y-61738571D02*
X215912914Y-61643333D01*
X215912914Y-61643333D02*
X215960533Y-61548095D01*
X216103390Y-62690952D02*
X216055771Y-62595714D01*
X216055771Y-62595714D02*
X216008152Y-62548095D01*
X216008152Y-62548095D02*
X215912914Y-62500476D01*
X215912914Y-62500476D02*
X215865295Y-62500476D01*
X215865295Y-62500476D02*
X215770057Y-62548095D01*
X215770057Y-62548095D02*
X215722438Y-62595714D01*
X215722438Y-62595714D02*
X215674819Y-62690952D01*
X215674819Y-62690952D02*
X215674819Y-62881428D01*
X215674819Y-62881428D02*
X215722438Y-62976666D01*
X215722438Y-62976666D02*
X215770057Y-63024285D01*
X215770057Y-63024285D02*
X215865295Y-63071904D01*
X215865295Y-63071904D02*
X215912914Y-63071904D01*
X215912914Y-63071904D02*
X216008152Y-63024285D01*
X216008152Y-63024285D02*
X216055771Y-62976666D01*
X216055771Y-62976666D02*
X216103390Y-62881428D01*
X216103390Y-62881428D02*
X216103390Y-62690952D01*
X216103390Y-62690952D02*
X216151009Y-62595714D01*
X216151009Y-62595714D02*
X216198628Y-62548095D01*
X216198628Y-62548095D02*
X216293866Y-62500476D01*
X216293866Y-62500476D02*
X216484342Y-62500476D01*
X216484342Y-62500476D02*
X216579580Y-62548095D01*
X216579580Y-62548095D02*
X216627200Y-62595714D01*
X216627200Y-62595714D02*
X216674819Y-62690952D01*
X216674819Y-62690952D02*
X216674819Y-62881428D01*
X216674819Y-62881428D02*
X216627200Y-62976666D01*
X216627200Y-62976666D02*
X216579580Y-63024285D01*
X216579580Y-63024285D02*
X216484342Y-63071904D01*
X216484342Y-63071904D02*
X216293866Y-63071904D01*
X216293866Y-63071904D02*
X216198628Y-63024285D01*
X216198628Y-63024285D02*
X216151009Y-62976666D01*
X216151009Y-62976666D02*
X216103390Y-62881428D01*
X194222857Y-61804819D02*
X194556190Y-61328628D01*
X194794285Y-61804819D02*
X194794285Y-60804819D01*
X194794285Y-60804819D02*
X194413333Y-60804819D01*
X194413333Y-60804819D02*
X194318095Y-60852438D01*
X194318095Y-60852438D02*
X194270476Y-60900057D01*
X194270476Y-60900057D02*
X194222857Y-60995295D01*
X194222857Y-60995295D02*
X194222857Y-61138152D01*
X194222857Y-61138152D02*
X194270476Y-61233390D01*
X194270476Y-61233390D02*
X194318095Y-61281009D01*
X194318095Y-61281009D02*
X194413333Y-61328628D01*
X194413333Y-61328628D02*
X194794285Y-61328628D01*
X193841904Y-60900057D02*
X193794285Y-60852438D01*
X193794285Y-60852438D02*
X193699047Y-60804819D01*
X193699047Y-60804819D02*
X193460952Y-60804819D01*
X193460952Y-60804819D02*
X193365714Y-60852438D01*
X193365714Y-60852438D02*
X193318095Y-60900057D01*
X193318095Y-60900057D02*
X193270476Y-60995295D01*
X193270476Y-60995295D02*
X193270476Y-61090533D01*
X193270476Y-61090533D02*
X193318095Y-61233390D01*
X193318095Y-61233390D02*
X193889523Y-61804819D01*
X193889523Y-61804819D02*
X193270476Y-61804819D01*
X192651428Y-60804819D02*
X192556190Y-60804819D01*
X192556190Y-60804819D02*
X192460952Y-60852438D01*
X192460952Y-60852438D02*
X192413333Y-60900057D01*
X192413333Y-60900057D02*
X192365714Y-60995295D01*
X192365714Y-60995295D02*
X192318095Y-61185771D01*
X192318095Y-61185771D02*
X192318095Y-61423866D01*
X192318095Y-61423866D02*
X192365714Y-61614342D01*
X192365714Y-61614342D02*
X192413333Y-61709580D01*
X192413333Y-61709580D02*
X192460952Y-61757200D01*
X192460952Y-61757200D02*
X192556190Y-61804819D01*
X192556190Y-61804819D02*
X192651428Y-61804819D01*
X192651428Y-61804819D02*
X192746666Y-61757200D01*
X192746666Y-61757200D02*
X192794285Y-61709580D01*
X192794285Y-61709580D02*
X192841904Y-61614342D01*
X192841904Y-61614342D02*
X192889523Y-61423866D01*
X192889523Y-61423866D02*
X192889523Y-61185771D01*
X192889523Y-61185771D02*
X192841904Y-60995295D01*
X192841904Y-60995295D02*
X192794285Y-60900057D01*
X192794285Y-60900057D02*
X192746666Y-60852438D01*
X192746666Y-60852438D02*
X192651428Y-60804819D01*
X195264819Y-56797142D02*
X194788628Y-56463809D01*
X195264819Y-56225714D02*
X194264819Y-56225714D01*
X194264819Y-56225714D02*
X194264819Y-56606666D01*
X194264819Y-56606666D02*
X194312438Y-56701904D01*
X194312438Y-56701904D02*
X194360057Y-56749523D01*
X194360057Y-56749523D02*
X194455295Y-56797142D01*
X194455295Y-56797142D02*
X194598152Y-56797142D01*
X194598152Y-56797142D02*
X194693390Y-56749523D01*
X194693390Y-56749523D02*
X194741009Y-56701904D01*
X194741009Y-56701904D02*
X194788628Y-56606666D01*
X194788628Y-56606666D02*
X194788628Y-56225714D01*
X194360057Y-57178095D02*
X194312438Y-57225714D01*
X194312438Y-57225714D02*
X194264819Y-57320952D01*
X194264819Y-57320952D02*
X194264819Y-57559047D01*
X194264819Y-57559047D02*
X194312438Y-57654285D01*
X194312438Y-57654285D02*
X194360057Y-57701904D01*
X194360057Y-57701904D02*
X194455295Y-57749523D01*
X194455295Y-57749523D02*
X194550533Y-57749523D01*
X194550533Y-57749523D02*
X194693390Y-57701904D01*
X194693390Y-57701904D02*
X195264819Y-57130476D01*
X195264819Y-57130476D02*
X195264819Y-57749523D01*
X194360057Y-58130476D02*
X194312438Y-58178095D01*
X194312438Y-58178095D02*
X194264819Y-58273333D01*
X194264819Y-58273333D02*
X194264819Y-58511428D01*
X194264819Y-58511428D02*
X194312438Y-58606666D01*
X194312438Y-58606666D02*
X194360057Y-58654285D01*
X194360057Y-58654285D02*
X194455295Y-58701904D01*
X194455295Y-58701904D02*
X194550533Y-58701904D01*
X194550533Y-58701904D02*
X194693390Y-58654285D01*
X194693390Y-58654285D02*
X195264819Y-58082857D01*
X195264819Y-58082857D02*
X195264819Y-58701904D01*
X231148333Y-50504819D02*
X231148333Y-51219104D01*
X231148333Y-51219104D02*
X231195952Y-51361961D01*
X231195952Y-51361961D02*
X231291190Y-51457200D01*
X231291190Y-51457200D02*
X231434047Y-51504819D01*
X231434047Y-51504819D02*
X231529285Y-51504819D01*
X230767380Y-50504819D02*
X230100714Y-50504819D01*
X230100714Y-50504819D02*
X230529285Y-51504819D01*
X211724819Y-55127142D02*
X211248628Y-54793809D01*
X211724819Y-54555714D02*
X210724819Y-54555714D01*
X210724819Y-54555714D02*
X210724819Y-54936666D01*
X210724819Y-54936666D02*
X210772438Y-55031904D01*
X210772438Y-55031904D02*
X210820057Y-55079523D01*
X210820057Y-55079523D02*
X210915295Y-55127142D01*
X210915295Y-55127142D02*
X211058152Y-55127142D01*
X211058152Y-55127142D02*
X211153390Y-55079523D01*
X211153390Y-55079523D02*
X211201009Y-55031904D01*
X211201009Y-55031904D02*
X211248628Y-54936666D01*
X211248628Y-54936666D02*
X211248628Y-54555714D01*
X210820057Y-55508095D02*
X210772438Y-55555714D01*
X210772438Y-55555714D02*
X210724819Y-55650952D01*
X210724819Y-55650952D02*
X210724819Y-55889047D01*
X210724819Y-55889047D02*
X210772438Y-55984285D01*
X210772438Y-55984285D02*
X210820057Y-56031904D01*
X210820057Y-56031904D02*
X210915295Y-56079523D01*
X210915295Y-56079523D02*
X211010533Y-56079523D01*
X211010533Y-56079523D02*
X211153390Y-56031904D01*
X211153390Y-56031904D02*
X211724819Y-55460476D01*
X211724819Y-55460476D02*
X211724819Y-56079523D01*
X211724819Y-57031904D02*
X211724819Y-56460476D01*
X211724819Y-56746190D02*
X210724819Y-56746190D01*
X210724819Y-56746190D02*
X210867676Y-56650952D01*
X210867676Y-56650952D02*
X210962914Y-56555714D01*
X210962914Y-56555714D02*
X211010533Y-56460476D01*
%TO.C,R18*%
D11*
X214670000Y-61963641D02*
X214670000Y-61656359D01*
X215430000Y-61963641D02*
X215430000Y-61656359D01*
%TO.C,R20*%
X193733641Y-62140000D02*
X193426359Y-62140000D01*
X193733641Y-62900000D02*
X193426359Y-62900000D01*
%TO.C,R22*%
X193260000Y-57593641D02*
X193260000Y-57286359D01*
X194020000Y-57593641D02*
X194020000Y-57286359D01*
%TO.C,J7*%
X223905000Y-52190000D02*
X223905000Y-53590000D01*
X223905000Y-56110000D02*
X223905000Y-61890000D01*
X223905000Y-64410000D02*
X223905000Y-66910000D01*
X237725000Y-52190000D02*
X223905000Y-52190000D01*
X237725000Y-52190000D02*
X237725000Y-53590000D01*
X237725000Y-61890000D02*
X237725000Y-56110000D01*
X237725000Y-64410000D02*
X237725000Y-66910000D01*
X237725000Y-66910000D02*
X223905000Y-66910000D01*
%TO.C,R21*%
X212060000Y-55616359D02*
X212060000Y-55923641D01*
X212820000Y-55616359D02*
X212820000Y-55923641D01*
%TD*%
M02*
